<svg xmlns="http://www.w3.org/2000/svg" xmlns:xlink="http://www.w3.org/1999/xlink" width="44.239" height="37.405" viewBox="0 0 44.239 37.405">
  <defs>
    <clipPath id="clip-path">
      <path id="Trazado_874546" data-name="Trazado 874546" d="M0,0A37.405,37.405,0,0,1,37.405,37.405H.008Z" transform="translate(37.405 37.405) rotate(180)" fill="#eff2d5"/>
    </clipPath>
    <clipPath id="clip-path-2">
      <path id="Trazado_874549" data-name="Trazado 874549" d="M0,0A15.405,15.405,0,0,1,15.405,15.405H0Z" transform="translate(15.405 15.405) rotate(180)" fill="#af7142"/>
    </clipPath>
  </defs>
  <g id="Grupo_1101062" data-name="Grupo 1101062" transform="translate(-190.095 -876.933)">
    <g id="Enmascarar_grupo_1098787" data-name="Enmascarar grupo 1098787" transform="translate(190.095 876.933)" clip-path="url(#clip-path)">
      <path id="Trazado_874544" data-name="Trazado 874544" d="M0,0A37.405,37.405,0,0,1,37.405,37.405H.008Z" transform="translate(37.405 37.405) rotate(180)" fill="#eff2d5"/>
      <path id="Trazado_882476" data-name="Trazado 882476" d="M4.926,43.976a13.58,13.58,0,0,0,1.641-3.234c.361-2.059.647-18.524-1.461-21.518a7.26,7.26,0,0,1-1.021-2.76,26.316,26.316,0,0,0-.249,7.14c.39,4.774-.469,9.969.864,16.153a14.653,14.653,0,0,1,.226,4.221Zm101.96-29.892c.415,2.426,3.2,5.917,3.2,5.917s.947,1.6.473,2.6c0,0,.237,1.776-.946,2.189a8.81,8.81,0,0,1-5.328.178,20.558,20.558,0,0,0-5.5-.71,7.108,7.108,0,0,0-2.183.1c-.163.03-.824.106-.91.144a13.759,13.759,0,0,0-1.652.721,11.043,11.043,0,0,0-2.774,2.108,21.763,21.763,0,0,0-2.187,3.609,29.715,29.715,0,0,1-5.6,7.191C80.351,40.8,79.8,42.52,78.473,43.615S76.2,45.571,76.2,45.571s-.249,11.555-.323,14.024a12.268,12.268,0,0,0,.07,2.811c.063.966-.03,1.88.048,2.84.093,1.207-.267,1.41.379,2.7.086.169.174.339.264.509a17.661,17.661,0,0,0,1.114,1.9,8.392,8.392,0,0,1,1.195,2.05.972.972,0,0,1-.115.376c-.854-.039-1.708-.091-2.562-.07-.3.007-2.336.045-2.454-.2,0,0-.233-1.364-.267-1.531-.07-.353-.138-.709-.212-1.061l-.025-.11-.022-.108L72.046,67.74c-.561-.89.077-2.07.056-3.126s.1.146.119-.908c.015-.956.034-1.914.034-2.869a27.617,27.617,0,0,1,.1-3.519S70.7,60.6,70.91,63.115s.468,2.939.6,5.477c.011.2-.048-.274.022.6s.9,1.927,1.4,3.175c.1.259.2.523.3.784a9.876,9.876,0,0,1-2.68.157,9.068,9.068,0,0,0-.992.021c-.825.065-1.2.04-1.623-.754a3.351,3.351,0,0,1-.249-1.551c-.653.818-.312-.438-.9-.964-.3-.271-.412-.054-.23-.717s.457-10.535.353-11.761a23.172,23.172,0,0,0-.721-3.336,31.218,31.218,0,0,1-.542-3.461,12.98,12.98,0,0,1,.145-2.007,31.8,31.8,0,0,0-.041-3.579c-.345-1.132-.805-2.619-1.882-3.251-1.946-1.087-3.427-.789-5.5-.374-12.495,2.5-23.426,3.85-33.766-3.015-.973-.646-.653-.613-1.34.393-2.094,3.078-2.325,2.158-3.5,5.6-.613,1.8-1.166,3.769-1.735,5.61-.23.738-.42,1.466-.62,2.211-.138.5-.253,1-.357,1.514,0,0-.341,6.025-.4,8a12.027,12.027,0,0,0,1.307,5c.364.911.809,1.771,1.177,2.695a8.7,8.7,0,0,0,1.731,2.8,1.57,1.57,0,0,1,.35,1.251c-.133.584-1.315.434-1.764.4-.412-.033-.788-.071-1.2-.07a4.889,4.889,0,0,1-1.853-.137,4.355,4.355,0,0,1-.777-.872c-.052-.063-.108-.125-.16-.186l-.222-.248-.074-.082s-1.563-.471-1.641-1.331S11.762,52.692,11.215,51.91A103.063,103.063,0,0,0,9.885,62.631c-.082,3.522-.267,6.424.624,8.2s.913,1.866,1.4,2.736c.189.334.795,1.286.059,1.354-.245.023-.624.017-.9.031a18.089,18.089,0,0,1-2.276.023l-.122-.008c-.212-.015-1.263-.045-1.381-.094-.181-.076-.233-.318-.278-.489-.323-1.184.687-2-.757-2.721-.2-.1-.409-.169-.612-.275-.368-.19-.357-.643-.556-1.015-.5-.919-.36-.457-.337-1.543.007-.339.007-.679.018-1.017a119.581,119.581,0,0,0-.056-12.053,25.614,25.614,0,0,0-.765-5.644c-.074-.22-.133-.437-.185-.651-.438,1.258-.928,2.3-1.259,3.623-.048.191-.357,1.32-.676,1.229-.282-.081-.509-.773-.546-1.049-.074-.512-.063-1.05-.138-1.6-.034-.218-.066-.433-.1-.649-.156-.9-.3-1.791-.506-2.683a15.71,15.71,0,0,1-.531-4.284c.156-4.226,2.461-7.288,2.224-10.366s-1.113-16.1.131-22.193c.464-2.291,1.41-3.486,2.425-4.1a13.023,13.023,0,0,1,7.233-2.239C17.417,5,28.219,4.765,32.21,5s37.957.092,39.676.171,9.706.7,10.8.783A67.13,67.13,0,0,0,89.81,4.78a6.977,6.977,0,0,1-.7-2.637c.022-.2.115-.659.337-.733a4.583,4.583,0,0,1,3.4.443S92.487,1.6,92.539,0c0,0,1.493,1.9,2.521,1.9s1.493-.824,4.117-.772a22.859,22.859,0,0,1,3.36.247A8.147,8.147,0,0,0,104.3.594c.4-.279.524-.5.493.266a3.812,3.812,0,0,1-.858,2.425c-.145.114-.1.04.067.334.089.15.178.3.267.448,2.575-1.57,4.79-2.412,7.856-1.951.207.033,1.16.218,1.188.451a5.811,5.811,0,0,1-.18,1.171A9.579,9.579,0,0,1,111.6,6.51a6.464,6.464,0,0,1-1.2.993,4.474,4.474,0,0,1-.708.37c-.122.051-.247.1-.37.143a14.286,14.286,0,0,0-1.7.677c-.342.173-.376.128-.445.455a13.2,13.2,0,0,0-.288,4.935Z" transform="translate(-81.264 3.798)" fill="#b1bf34" fill-rule="evenodd" opacity="0.29" style="mix-blend-mode: multiply;isolation: isolate"/>
    </g>
    <g id="Enmascarar_grupo_1098788" data-name="Enmascarar grupo 1098788" transform="translate(205.5 913.766) rotate(180)" clip-path="url(#clip-path-2)">
      <path id="Trazado_874547" data-name="Trazado 874547" d="M0,0A15.405,15.405,0,0,1,15.405,15.405H0Z" transform="translate(15.405 15.405) rotate(180)" fill="#af7142"/>
      <g id="Grupo_1102168" data-name="Grupo 1102168" transform="translate(-11523.646 -11707.867) rotate(180)" opacity="0.47" style="mix-blend-mode: multiply;isolation: isolate">
        <path id="Trazado_882413" data-name="Trazado 882413" d="M459.454,135.226a9.663,9.663,0,0,1-4.042-.876.245.245,0,0,1,.2-.447,9.177,9.177,0,0,0,3.983.831,9.331,9.331,0,0,0,9.116-9.083,9.26,9.26,0,1,0-17.328,4.368,3.027,3.027,0,0,0,2.422,1.579c2.1.134,3.108-2.182,4.087-4.422.933-2.135,1.815-4.152,3.608-4.277a.245.245,0,1,1,.034.49c-1.5.1-2.32,1.989-3.192,3.984a15.864,15.864,0,0,1-1.724,3.258,3.212,3.212,0,0,1-2.844,1.457,3.515,3.515,0,0,1-2.819-1.828,9.734,9.734,0,1,1,8.647,4.965h-.152" transform="translate(-11991.707 -11839.425)" fill="#af7142"/>
        <path id="Trazado_882414" data-name="Trazado 882414" d="M536.245,198.535h-.008a.245.245,0,0,1,0-.491h.008c2.462,0,4.077-.74,4.935-2.262a9.889,9.889,0,0,0,.86-4.423,4.687,4.687,0,0,1,.534-2.684c-2.4-.6-6.068.134-7.756,2.174-1.3,1.566-1.228,3.625.2,5.954a.245.245,0,0,1-.419.256c-1.953-3.19-1.164-5.308-.158-6.524,1.985-2.4,6.322-3.11,8.873-2.144a.245.245,0,0,1-.065.474c-.6.053-.66.989-.716,2.511-.1,2.85-.265,7.157-6.286,7.157" transform="translate(-12070.263 -11907.242)" fill="#af7142"/>
      </g>
    </g>
    <circle id="Elipse_11555" data-name="Elipse 11555" cx="6.834" cy="6.834" r="6.834" transform="translate(220.666 888.801)" fill="#57d3fb"/>
  </g>
</svg>
