<?xml version="1.0" encoding="UTF-8"?>
<svg xmlns="http://www.w3.org/2000/svg" version="1.1" xmlns:xlink="http://www.w3.org/1999/xlink" viewBox="0 0 1024 546.57">
  <defs>
    <style>
      .cls-1 {
        fill: #663a32;
      }

      .cls-1, .cls-2, .cls-3, .cls-4, .cls-5, .cls-6, .cls-7, .cls-8, .cls-9, .cls-10, .cls-11, .cls-12, .cls-13, .cls-14, .cls-15, .cls-16, .cls-17, .cls-18, .cls-19, .cls-20, .cls-21, .cls-22, .cls-23, .cls-24, .cls-25, .cls-26, .cls-27, .cls-28, .cls-29, .cls-30, .cls-31, .cls-32, .cls-33, .cls-34, .cls-35, .cls-36, .cls-37, .cls-38, .cls-39, .cls-40, .cls-41, .cls-42, .cls-43, .cls-44, .cls-45, .cls-46, .cls-47, .cls-48, .cls-49 {
        stroke-width: 0px;
      }

      .cls-2, .cls-41 {
        fill: #eaeaea;
      }

      .cls-3 {
        fill: #5a332c;
      }

      .cls-4 {
        fill: #72b635;
      }

      .cls-5 {
        fill: #c6b29f;
        mix-blend-mode: color-burn;
      }

      .cls-6, .cls-16, .cls-20, .cls-22, .cls-41, .cls-50, .cls-47, .cls-49 {
        mix-blend-mode: multiply;
      }

      .cls-6, .cls-45 {
        fill: #ccc8c5;
      }

      .cls-7 {
        fill: #602e25;
      }

      .cls-51 {
        isolation: isolate;
      }

      .cls-8 {
        fill: #3c8125;
      }

      .cls-9 {
        fill: #428d2d;
      }

      .cls-10 {
        fill: #91524b;
      }

      .cls-11 {
        fill: #dbdbdb;
      }

      .cls-12 {
        fill: #ececec;
        mix-blend-mode: soft-light;
      }

      .cls-13 {
        fill: #c62d32;
      }

      .cls-14, .cls-52 {
        fill: none;
      }

      .cls-15 {
        fill: #4ab3d3;
      }

      .cls-16 {
        fill: #fcdfc2;
      }

      .cls-17 {
        fill: #564a5f;
      }

      .cls-18, .cls-47 {
        fill: #c3c3c3;
      }

      .cls-19 {
        fill: #4ca22f;
      }

      .cls-20 {
        fill: #e1e1e1;
      }

      .cls-21 {
        fill: #3f882b;
      }

      .cls-22 {
        fill: #bf8f8d;
      }

      .cls-23 {
        fill: #6d342b;
      }

      .cls-24 {
        fill: #db540a;
      }

      .cls-25 {
        fill: #489b31;
      }

      .cls-26 {
        fill: #f4a276;
      }

      .cls-27 {
        fill: #54355c;
      }

      .cls-28 {
        fill: #418b28;
      }

      .cls-29 {
        fill: #482820;
      }

      .cls-53 {
        clip-path: url(#clippath);
      }

      .cls-52 {
        stroke: #f19061;
        stroke-linecap: round;
        stroke-linejoin: round;
        stroke-width: .2px;
      }

      .cls-30 {
        fill: #e23139;
      }

      .cls-31 {
        fill: #68a528;
      }

      .cls-32 {
        fill: #5c3b66;
      }

      .cls-33 {
        fill: #dfdfdf;
      }

      .cls-34 {
        fill: #579832;
      }

      .cls-35 {
        fill: #f6ad81;
      }

      .cls-36 {
        fill: #ee783b;
      }

      .cls-37 {
        fill: #7f3d34;
      }

      .cls-38 {
        fill: #fbc243;
      }

      .cls-39 {
        fill: #fff;
      }

      .cls-40 {
        fill: #4a3f51;
      }

      .cls-42 {
        fill: #7d473f;
      }

      .cls-43 {
        fill: #7e4740;
      }

      .cls-44 {
        fill: #312935;
      }

      .cls-46 {
        fill: #9bd6f1;
      }

      .cls-48 {
        fill: #261f28;
      }

      .cls-49 {
        fill: #d4d4d3;
      }
    </style>
    <clipPath id="clippath">
      <polygon class="cls-14" points="866.01 281.2 796.27 234.39 725.51 281.2 695.38 333.09 694.5 483.53 895.36 483.53 895.75 333.09 866.01 281.2"/>
    </clipPath>
  </defs>
  <g class="cls-51">
    <g id="Capa_1" data-name="Capa 1">
      <g>
        <rect class="cls-46" width="1024" height="545.78"/>
        <rect class="cls-4" y="472.63" width="1024" height="73.15"/>
        <rect class="cls-9" y="445.66" width="1024" height="26.97"/>
      </g>
      <path class="cls-15" d="M194.37,177.01c-.61-.11-1.21-.06-1.76.11-.99-2.49-3.16-4.41-5.93-4.9-.21-.04-.42-.06-.63-.08-1.21-4.26-4.66-7.65-9.2-8.44-4.38-.77-8.63,1.07-11.26,4.43-1.22-.9-2.65-1.55-4.23-1.82-2.25-.39-4.45,0-6.36.97-1.25-5.83-5.78-10.56-11.85-11.63-7.33-1.29-14.37,3.22-16.7,10.29-1.23-.26-2.53-.3-3.84-.07-1.58.28-3.01.92-4.23,1.82-2.62-3.36-6.87-5.2-11.26-4.43-4.95.87-8.6,4.82-9.47,9.61-1.15-.36-2.4-.47-3.66-.25-3.09.54-5.43,2.87-6.22,5.78-.67-.3-1.44-.41-2.21-.28-2.12.37-3.52,2.44-3.14,4.63.21,1.18.9,2.15,1.82,2.74-.25.78-.33,1.63-.17,2.5.48,2.76,3.04,4.61,5.71,4.14.59-.11,1.14-.32,1.63-.62,1.21,3.46,4.13,6.16,7.91,6.83,3.01.53,5.94-.35,8.18-2.15,1.72,2.43,4.32,4.2,7.43,4.75,3.65.64,7.21-.53,9.81-2.88,2.13,2.46,5.05,4.21,8.46,4.81,5.33.94,10.51-1.2,13.84-5.15,3.26,3.3,7.94,5.01,12.76,4.16,4.29-.76,7.8-3.39,9.88-6.94,2.33,2.63,5.86,4.03,9.49,3.39,4.44-.78,7.69-4.37,8.38-8.7.69.69,1.57,1.18,2.58,1.36,2.67.47,5.23-1.39,5.71-4.14.15-.87.08-1.72-.17-2.5.92-.59,1.61-1.55,1.82-2.74.38-2.18-1.02-4.25-3.14-4.63Z"/>
      <path class="cls-15" d="M903.9,171.53c-.61-.11-1.21-.06-1.76.11-.99-2.49-3.16-4.41-5.93-4.9-.21-.04-.42-.06-.63-.08-1.21-4.26-4.66-7.65-9.2-8.44-4.38-.77-8.63,1.07-11.26,4.43-1.22-.9-2.65-1.55-4.23-1.82-2.25-.39-4.45,0-6.36.97-1.25-5.83-5.78-10.56-11.85-11.63-7.33-1.29-14.37,3.22-16.7,10.29-1.23-.26-2.53-.3-3.84-.07-1.58.28-3.01.92-4.23,1.82-2.62-3.36-6.87-5.2-11.26-4.43-4.95.87-8.6,4.82-9.47,9.61-1.15-.36-2.4-.47-3.66-.25-3.09.54-5.43,2.87-6.22,5.78-.67-.3-1.44-.41-2.21-.28-2.12.37-3.52,2.44-3.14,4.63.21,1.18.9,2.15,1.82,2.74-.25.78-.33,1.63-.17,2.5.48,2.76,3.04,4.61,5.71,4.14.59-.11,1.14-.32,1.63-.62,1.21,3.46,4.13,6.16,7.91,6.83,3.01.53,5.94-.35,8.18-2.15,1.72,2.43,4.32,4.2,7.43,4.75,3.65.64,7.21-.53,9.81-2.88,2.13,2.46,5.05,4.21,8.46,4.81,5.33.94,10.51-1.2,13.84-5.15,3.26,3.3,7.94,5.01,12.76,4.16,4.29-.76,7.8-3.39,9.88-6.94,2.33,2.63,5.86,4.03,9.49,3.39,4.44-.78,7.69-4.37,8.38-8.7.69.69,1.57,1.18,2.58,1.36,2.67.47,5.23-1.39,5.71-4.14.15-.87.08-1.72-.17-2.5.92-.59,1.61-1.55,1.82-2.74.38-2.18-1.03-4.25-3.14-4.63Z"/>
      <g>
        <path class="cls-38" d="M455.88,176.98c0,26.13-21.18,47.31-47.31,47.31s-47.31-21.18-47.31-47.31,21.18-47.31,47.31-47.31,47.31,21.18,47.31,47.31Z"/>
        <path class="cls-15" d="M536.82,211.05c-.82-.15-1.63-.08-2.37.15-1.34-3.36-4.25-5.94-7.99-6.6-.28-.05-.56-.08-.84-.1-1.63-5.74-6.28-10.3-12.39-11.37-5.9-1.04-11.63,1.44-15.16,5.96-1.65-1.21-3.57-2.09-5.7-2.46-3.03-.53-6,0-8.57,1.31-1.68-7.85-7.79-14.23-15.96-15.66-9.87-1.73-19.36,4.33-22.5,13.86-1.66-.35-3.41-.41-5.17-.1-2.14.37-4.05,1.24-5.7,2.46-3.53-4.52-9.26-7-15.16-5.96-6.67,1.17-11.58,6.49-12.76,12.95-1.55-.49-3.23-.64-4.93-.34-4.16.73-7.31,3.87-8.38,7.79-.91-.41-1.93-.56-2.98-.38-2.85.5-4.74,3.29-4.22,6.24.27,1.59,1.21,2.9,2.45,3.69-.34,1.05-.44,2.19-.24,3.36.66,3.71,4.1,6.21,7.7,5.58.79-.14,1.53-.43,2.19-.83,1.63,4.66,5.56,8.3,10.66,9.2,4.04.71,7.99-.46,11.01-2.89,2.32,3.27,5.82,5.66,10.01,6.39,4.92.86,9.71-.72,13.22-3.88,2.87,3.31,6.8,5.67,11.39,6.48,7.18,1.26,14.16-1.61,18.64-6.94,4.38,4.45,10.7,6.74,17.18,5.6,5.79-1.02,10.51-4.56,13.31-9.34,3.14,3.54,7.89,5.43,12.78,4.57,5.97-1.05,10.36-5.89,11.29-11.72.92.93,2.11,1.59,3.48,1.83,3.59.63,7.04-1.87,7.69-5.58.2-1.17.11-2.32-.24-3.37,1.25-.79,2.18-2.09,2.46-3.69.52-2.94-1.38-5.73-4.23-6.23Z"/>
      </g>
      <g>
        <g>
          <path class="cls-21" d="M220.22,462.9c3.04-3.97,4.85-8.84,4.85-14.11,0-7.12-3.28-13.52-8.47-17.95.71-2.08,1.1-4.29,1.1-6.61,0-11.84-10.16-21.43-22.7-21.43-3.6,0-7.01.79-10.04,2.2-3.47-10.14-13.54-17.46-25.44-17.46s-21.23,6.81-25.03,16.37c-2.25-.7-4.63-1.08-7.13-1.08-12.55,0-22.7,9.6-22.7,21.44,0,1.81.24,3.57.69,5.24-6.8,4.58-11.23,12.08-11.23,20.56,0,4.69,1.38,9.06,3.74,12.82h122.37Z"/>
          <path class="cls-25" d="M108.64,430.84c.71-2.08,1.1-4.29,1.1-6.61,0-11.84-10.16-21.43-22.7-21.43-3.6,0-7.01.79-10.03,2.2-3.47-10.13-13.55-17.46-25.44-17.46s-21.24,6.81-25.05,16.38c-2.25-.7-4.63-1.08-7.13-1.08-6.63,0-12.57,2.7-16.73,6.97v53.09h109.59c3.04-3.97,4.85-8.84,4.85-14.11,0-7.12-3.27-13.52-8.46-17.94Z"/>
          <path class="cls-21" d="M436.05,462.9c3.04-3.97,4.85-8.84,4.85-14.11,0-7.12-3.27-13.52-8.47-17.94.71-2.08,1.1-4.29,1.1-6.61,0-11.84-10.16-21.43-22.7-21.43-3.6,0-7.01.79-10.03,2.2-3.49-10.13-13.55-17.46-25.45-17.46s-21.24,6.81-25.04,16.38c-2.25-.7-4.64-1.08-7.12-1.08-12.55,0-22.72,9.59-22.72,21.44,0,1.81.24,3.57.69,5.24-6.79,4.58-11.22,12.08-11.22,20.56,0,4.69,1.37,9.06,3.74,12.82h122.37Z"/>
          <path class="cls-25" d="M531.09,462.9c3.04-3.97,4.85-8.84,4.85-14.11,0-7.12-3.27-13.52-8.47-17.94.71-2.08,1.1-4.29,1.1-6.61,0-11.84-10.16-21.43-22.7-21.43-3.6,0-7,.79-10.03,2.2-3.48-10.13-13.55-17.46-25.45-17.46s-21.23,6.81-25.04,16.38c-2.23-.7-4.63-1.08-7.12-1.08-12.56,0-22.71,9.59-22.71,21.44,0,1.81.25,3.57.69,5.24-6.78,4.58-11.2,12.08-11.2,20.56,0,4.69,1.38,9.06,3.72,12.82h122.37Z"/>
          <path class="cls-25" d="M328.09,462.9c3.04-3.97,4.85-8.84,4.85-14.11,0-7.12-3.27-13.52-8.47-17.95.71-2.08,1.1-4.29,1.1-6.61,0-11.84-10.17-21.43-22.7-21.43-3.62,0-7.01.79-10.03,2.2-3.48-10.13-13.55-17.46-25.45-17.46s-21.24,6.8-25.05,16.37c-2.24-.7-4.63-1.08-7.12-1.08-12.55,0-22.72,9.6-22.72,21.44,0,1.8.24,3.56.7,5.24-6.8,4.58-11.23,12.08-11.23,20.56,0,4.69,1.37,9.06,3.73,12.82h122.37Z"/>
        </g>
        <g>
          <path class="cls-21" d="M720.59,462.9c3.04-3.97,4.85-8.84,4.85-14.11,0-7.12-3.28-13.52-8.47-17.95.71-2.08,1.1-4.29,1.1-6.61,0-11.84-10.17-21.43-22.71-21.43-3.6,0-7,.79-10.02,2.2-3.48-10.14-13.55-17.46-25.45-17.46s-21.24,6.81-25.04,16.37c-2.23-.7-4.64-1.08-7.13-1.08-12.53,0-22.7,9.6-22.7,21.44,0,1.81.24,3.57.69,5.24-6.79,4.58-11.22,12.08-11.22,20.56,0,4.69,1.38,9.06,3.73,12.82h122.37Z"/>
          <path class="cls-25" d="M612.62,462.9c3.04-3.97,4.86-8.84,4.86-14.11,0-7.12-3.27-13.52-8.46-17.94.71-2.08,1.1-4.29,1.1-6.61,0-11.84-10.17-21.43-22.72-21.43-3.6,0-7,.79-10.02,2.2-3.47-10.13-13.55-17.46-25.45-17.46s-21.24,6.81-25.05,16.38c-2.23-.7-4.63-1.08-7.12-1.08-12.54,0-22.71,9.59-22.71,21.44,0,1.8.24,3.56.69,5.24-6.79,4.58-11.22,12.08-11.22,20.56,0,4.69,1.38,9.06,3.74,12.82h122.36Z"/>
          <path class="cls-21" d="M936.43,462.9c3.04-3.97,4.85-8.84,4.85-14.11,0-7.12-3.27-13.52-8.47-17.94.72-2.08,1.11-4.29,1.11-6.61,0-11.84-10.17-21.43-22.71-21.43-3.6,0-7.01.79-10.03,2.2-3.47-10.13-13.55-17.46-25.44-17.46s-21.24,6.81-25.03,16.38c-2.24-.7-4.64-1.08-7.14-1.08-12.54,0-22.7,9.59-22.7,21.44,0,1.81.24,3.57.68,5.24-6.79,4.58-11.21,12.08-11.21,20.56,0,4.69,1.38,9.06,3.74,12.82h122.37Z"/>
          <path class="cls-25" d="M1023.92,410.8c-4.16-4.87-10.53-8-17.69-8-3.6,0-7.01.79-10.03,2.2-3.47-10.13-13.54-17.46-25.44-17.46s-21.23,6.81-25.04,16.38c-2.24-.7-4.63-1.08-7.12-1.08-12.55,0-22.71,9.59-22.71,21.44,0,1.81.24,3.57.68,5.24-6.79,4.58-11.21,12.08-11.21,20.56,0,4.69,1.37,9.06,3.74,12.82h114.82v-52.1Z"/>
          <path class="cls-25" d="M828.46,462.9c3.04-3.97,4.85-8.84,4.85-14.11,0-7.12-3.26-13.52-8.47-17.95.72-2.08,1.11-4.29,1.11-6.61,0-11.84-10.17-21.43-22.71-21.43-3.6,0-7,.79-10.02,2.2-3.48-10.13-13.55-17.46-25.44-17.46s-21.24,6.8-25.04,16.37c-2.24-.7-4.63-1.08-7.12-1.08-12.55,0-22.71,9.6-22.71,21.44,0,1.8.24,3.56.69,5.24-6.79,4.58-11.21,12.08-11.21,20.56,0,4.69,1.38,9.06,3.73,12.82h122.37Z"/>
        </g>
      </g>
      <g>
        <rect class="cls-23" x="20.15" y="381.4" width="231.84" height="15.79"/>
        <rect class="cls-23" x="20.48" y="427.44" width="231.84" height="15.79"/>
        <g>
          <polygon class="cls-37" points="253.59 462.76 237.01 462.76 237.01 369.2 245.4 353.56 253.59 369.2 253.59 462.76"/>
          <g>
            <path class="cls-7" d="M247.93,388.6c0,1.62-1.32,2.94-2.94,2.94s-2.94-1.32-2.94-2.94,1.32-2.94,2.94-2.94,2.94,1.32,2.94,2.94Z"/>
            <path class="cls-7" d="M247.93,435.47c0,1.62-1.32,2.94-2.94,2.94s-2.94-1.32-2.94-2.94,1.32-2.94,2.94-2.94,2.94,1.32,2.94,2.94Z"/>
          </g>
        </g>
        <g>
          <polygon class="cls-37" points="198.93 462.76 182.35 462.76 182.35 369.2 190.74 353.56 198.93 369.2 198.93 462.76"/>
          <g>
            <path class="cls-7" d="M193.28,388.6c0,1.62-1.32,2.94-2.94,2.94s-2.94-1.32-2.94-2.94,1.32-2.94,2.94-2.94,2.94,1.32,2.94,2.94Z"/>
            <path class="cls-7" d="M193.28,435.47c0,1.62-1.32,2.94-2.94,2.94s-2.94-1.32-2.94-2.94,1.32-2.94,2.94-2.94,2.94,1.32,2.94,2.94Z"/>
          </g>
        </g>
        <g>
          <polygon class="cls-37" points="144.27 462.76 127.69 462.76 127.69 369.2 136.08 353.56 144.27 369.2 144.27 462.76"/>
          <g>
            <path class="cls-7" d="M138.62,388.6c0,1.62-1.32,2.94-2.94,2.94s-2.94-1.32-2.94-2.94,1.32-2.94,2.94-2.94,2.94,1.32,2.94,2.94Z"/>
            <path class="cls-7" d="M138.62,435.47c0,1.62-1.32,2.94-2.94,2.94s-2.94-1.32-2.94-2.94,1.32-2.94,2.94-2.94,2.94,1.32,2.94,2.94Z"/>
          </g>
        </g>
        <g>
          <polygon class="cls-37" points="89.61 462.76 73.03 462.76 73.03 369.2 81.42 353.56 89.61 369.2 89.61 462.76"/>
          <g>
            <path class="cls-7" d="M83.97,388.6c0,1.62-1.32,2.94-2.95,2.94s-2.94-1.32-2.94-2.94,1.32-2.94,2.94-2.94,2.95,1.32,2.95,2.94Z"/>
            <path class="cls-7" d="M83.97,435.47c0,1.62-1.32,2.94-2.95,2.94s-2.94-1.32-2.94-2.94,1.32-2.94,2.94-2.94,2.95,1.32,2.95,2.94Z"/>
          </g>
        </g>
        <g>
          <polygon class="cls-37" points="34.96 462.76 18.38 462.76 18.38 369.2 26.77 353.56 34.96 369.2 34.96 462.76"/>
          <g>
            <path class="cls-7" d="M29.31,388.6c0,1.62-1.32,2.94-2.94,2.94s-2.94-1.32-2.94-2.94,1.32-2.94,2.94-2.94,2.94,1.32,2.94,2.94Z"/>
            <path class="cls-7" d="M29.31,435.47c0,1.62-1.32,2.94-2.94,2.94s-2.94-1.32-2.94-2.94,1.32-2.94,2.94-2.94,2.94,1.32,2.94,2.94Z"/>
          </g>
        </g>
      </g>
      <g>
        <polygon class="cls-23" points="654.6 257.87 674.9 484.24 679.94 484.24 659.63 257.87 654.6 257.87"/>
        <polygon class="cls-23" points="627.4 257.87 606.84 484.24 611.87 484.24 632.43 257.87 627.4 257.87"/>
        <rect class="cls-23" x="609.45" y="453.79" width="67.39" height="4.19"/>
        <polygon class="cls-23" points="674.03 456.13 616.98 407.23 619.21 403.89 676.25 452.79 674.03 456.13"/>
        <rect class="cls-23" x="618.57" y="398.21" width="51.47" height="4.19"/>
        <polygon class="cls-23" points="668.65 398.07 619.5 355.43 621.61 352.29 670.76 394.93 668.65 398.07"/>
        <rect class="cls-23" x="622.01" y="346.83" width="44.27" height="4.19"/>
        <polygon class="cls-23" points="664.51 345.14 623.58 309.36 625.7 306.22 666.63 342.01 664.51 345.14"/>
        <rect class="cls-23" x="623.87" y="299.62" width="38.03" height="4.19"/>
        <rect class="cls-23" x="627.77" y="257.88" width="31.28" height="4.19"/>
        <polygon class="cls-23" points="660.44 298.11 627.71 269 629.84 265.87 662.57 294.98 660.44 298.11"/>
        <g>
          <path class="cls-23" d="M643.77,151.53c-30.85,0-55.85,25.01-55.85,55.85s25,55.85,55.85,55.85,55.85-25.01,55.85-55.85-25-55.85-55.85-55.85ZM643.77,257.71c-27.79,0-50.33-22.53-50.33-50.32s22.53-50.33,50.33-50.33,50.33,22.53,50.33,50.33-22.53,50.32-50.33,50.32Z"/>
          <g>
            <rect class="cls-10" x="602.72" y="170.82" width="3.93" height="58.23" transform="translate(287.94 752.46) rotate(-78.47)"/>
            <polygon class="cls-10" points="556.66 207.31 563.37 174.38 581.95 195.03 556.66 207.31"/>
          </g>
          <path class="cls-23" d="M658.95,207.39c0,8.38-6.8,15.18-15.18,15.18s-15.18-6.8-15.18-15.18,6.8-15.18,15.18-15.18,15.18,6.8,15.18,15.18Z"/>
          <g>
            <g>
              <polygon class="cls-35" points="650.07 273.86 635.5 273.86 642.92 212.79 650.07 273.86"/>
              <polygon class="cls-35" points="635.5 141.09 650.07 141.09 642.65 203.86 635.5 141.09"/>
            </g>
            <g>
              <polygon class="cls-35" points="709.17 200.2 709.17 214.76 648.09 207.35 709.17 200.2"/>
              <polygon class="cls-35" points="576.4 214.76 576.4 200.2 639.17 207.61 576.4 214.76"/>
            </g>
            <g>
              <polygon class="cls-35" points="706.52 227.43 700.68 240.77 647.7 209.49 706.52 227.43"/>
              <polygon class="cls-35" points="579.05 187.53 584.89 174.18 639.42 206.15 579.05 187.53"/>
            </g>
            <g>
              <polygon class="cls-35" points="701.9 176.41 707.23 189.97 647.68 205.42 701.9 176.41"/>
              <polygon class="cls-35" points="583.67 238.55 578.34 224.99 639.47 208.93 583.67 238.55"/>
            </g>
            <g>
              <polygon class="cls-35" points="683.6 154.62 694.09 164.73 646.37 203.57 683.6 154.62"/>
              <polygon class="cls-35" points="601.97 260.34 591.48 250.23 640.37 210.18 601.97 260.34"/>
            </g>
            <g>
              <polygon class="cls-35" points="658.9 142.67 672.57 147.7 644.5 202.45 658.9 142.67"/>
              <polygon class="cls-35" points="626.68 272.29 613.01 267.26 641.66 210.92 626.68 272.29"/>
            </g>
            <g>
              <polygon class="cls-35" points="692.43 252.15 681.56 261.85 646.42 211.35 692.43 252.15"/>
              <polygon class="cls-35" points="593.14 162.81 604.01 153.11 640.28 204.87 593.14 162.81"/>
            </g>
            <g>
              <polygon class="cls-35" points="671.78 267.64 658.05 272.49 644.68 212.44 671.78 267.64"/>
              <polygon class="cls-35" points="613.79 147.32 627.52 142.47 641.45 204.11 613.79 147.32"/>
            </g>
          </g>
        </g>
      </g>
      <g>
        <polygon class="cls-30" points="866.01 281.2 796.27 234.39 725.51 281.2 695.38 333.09 694.5 483.53 895.36 483.53 895.75 333.09 866.01 281.2"/>
        <polygon class="cls-22" points="705.36 334.79 728.67 291.83 793.86 245.66 858.11 291.83 881.12 334.79 894.39 334.79 864.88 282.54 793.97 234.23 722.02 282.54 692.13 334.79 705.36 334.79"/>
        <g class="cls-53">
          <g>
            <rect class="cls-22" x="703.27" y="235.37" width="2.92" height="236.95"/>
            <rect class="cls-22" x="717.41" y="235.37" width="2.93" height="236.95"/>
            <rect class="cls-22" x="731.55" y="235.37" width="2.93" height="236.95"/>
            <rect class="cls-22" x="745.69" y="235.37" width="2.92" height="236.95"/>
            <rect class="cls-22" x="759.83" y="235.37" width="2.93" height="236.95"/>
            <rect class="cls-22" x="773.97" y="235.37" width="2.92" height="236.95"/>
            <rect class="cls-22" x="788.1" y="235.37" width="2.93" height="236.95"/>
            <rect class="cls-22" x="802.24" y="235.37" width="2.93" height="236.95"/>
            <rect class="cls-22" x="816.38" y="235.37" width="2.93" height="236.95"/>
            <rect class="cls-22" x="830.52" y="235.37" width="2.92" height="236.95"/>
            <rect class="cls-22" x="844.66" y="235.37" width="2.92" height="236.95"/>
            <rect class="cls-22" x="858.8" y="235.37" width="2.93" height="236.95"/>
            <rect class="cls-22" x="872.94" y="235.37" width="2.92" height="236.95"/>
            <rect class="cls-22" x="887.08" y="235.37" width="2.92" height="236.95"/>
          </g>
        </g>
        <polygon class="cls-35" points="698.42 335.25 723.56 287.86 793.9 236.95 863.23 287.86 888.06 335.25 902.37 335.25 870.53 277.63 794.02 224.34 716.39 277.63 684.14 335.25 698.42 335.25"/>
        <polygon class="cls-37" points="866.12 285.45 793.68 231.52 720.21 285.45 694.14 335.25 699.33 335.25 724.17 289.26 793.65 239.84 862.14 289.26 886.66 335.25 891.85 335.25 866.12 285.45"/>
        <polygon class="cls-35" points="694.71 452.33 694.5 483.53 896.36 483.53 896.51 452.33 694.71 452.33"/>
        <g>
          <rect class="cls-40" x="745.96" y="398.25" width="104.29" height="83"/>
          <path class="cls-39" d="M743.57,396.68v86.78h109.05v-86.78h-109.05ZM847.6,478.69h-99v-77.23h99v77.23Z"/>
          <rect class="cls-39" x="795.66" y="399.91" width="4.63" height="82.64"/>
          <rect class="cls-39" x="821.86" y="394" width="4.63" height="91.96" transform="translate(-107.87 504.41) rotate(-32.05)"/>
          <rect class="cls-39" x="778.2" y="437.67" width="91.96" height="4.63" transform="translate(25.69 925.03) rotate(-59.37)"/>
          <rect class="cls-39" x="770.02" y="394.17" width="4.63" height="91.96" transform="translate(-115.86 476.72) rotate(-32.04)"/>
          <rect class="cls-39" x="726.35" y="437.83" width="91.96" height="4.63" transform="translate(.39 880.98) rotate(-59.41)"/>
        </g>
        <g>
          <rect class="cls-40" x="778.01" y="278.24" width="29.86" height="29.86"/>
          <path class="cls-39" d="M775.76,276.04v34.26h34.26v-34.26h-34.26ZM806.04,306.31h-26.28v-26.28h26.28v26.28Z"/>
          <g>
            <rect class="cls-39" x="776.59" y="291.11" width="32.62" height="4.13"/>
            <rect class="cls-39" x="790.83" y="276.86" width="4.13" height="32.61"/>
          </g>
        </g>
        <g>
          <rect class="cls-40" x="826.3" y="319.62" width="29.86" height="29.86"/>
          <path class="cls-39" d="M824.05,317.42v34.27h34.27v-34.27h-34.27ZM854.32,347.7h-26.28v-26.28h26.28v26.28Z"/>
          <g>
            <rect class="cls-39" x="824.87" y="332.49" width="32.61" height="4.13"/>
            <rect class="cls-39" x="839.11" y="318.25" width="4.13" height="32.61"/>
          </g>
        </g>
        <g>
          <rect class="cls-40" x="733.07" y="319.62" width="29.86" height="29.86"/>
          <path class="cls-39" d="M730.82,317.42v34.27h34.27v-34.27h-34.27ZM761.09,347.7h-26.28v-26.28h26.28v26.28Z"/>
          <g>
            <rect class="cls-39" x="731.64" y="332.49" width="32.61" height="4.13"/>
            <rect class="cls-39" x="745.88" y="318.25" width="4.13" height="32.61"/>
          </g>
        </g>
      </g>
      <g>
        <path class="cls-9" d="M324.47,515.18c0,8.79-35.07,15.9-78.33,15.9s-78.33-7.12-78.33-15.9,35.07-15.9,78.33-15.9,78.33,7.12,78.33,15.9Z"/>
        <g>
          <path class="cls-3" d="M195.63,415.1s-6.09-13.9-19.5-11.21c-13.41,2.68-16.27,22.44-11.45,40.47.97,3.66,2.8,14.5-3.78,19.87,0,0,5,2.44,9.14-4.63,0,0,2.56,5-5.73,10.73,0,0,21.7-.85,19.87-36.2l11.45-19.01Z"/>
          <path class="cls-12" d="M179.22,411.75c-3.07,2.13-4.95,6.15-5.46,9.77-.3,2.15-.15,4.38-.6,6.5-.41,1.94-1.1,3.83-2.24,5.47-.92,1.32-2.08,2.37-3.4,3.11-3.07-13.26-.67-27.21,9.13-29.17,5.8-1.16,9.8,1.75,12.18,4.49-3.1-1.25-6.86-2.08-9.61-.18Z"/>
          <path class="cls-49" d="M161.86,464.51c.95-.37,1.86-.81,2.73-1.31,6.47-3.72,9.86-10.64,10.96-17.84,1.19-7.83-1.08-16.37,1.65-23.93,1.29-3.58,4.05-6.25,7.73-7.38,3.69-1.14,7.05,0,10.32,1.69l-11.07,18.38c1.83,35.35-19.87,36.2-19.87,36.2,8.29-5.73,5.73-10.73,5.73-10.73-3.03,5.17-6.51,5.26-8.17,4.93Z"/>
          <polygon class="cls-42" points="296.65 520.4 282.04 520.36 282.24 449.31 298.74 448.86 295 510.62 294.78 514.09 296.65 520.4"/>
          <polygon class="cls-42" points="232.11 520.22 217.16 520.36 216.32 446.58 231.81 447.35 230.65 514.54 232.11 520.22"/>
          <path class="cls-10" d="M277.29,412.66s-13.41,7.5-37.54,1.46c-24.13-6.03-44.9-6.51-53.63,8.77-7.58,13.27-4.81,28.22,3.97,44.12,0,0,27.5,16.59,92.81,4.14,14.21-2.71,25.48-19.01,21.13-53.27l-26.73-5.23Z"/>
          <path class="cls-12" d="M266.12,420.09c0,.11.01.22.02.33-.13.22-.26.43-.39.64-.58.64-1.2,1.24-1.85,1.8-1.22.85-2.51,1.58-3.85,2.22-2.51.94-5.1,1.56-7.74,1.98-3.02.33-6.05.47-9.08.51-3.07.04-6.16.12-9.23-.18-8.87-1.46-17.39-4.84-26.55-3.69-1.94.24-3.88.57-5.77,1.05,7.15-10.15,22.43-9.62,40.05-5.22,11.45,2.86,19.74,1.74,24.38.48,0,.03,0,.05,0,.08Z"/>
          <path class="cls-49" d="M202.42,456.09c20.69,10.59,44.98,15.19,67.89,9.82,12.8-3,24.77-9.59,33.26-19.26-3.15,14.97-11.26,22.73-20.67,24.52-65.31,12.45-92.81-4.14-92.81-4.14-5.24-9.5-8.33-18.65-8.37-27.31,5.84,6.65,12.71,12.3,20.69,16.38Z"/>
          <path class="cls-10" d="M218.18,439.29l-36.46.42,18.56,80.61,14.79.11-2.65-5.5c-1.62-11.15-4.76-43.06-3.03-45.66,6.04-9.04,7.66-15.8,8.78-29.98Z"/>
          <path class="cls-10" d="M275.54,520.31l-14.27.05s2.25-25.14.91-73.18c-.06-2.08,6-8.63,15.72-5.42,9.14,3.01,8.78,9.66,8.78,9.66l-12.61,63.39,1.46,5.5Z"/>
          <polygon class="cls-3" points="295 514.82 296.65 520.4 282.04 520.36 282.05 514.89 295 514.82"/>
          <polygon class="cls-3" points="230.68 514.64 232.11 520.22 217.16 520.36 217.08 514.82 230.68 514.64"/>
          <path class="cls-3" d="M212.41,514.76c0,.06.01.12.02.17l2.65,5.5-14.79-.11-1.42-5.5,13.54-.06Z"/>
          <path class="cls-3" d="M274.08,514.82l1.45,5.49-14.27.05s.17-1.67.45-5.51l12.37-.02Z"/>
          <path class="cls-10" d="M289.43,382.91s-12.65,25.04-16.6,36.9l28.99,15.81s7.9-15.81,6.59-46.38l-18.98-6.33Z"/>
          <path class="cls-3" d="M286.98,384.03s-3.8,6.37-9.29,7.64c0,0,.83,2.92,4.13,1.46,0,0-2.29,4.4-7.48,4.72,0,0,.06,4.3,4.04,3.29,0,0-1.97,4.31-7.42,3.68,0,0,2.73,3.45,5.76,2.69,0,0-.57,1.77-6.59,2.92,0,0,1.08,4.48,5.25,4.96,0,0-.18,1.57-5.32,4.66,0,0,4.04,4.88,6.78,1.89,0,0,2.56,6.26,10.15,5.81,0,0-6.08-7.88-2.79-11.64,0,0-4.77-3.31-2.05-10.91l4.84-21.16Z"/>
          <g>
            <path class="cls-3" d="M287.89,376.91s-14.22-.79-17.24-12.66c0,0,13.22-4.86,19.84,6.37l-2.61,6.29Z"/>
            <path class="cls-10" d="M270.65,364.24s13.22-4.86,19.84,6.37c0,0-3.66.76-19.84-6.37Z"/>
          </g>
          <g>
            <path class="cls-3" d="M309.63,374.71s13.7-3.86,14.07-16.11c0,0-13.96-1.87-17.99,10.53l3.92,5.58Z"/>
            <path class="cls-10" d="M323.71,358.6s-13.96-1.87-17.99,10.53c0,0,3.74-.05,17.99-10.53Z"/>
          </g>
          <path class="cls-10" d="M279.81,400.4c-5.08,22.74,13.21,31.43,25.88,31.03,17.41-.55,27.36-13.25,18.8-34.76-9.8-24.63-11.52-33.61-26.8-31.93-13.5,1.48-12.15,9.97-17.88,35.66Z"/>
          <path class="cls-26" d="M313.41,408.61s-8.46-15.19-10.57-38.51l-8.4,1.09s5.2,26.22,2.17,41.11c0,0,3.11,3.28,8.99,1.68,6.52-1.78,7.81-5.37,7.81-5.37Z"/>
          <path class="cls-3" d="M286.53,370.91c2.37-2.33,2.31-4,1.78-5.29-2.49-6.11,3.29-8.82,3.29-8.82-.42,4.45,2.69,5.88,2.69,5.88,2.06-4.21-1.82-11.57-1.82-11.57,4.1,1.57,5.68,7.93,5.68,7.93-.04-7.36,4.44-9.16,4.44-9.16-2.26,8.89-.25,12.84-.25,12.84-.06-4.84,3.53-6.67,3.53-6.67-1.03,4.96,1.46,7.55,1.46,7.55,0,0,2.93,3.66-.91,6.82-3.83,3.16-3.19,3.96-3.83,5.33-.64,1.38-3.39,2.86-5.61,1.36-2.21-1.5-3.01-2.96-6.05-2.63-3.04.33-5.11-2.87-4.41-3.56Z"/>
          <path class="cls-6" d="M286.53,370.91c2.37-2.33,2.31-4,1.78-5.29-.85-2.08-.73-3.77-.22-5.09,0,1.14.19,2.33.6,3.39.86,2.22,2.51,4.19,4.65,5.27,1.14.58,2.33.8,3.52,1.23,1.13.41,2.21,1.03,3.38,1.29,1.08.25,2.19.26,3.23-.2.93-.42,1.97-1.14,2.97-1.13,0,0-.01.01-.02.02-3.83,3.16-3.19,3.96-3.83,5.33-.64,1.38-3.39,2.86-5.61,1.36-2.21-1.5-3.01-2.96-6.05-2.63-3.04.33-5.11-2.87-4.41-3.56Z"/>
          <g>
            <path class="cls-26" d="M278.42,414.07c2.89,10.24,13.02,20.54,28.43,19.11,14.88-1.38,23.05-13.61,22.26-24.32-1.02-13.84-10.9.33-24.9,1.63-14,1.3-29.38-9.17-25.79,3.58Z"/>
            <path class="cls-47" d="M302.15,428.35c14.87-1.38,23.04-13.61,22.26-24.32-.03-.37-.06-.71-.1-1.04,2.72-.62,4.41.57,4.8,5.87.79,10.72-7.38,22.94-22.26,24.32-10.87,1.01-19.11-3.82-24.04-10.35,4.87,3.88,11.41,6.26,19.35,5.52Z"/>
            <path class="cls-3" d="M292.3,418.9s2.27-.71-.2-3.43c-2.46-2.72-4.52,2.77-4.59,4.99,0,0,2.34-2.84,4.79-1.56Z"/>
            <path class="cls-3" d="M315.22,416.89s-2.36-.28-.43-3.41c1.92-3.13,4.95,1.89,5.43,4.06,0,0-2.82-2.37-4.99-.66Z"/>
            <path class="cls-12" d="M297.7,416.86c-1.96.72-4.14.83-6.2.94-2.49.13-4.84.2-6.7,2.24-.94-1.51-1.65-3.11-2.1-4.7-2.48-8.81,8.15-1.58,17.83-2.48.06,0,.12-.01.19-.02-.25,1.97-1.26,3.37-3.02,4.01Z"/>
          </g>
          <g>
            <path class="cls-29" d="M295.1,400.54c.42,1.7-.62,3.41-2.31,3.82-1.7.42-3.41-.62-3.82-2.31-.42-1.7.62-3.41,2.31-3.82,1.69-.42,3.41.62,3.82,2.31Z"/>
            <path class="cls-2" d="M294.18,402.04c.13.51-.18,1.03-.7,1.15-.51.13-1.02-.19-1.15-.7-.12-.51.19-1.03.7-1.15.51-.13,1.03.19,1.15.7Z"/>
          </g>
          <g>
            <path class="cls-29" d="M317.86,398.04c.42,1.7-.62,3.41-2.32,3.82-1.69.42-3.41-.62-3.82-2.31-.42-1.69.62-3.41,2.32-3.82,1.69-.42,3.41.62,3.82,2.32Z"/>
            <path class="cls-2" d="M313.34,400.39c.15.62.78,1,1.39.84.62-.15.99-.78.84-1.39-.15-.62-.78-.99-1.39-.84-.62.15-1,.78-.84,1.39Z"/>
          </g>
        </g>
      </g>
      <g>
        <path class="cls-9" d="M580.44,511.68c0,10.72-42.79,19.41-95.58,19.41s-95.58-8.69-95.58-19.41,42.79-19.41,95.58-19.41,95.58,8.69,95.58,19.41Z"/>
        <g>
          <path class="cls-2" d="M552.4,406.6s12.55-4.18,12.19-24.22c0,0,2.27-1.22,2.09,4.36-.17,5.58-1.48,19.34-11.23,26.83l-3.05-6.97Z"/>
          <path class="cls-41" d="M565.4,385.13c.03-1.1-.02-1.93-.14-2.57.65.11,1.53.9,1.42,4.46-.17,5.57-1.48,19.34-11.23,26.83l-.78-1.79c9.29-7.82,10.57-21.35,10.74-26.92Z"/>
          <path class="cls-17" d="M565.48,387.49s-8.94-4,1.12-20.15c0,0,9.8,15.43-1.12,20.15Z"/>
          <g class="cls-50">
            <path class="cls-45" d="M566.55,381.42c1.78-3.68,1.76-8.11,1.11-12.2,2.2,4.26,6.39,14.56-2.18,18.27,0,0-1.14-.51-2.14-1.9,1.34-1.15,2.44-2.58,3.21-4.17Z"/>
          </g>
          <polygon class="cls-33" points="447.75 516.58 459.78 516.58 462.06 449.22 445.95 448.79 447.75 516.58"/>
          <polygon class="cls-33" points="511.86 516.58 521.14 516.63 526.29 449.7 508.25 450.47 511.86 516.58"/>
          <polygon class="cls-17" points="460.08 507.65 459.78 516.58 447.75 516.58 447.51 507.65 460.08 507.65"/>
          <polygon class="cls-17" points="521.92 507.65 521.21 516.63 511.93 516.58 511.43 507.65 521.92 507.65"/>
          <g>
            <path class="cls-35" d="M535.78,461.91c0,10.1-7.15,13.67-15.14,13.67s-15.14-3.4-15.14-13.67h30.28Z"/>
            <path class="cls-35" d="M509.64,470.68c.07,2.68-.09,4.26-.48,6.26-.12.58.36,1.11.96,1.17.6.06,1.04-.21,1.1-.88.15-1.5-.1-2.17.95-5.86.15-.52-2.53-1.22-2.52-.69Z"/>
            <path class="cls-35" d="M515.13,471.59c.07,2.68-.1,4.27-.49,6.26-.11.57.36,1.11.96,1.17.6.06,1.03-.2,1.1-.87.15-1.5-.09-2.17.95-5.87.15-.52-2.53-1.22-2.52-.69Z"/>
            <path class="cls-35" d="M520.15,472.18c.57,2.62.71,4.2.7,6.24,0,.59.56,1.02,1.16.97.6-.06.98-.4.91-1.07-.14-1.5-.5-2.11-.18-5.94.04-.54-2.72-.72-2.6-.2Z"/>
            <path class="cls-35" d="M526.09,471.07c.58,2.62.72,4.2.71,6.24,0,.59.56,1.02,1.16.97.6-.06.98-.4.92-1.07-.14-1.5-.51-2.11-.18-5.94.05-.54-2.72-.72-2.6-.2Z"/>
            <path class="cls-35" d="M531.38,468.85c.58,2.62.71,4.2.7,6.23,0,.59.57,1.02,1.16.97.6-.06.98-.4.91-1.07-.14-1.5-.51-2.12-.18-5.94.05-.54-2.71-.72-2.6-.2Z"/>
          </g>
          <path class="cls-2" d="M422.86,394.32s56.71,6.69,114.99-.78c20.39-2.61,32.68,49.49,4.46,66.21-28.22,16.72-75.97,10.8-98.62,4.7-16.29-4.39-30.21-15.42-37.01-36.84l16.19-33.28Z"/>
          <path class="cls-41" d="M422.77,394.39s1.86.22,5.24.53l-10.97,22.56c6.79,21.43,20.72,32.46,37,36.84,22.65,6.1,70.4,12.03,98.62-4.7-2.56,4.04-6,7.56-10.45,10.19-28.22,16.73-75.97,10.8-98.62,4.7-16.29-4.39-30.21-15.41-37.01-36.84l16.18-33.28Z"/>
          <path class="cls-17" d="M461.09,466.53c-1.86-2.27-.69-5.81,1.21-7.71,2.06-2.07,5.01-2.39,7.78-1.97,2.78.43,5.7,1.24,8.26,2.4,1.29.59,2.51,1.36,3.33,2.54.76,1.07,1.24,2.3,2.02,3.34,1.41,1.89,3.82,1.41,5.87,1.21,4.59-.45,11.04-1.02,13.11,3.99-13.62.89-27.52-.13-39.4-1.9-.81-.56-1.58-1.16-2.18-1.9Z"/>
          <path class="cls-6" d="M462.3,458.82c.79-.79,1.71-1.33,2.71-1.67.48,5.84,5.67,9.98,11.22,11.46,3.2.85,6.67,1.07,9.9.24,1.51-.39,3-.96,4.29-1.84.38-.26.73-.55,1.06-.85,4.31-.33,9.41-.18,11.2,4.16-13.62.89-27.52-.13-39.4-1.9-.81-.56-1.58-1.16-2.18-1.9-1.86-2.27-.69-5.81,1.21-7.71Z"/>
          <path class="cls-17" d="M555.02,423.74c-2.84.06-5.89-.05-7.7-2.53-1.16-1.58-2.02-3.45-3.62-4.66-.98-.75-2.14-1.17-3.17-1.84-1.05-.69-2.04-1.47-2.89-2.41-4.42-4.9-4.79-11.7-3.94-18.25,1.38-.16,2.77-.33,4.15-.51,10.91-1.4,19.5,12.87,20.81,29-1.17.58-2.33,1.18-3.64,1.21Z"/>
          <path class="cls-6" d="M533.7,394.05c.76-.09,1.54-.19,2.3-.28.46,2.63,1.07,5.18,2.05,7.67.86,2.19,1.75,4.52,3.22,6.37,1.59,2,3.6,3.62,5.25,5.56,1.37,1.61,2.69,3.3,4.26,4.72,2.33,2.12,4.9,3.03,7.71,2.86.06.53.11,1.06.15,1.59-1.17.58-2.33,1.18-3.64,1.21-2.84.06-5.89-.05-7.7-2.53-1.16-1.58-2.02-3.45-3.62-4.66-.98-.75-2.14-1.17-3.17-1.84-1.05-.69-2.04-1.47-2.89-2.41-4.42-4.9-4.79-11.7-3.94-18.25Z"/>
          <path class="cls-17" d="M465.93,423.85c1.04-.98,2.23-1.98,3.67-2.27,2.55-.51,4.78.89,7.21,1.34,4.1.75,8.43.35,12.58.62,1.81.12,4.02.12,5.68.95,2.51,1.25-1.03,3.43-1.89,4.45-.93,1.11-.97,2.45-.84,3.83.13,1.49-.02,2.93-.58,4.33-.8,1.99-2.41,2.58-4.24,2.7-3.05,0-6.09-.04-9.13.09-2.49.11-5.02.26-7.51,0-2.54-.28-5.21-.98-7.15-2.76-2.53-2.33-3.5-5.43-1.66-8.52,1.03-1.73,2.39-3.36,3.85-4.75Z"/>
          <path class="cls-6" d="M462.08,428.6c.66-1.1,1.44-2.16,2.31-3.14.09,1.6.48,3.21.93,4.63,1.02,3.2,2.77,5.73,6.01,6.99,3.87,1.51,8.15,1.27,12.21.86,1.93-.2,3.89-.23,5.81-.53.96-.15,1.76-.35,2.58-.89.03-.02.05-.03.07-.05-.07.21-.14.42-.23.63-.8,1.99-2.41,2.58-4.24,2.7-3.05,0-6.09-.04-9.13.09-2.49.11-5.02.26-7.51,0-2.54-.28-5.21-.98-7.15-2.76-2.53-2.33-3.5-5.43-1.66-8.52Z"/>
          <path class="cls-17" d="M509.83,439.67c2.77-1.44,4.48-3.2,5.79-6.01.63-1.35,1.24-2.82,2.28-3.92,1.19-1.26,2.74-1.93,4.41-2.28,1.87-.4,9.21-1.26,12.73,1.16,1.02.7,3.92,2.81,4.31,6.03.12,1.05,0,2.12-.12,3.17-.25,2.34-.7,4.45-2.74,5.9s-4.46,2.18-6.85,2.83c-2.44.66-5.2,1.04-7.07,2.9-1.06,1.06-1.84,2.4-2.97,3.4-1.32,1.16-2.97,1.45-4.69,1.48-2.19.04-4.36-.25-6.47-.82-1.81-.49-3.79-1.01-5.45-1.9-2.48-1.33-3.81-4.46-2.01-6.93,1.97-2.7,6.01-3.53,8.84-5.01Z"/>
          <path class="cls-6" d="M511.39,451.54c1.61-1.85,3.37-3.78,5.45-5.11,2.34-1.5,5.13-2.26,7.7-3.28,3.72-1.47,7.54-2.99,8.54-7.27.62-2.65.44-5.38.28-8.09.62.22,1.19.49,1.69.83,1.02.7,3.92,2.81,4.31,6.03.12,1.05,0,2.12-.12,3.17-.25,2.34-.7,4.45-2.74,5.9s-4.46,2.18-6.85,2.83c-2.44.66-5.2,1.04-7.07,2.9-1.06,1.06-1.84,2.4-2.97,3.4-1.32,1.16-2.97,1.45-4.69,1.48-2.07.04-4.12-.22-6.12-.73.93-.48,1.79-1.15,2.59-2.06Z"/>
          <path class="cls-17" d="M518.29,401.32c-1.1,1.76-3.08,2.42-4.71,3.57-1.84,1.3-2.75,3.1-3.77,5.05-.82,1.58-1.83,3.09-3.47,3.91-1.52.76-3.18,1.18-4.86,1.43-1.83.27-3.77.52-5.62.5-1.97-.03-3.89-.38-5.82-.73-1.89-.34-3.8-.66-5.73-.6-1.95.06-3.88.32-5.82.46-3.2.24-6.64.28-8.87-2.38-1.81-2.17-3.36-4.5-5.81-6.02-2.78-1.72-6.05-2.66-8.44-4.98-1.45-1.41-2.43-3.15-3.13-5.05,17.65.8,41.55,1.06,66.92-1,.03,2.03.27,4-.88,5.84Z"/>
          <path class="cls-6" d="M462.73,397.42c4.53,3.75,10.03,6.41,15.58,8.26,5.96,1.98,12.16,3.22,18.45,3.22,3.28,0,6.59-.22,9.81-.87,1.64-.33,3.28-.74,4.94-1.03-.64.9-1.15,1.9-1.7,2.95-.82,1.58-1.83,3.09-3.47,3.91-1.52.76-3.18,1.18-4.86,1.43-1.83.27-3.77.52-5.62.5-1.97-.03-3.89-.38-5.82-.73-1.89-.34-3.8-.66-5.73-.6-1.95.06-3.88.32-5.82.46-3.2.24-6.64.28-8.87-2.38-1.81-2.17-3.36-4.5-5.81-6.02-2.78-1.72-6.05-2.66-8.44-4.98-1.45-1.41-2.43-3.15-3.13-5.05,3.08.14,6.37.26,9.81.36.23.19.45.39.68.58Z"/>
          <path class="cls-2" d="M522.69,451.69l30.58-3.53-10.52,68.77-9.52.04s-1.22-41.06-2.78-45.21c-.94-2.48-6.45-5.05-7.75-20.08Z"/>
          <path class="cls-17" d="M544.06,507.83l-1.31,9.1-9.52.04s-.12-3.79-.32-9.15h11.15Z"/>
          <path class="cls-2" d="M429.83,516.58h10.98s2.53-23.38,1.48-75.83c-.04-2.2-9.39-7.63-15.77-5.79-6.45,1.85-11.94,8.75-11.94,8.75l15.24,72.87Z"/>
          <path class="cls-17" d="M441.5,507.82c-.37,5.97-.69,8.76-.69,8.76h-10.98l-1.68-8.76h13.35Z"/>
          <polygon class="cls-6" points="459.92 512.53 459.78 516.58 447.75 516.58 447.64 512.53 459.92 512.53"/>
          <polygon class="cls-6" points="521.53 512.53 521.21 516.63 511.93 516.58 511.7 512.53 521.53 512.53"/>
          <path class="cls-6" d="M543.39,512.53l-.63,4.4-9.52.04s-.05-1.71-.15-4.44h10.3Z"/>
          <path class="cls-6" d="M441.17,512.53c-.21,2.75-.36,4.05-.36,4.05h-10.98l-.78-4.05h12.12Z"/>
          <path class="cls-17" d="M440.18,406.43c1.88-.87,2.22,1.03,2.71,2.43.39,1.1.67,2.53,2.56,3.32,4.51,1.88,6.73,9.45,4.98,14.74-.93,2.81-2.62,5.32-3.51,8.15-.44,1.39-.68,2.8-.6,4.26.07,1.32.38,2.8.03,4.1-.61,2.33-4.59,4.45-6.22,1.87-1.17-1.85-1.33-4.25-1.45-6.38-.2-3.81-.23-7.57-.05-11.39.2-4.14.49-8.32.1-12.46-.14-1.54-.56-2.98-.8-4.5-.29-1.9.46-3.32,2.25-4.15Z"/>
          <path class="cls-6" d="M443.25,442.54c2.87-3.97.75-9.4,2.11-13.81.76-2.46,1.62-4.67,1.86-7.26.19-2.12.37-4.32.1-6.45-.07-.56-.15-1.2-.26-1.85,3.4,2.8,4.89,9.15,3.36,13.76-.93,2.81-2.62,5.32-3.51,8.15-.44,1.39-.68,2.8-.6,4.26.07,1.32.38,2.8.03,4.1-.61,2.33-4.59,4.45-6.22,1.87-.12-.19-.23-.38-.33-.58,1.35-.29,2.57-.95,3.46-2.18Z"/>
          <g>
            <g>
              <path class="cls-11" d="M388.53,387.11s-14.03-2.34-15.74-14.46c0,0,13.65-3.39,19.01,8.49l-3.27,5.96Z"/>
              <path class="cls-2" d="M372.79,372.66s13.65-3.39,19.01,8.49c0,0-3.72.36-19.01-8.49Z"/>
            </g>
            <g>
              <path class="cls-11" d="M424.42,387.73s14.04-2.34,15.74-14.46c0,0-13.66-3.38-19.02,8.49l3.28,5.96Z"/>
              <path class="cls-2" d="M440.16,373.27s-13.66-3.38-19.02,8.49c0,0,3.72.36,19.02-8.49Z"/>
            </g>
            <g>
              <path class="cls-18" d="M414.49,374.33s7.07-6.77,6.87-17.8c-.14-7.17,11.39,10.18,1.73,25.52l-8.6-7.72Z"/>
              <path class="cls-20" d="M422.54,372.29c2.24-5.12,2.3-15.17-.83-17.28,1.85-1.73,9.94,13.45,1.38,27.05l-4.97-4.47c1.81-1.44,3.47-3.13,4.42-5.3Z"/>
            </g>
            <g>
              <path class="cls-18" d="M399.66,374.33s-7.07-6.77-6.87-17.8c.13-7.17-11.39,10.18-1.74,25.52l8.61-7.72Z"/>
              <path class="cls-20" d="M391.6,372.29c-2.24-5.12-2.3-15.17.83-17.28-1.85-1.73-9.94,13.45-1.38,27.05l4.98-4.47c-1.81-1.44-3.48-3.13-4.43-5.3Z"/>
            </g>
            <path class="cls-2" d="M380.28,407.29c-5.15,23.9,9.22,34.19,27.19,34.19s30.89-12.82,25.96-33.99c-5.77-24.72-10.51-34.4-26.37-34.4-14,0-21.52,9.79-26.78,34.2Z"/>
            <path class="cls-17" d="M380.28,407.29c1.69-7.86,3.62-14.2,5.92-19.19.1.21.2.43.33.64.42.64.81,1.28,1.26,1.9.87,1.2,2.05,2.37,3.42,2.98,1.61.72,3.44.99,5,1.83,1.71.92,3.04,2.38,3.67,4.23,1,2.94.82,6.11,1.71,9.07.75,2.53,2.44,4.33,4.23,6.2,2,2.08,4.42,4.76,2.81,7.81-1.29,2.46-3.62,3.98-5.31,6.11-1.65,2.09-1.9,3.99-1.39,6.56.44,2.26-2.04,3.82-4.49,4.84-12.82-3.35-21.29-13.77-17.15-32.98Z"/>
            <path class="cls-18" d="M378.08,425c2.18,10.69,12.53,22.12,30.03,22.12s27.38-11.67,27.62-22.64c.3-14.17-12.31-.69-28.22-.69s-32.15-12.1-29.43,1.21Z"/>
            <path class="cls-47" d="M403.32,441.77c16.91,0,27.39-11.66,27.62-22.64,0-.37,0-.73,0-1.07,3.13-.37,4.91,1,4.79,6.43-.23,10.97-10.72,22.64-27.62,22.64-12.35,0-21.14-5.69-26-12.8,5.08,4.4,12.19,7.44,21.21,7.44Z"/>
            <path class="cls-17" d="M395.29,378c2.6-2.05,2.73-3.72,2.35-5.06-1.8-6.34,4.23-8.4,4.23-8.4-.9,4.37,2.04,6.13,2.04,6.13,2.51-3.95-.54-11.69-.54-11.69,3.89,2.01,4.77,8.49,4.77,8.49.76-7.32,5.41-8.61,5.41-8.61-3.21,8.58-1.64,12.72-1.64,12.72.47-4.82,4.23-6.24,4.23-6.24-1.57,4.82.62,7.66.62,7.66,0,0,2.51,3.95-1.64,6.67-4.15,2.72-3.61,3.58-4.39,4.88-.78,1.3-3.68,2.47-5.72.74-2.03-1.73-2.66-3.27-5.71-3.27s-4.77-3.41-4-4.01Z"/>
            <path class="cls-6" d="M395.29,378c2.6-2.05,2.73-3.72,2.35-5.06-.61-2.16-.32-3.82.34-5.08-.12,1.13-.07,2.34.23,3.43.6,2.3,2.03,4.43,4.04,5.75,1.07.7,2.23,1.05,3.36,1.6,1.08.53,2.08,1.27,3.22,1.66,1.05.36,2.15.5,3.22.15.97-.32,2.08-.92,3.08-.8,0,0-.01,0-.02.01-4.15,2.72-3.61,3.58-4.39,4.88-.78,1.3-3.68,2.47-5.72.74-2.03-1.73-2.66-3.27-5.71-3.27s-4.77-3.41-4-4.01Z"/>
            <path class="cls-48" d="M393.21,431.23s2.63-.51.13-3.51c-2.49-3-5.37,2.39-5.68,4.65,0,0,2.93-2.67,5.55-1.14Z"/>
            <path class="cls-48" d="M419.25,431.35s-2.62-.51-.13-3.51c2.49-3,5.37,2.39,5.69,4.65,0,0-2.93-2.67-5.56-1.14Z"/>
            <path class="cls-12" d="M399.51,429.67c-2.29.54-4.75.46-7.08.37-2.83-.1-5.47-.26-7.78,1.65-.91-1.62-1.54-3.32-1.88-4.98-1.88-9.2,9.35-.84,20.34-.84.07,0,.14,0,.21,0-.48,1.98-1.77,3.31-3.82,3.8Z"/>
            <g>
              <path class="cls-44" d="M397.54,409.18c.33,2.11-1.11,4.09-3.22,4.42-2.11.33-4.08-1.11-4.42-3.22-.33-2.11,1.11-4.09,3.21-4.42,2.11-.34,4.09,1.1,4.42,3.21Z"/>
              <path class="cls-2" d="M396.24,410.73c.12.74-.39,1.44-1.13,1.55-.74.12-1.44-.39-1.55-1.13-.12-.74.39-1.43,1.13-1.55.75-.12,1.44.39,1.56,1.13Z"/>
            </g>
            <g>
              <path class="cls-44" d="M422.08,409.18c.33,2.11-1.11,4.09-3.22,4.42-2.11.33-4.09-1.11-4.42-3.22-.34-2.11,1.1-4.09,3.21-4.42,2.11-.34,4.09,1.1,4.42,3.21Z"/>
              <path class="cls-2" d="M416.33,411.58c.12.77.84,1.29,1.61,1.17.77-.12,1.29-.84,1.17-1.61-.12-.77-.84-1.29-1.61-1.17-.77.13-1.29.84-1.17,1.61Z"/>
            </g>
          </g>
        </g>
      </g>
      <g>
        <path class="cls-9" d="M949.86,513.55c0,7.27-42.08,13.17-93.98,13.17s-93.98-5.9-93.98-13.17,42.08-13.17,93.98-13.17,93.98,5.89,93.98,13.17Z"/>
        <g>
          <g>
            <g>
              <g>
                <path class="cls-34" d="M836.79,395.79s7.1,7.38-.08,18.33c0,0-7.39-11.33.08-18.33Z"/>
                <path class="cls-4" d="M836.73,414.1c7.16-10.94.07-18.31.07-18.31-.03.02-.04.04-.07.06v18.25Z"/>
              </g>
              <g>
                <path class="cls-34" d="M847.5,399.28s1.45,10.14-10.78,14.83c0,0,.62-13.51,10.78-14.83Z"/>
                <path class="cls-4" d="M836.75,414.11c12.2-4.69,10.75-14.82,10.75-14.82-.03,0-.06,0-.09.01l-10.66,14.81Z"/>
              </g>
              <g>
                <path class="cls-34" d="M825.87,399.28s-1.45,10.14,10.78,14.83c0,0-.62-13.51-10.78-14.83Z"/>
                <path class="cls-4" d="M836.62,414.11c-12.2-4.69-10.75-14.82-10.75-14.82.03,0,.06,0,.09.01l10.66,14.81Z"/>
              </g>
            </g>
            <path class="cls-36" d="M845.28,424.76c0,9.17-5.19,29.9-8.46,29.9s-8.59-20.83-8.59-30,4.02-14.9,8.34-14.9c5.69,0,8.71,5.82,8.71,15Z"/>
            <path class="cls-16" d="M838.91,410.14c.55,1.23,1.05,2.48,1.45,3.77,1.2,3.85,1.24,7.63,1.13,11.64-.12,4.26-.25,8.58-.94,12.8-.5,3.09-1.45,6.62-3.65,8.97-1.07,1.14-2.29,1.75-3.59,2.04,1.22,3.19,2.48,5.31,3.52,5.31,3.27,0,8.46-20.73,8.46-29.9,0-7.82-2.2-13.2-6.37-14.62Z"/>
            <path class="cls-24" d="M829.15,417.57c.45-.2.9-.35,1.35-.42.45-.09.9-.08,1.35-.13.45.05.9.04,1.35.13.45.07.9.22,1.35.42v.06c-1.8.04-3.61.04-5.41,0v-.06Z"/>
            <path class="cls-24" d="M832.4,421.66c.46-.2.92-.35,1.39-.42.46-.09.93-.08,1.39-.13.46.05.92.04,1.39.13.46.07.92.22,1.39.42v.06c-1.85.04-3.7.04-5.55,0v-.06Z"/>
            <path class="cls-24" d="M839.78,418.27c.41-.2.83-.35,1.24-.42.41-.09.83-.08,1.24-.13.41.05.83.04,1.24.13.41.07.83.22,1.24.42v.06c-1.65.04-3.3.04-4.95,0v-.06Z"/>
            <path class="cls-24" d="M838.98,423.77c.52-.2,1.05-.35,1.57-.42.53-.09,1.05-.08,1.58-.13.52.05,1.05.04,1.57.13.52.07,1.05.22,1.57.42v.06c-2.1.04-4.2.04-6.3,0v-.06Z"/>
            <path class="cls-24" d="M828.23,424.43c.45-.2.89-.35,1.34-.42.45-.09.89-.08,1.34-.13.45.05.89.04,1.33.13.45.07.89.22,1.34.42v.06c-1.78.04-3.56.04-5.34,0v-.06Z"/>
            <path class="cls-24" d="M836.06,428.57c.54-.2,1.07-.35,1.61-.42.54-.09,1.07-.08,1.61-.13.54.05,1.07.04,1.61.13.54.07,1.07.22,1.61.42v.06c-2.15.04-4.29.04-6.44,0v-.06Z"/>
            <path class="cls-24" d="M828.89,431.85c.5-.2,1-.35,1.5-.42.5-.09,1-.08,1.5-.13.5.05,1,.04,1.5.13.5.07,1,.22,1.5.42v.06c-2,.04-4,.04-6,0v-.06Z"/>
            <path class="cls-24" d="M835.4,434.28c.45-.2.9-.35,1.35-.42.45-.09.9-.08,1.35-.13.45.05.9.04,1.35.13.45.07.9.22,1.35.42v.06c-1.8.04-3.61.04-5.41,0v-.06Z"/>
            <path class="cls-24" d="M837.03,437.45c.55-.2,1.09-.35,1.64-.42.55-.09,1.09-.08,1.64-.13.55.05,1.09.04,1.64.13.55.07,1.09.22,1.64.42v.06c-2.18.04-4.37.04-6.55,0v-.06Z"/>
            <path class="cls-24" d="M836.51,440.3c-.49.2-.98.35-1.47.42-.49.09-.98.08-1.47.13-.49-.05-.98-.04-1.47-.13-.49-.07-.98-.22-1.47-.42v-.06c1.96-.04,3.91-.04,5.87,0v.06Z"/>
            <path class="cls-24" d="M834.65,443.37c.43-.2.85-.35,1.28-.42.43-.09.85-.08,1.28-.13.43.05.85.04,1.28.13.43.07.85.22,1.28.42v.06c-1.71.04-3.41.04-5.12,0v-.06Z"/>
            <path class="cls-24" d="M837.34,446.64c-.41.2-.82.35-1.23.42-.41.09-.82.08-1.23.13-.41-.05-.82-.04-1.23-.13-.41-.07-.82-.22-1.23-.42v-.06c1.63-.04,3.27-.04,4.9,0v.06Z"/>
            <path class="cls-24" d="M836.22,450.52c.3-.2.59-.35.88-.42.29-.09.59-.08.88-.13.29.05.59.04.88.13.29.07.59.22.88.42v.06c-1.18.04-2.35.04-3.53,0v-.06Z"/>
          </g>
          <g>
            <path class="cls-30" d="M870.01,432.88c0,9.38-6.02,14.82-15.01,14.82s-15.08-5.39-15.08-14.77c0-6.31,1.99-10.61,6.89-13.24,5.86-3.14,11.42-2.64,15.82-.28,4.32,2.31,7.37,6.22,7.37,13.48Z"/>
            <path class="cls-13" d="M865.07,421c.39,1.38.6,2.84.6,4.33,0,2.21-.46,4.34-1.27,6.28-2.35,6.31-8.49,10.91-15.53,10.91-2.5,0-4.88-.58-7.02-1.6,2.47,4.37,7.17,6.77,13.16,6.77,8.98,0,15.01-5.44,15.01-14.82,0-5.8-1.95-9.46-4.94-11.88Z"/>
            <path class="cls-4" d="M856.11,417.83s-.25-4.32,1.47-7.04c0,0-1.84-.94-4.16.67,0,0,1.51,4.9,1.24,6.33l1.46.04Z"/>
            <path class="cls-4" d="M859.91,418.24c2.64.88,3.44,4.48,3.44,4.48-.6-.82-3.59-2.51-3.59-2.51.33,1.75-.74,3.61-.74,3.61-1.74-2.68-3.5-3.77-3.5-3.77-2.16.78-4.61,3.56-4.61,3.56.07-1.92.45-3.48.45-3.48-3.34.31-4.77,1.82-4.77,1.82.75-2.3,2.67-3.39,2.67-3.39,0,0,4.82-2.28,10.64-.33Z"/>
          </g>
          <g>
            <g>
              <path class="cls-19" d="M811.43,445.4s-1.27-3.1-3.98-4.99c-3.78-2.62-2.02-8.74,1.04-10.43,2.56-1.42,1.71-4.5,2.73-6.71,1.02-2.22,2.41-5.19,5.92-4.98,3.5.21,3.1-1.26,5.41-2.85,3.21-2.21,8.07.71,8.71,3.73.63,3.02-1.5,4.5,1.2,6.39,2.7,1.89.84,4.6-.16,6.34-1,1.74-1.04,4.48-.73,6.78.4,2.96-1.8,6.03-6.44,7.34-4.15,1.17-7.13.24-8.56,1.46l-5.12-2.08Z"/>
              <path class="cls-28" d="M832.45,425.56c-2.7-1.89-.57-3.37-1.2-6.39-.43-2.04-2.8-4.04-5.28-4.43,1.66,1.91,2.76,4.32,3.14,6.8.31,2.07.14,4.16-.11,6.23-.26,2.19.12,4.01.39,6.16.51,4.2-2.04,7.05-5.6,8.88-2.77,1.42-5.95,2.06-8.15,4.3l.91.37c1.43-1.22,4.41-.29,8.56-1.46,4.64-1.31,6.84-4.38,6.44-7.34-.3-2.31-.27-5.05.73-6.78,1-1.74,2.86-4.45.16-6.34Z"/>
            </g>
            <g>
              <path class="cls-19" d="M815.54,445.19s1.26-3.1,3.98-4.99c3.77-2.62,2.02-8.74-1.04-10.43-2.56-1.42-1.71-4.49-2.73-6.71-1.02-2.22-2.41-5.19-5.92-4.98-3.51.21-3.1-1.26-5.41-2.85-3.21-2.21-8.07.71-8.7,3.73-.63,3.02,1.5,4.5-1.2,6.39-2.7,1.89-.84,4.6.16,6.34,1,1.74,1.03,4.48.73,6.78-.39,2.96,1.81,6.03,6.44,7.34,4.15,1.17,7.13.24,8.56,1.46l5.13-2.08Z"/>
              <path class="cls-28" d="M794.53,425.35c2.69-1.89.57-3.37,1.2-6.39.42-2.04,2.8-4.04,5.28-4.43-1.66,1.91-2.76,4.32-3.14,6.8-.32,2.07-.14,4.16.11,6.23.26,2.19-.12,4-.38,6.16-.52,4.2,2.03,7.05,5.59,8.89,2.77,1.42,5.95,2.06,8.15,4.3l-.92.37c-1.43-1.22-4.41-.29-8.56-1.46-4.63-1.31-6.83-4.38-6.44-7.34.3-2.3.27-5.05-.73-6.78-1-1.74-2.86-4.45-.16-6.34Z"/>
            </g>
            <path class="cls-4" d="M826.52,433.96c-1.12-2.04-2.07-4.61-1.76-6.59.31-1.98,1.07-5.17-2.13-5.97-3.2-.79-1.75-2.94-3.42-5.53-1.68-2.59-7.27-3.56-9.46-.34-1.58,2.31-.67,3.54-4.02,4.61-3.35,1.07-3.58,4.34-3.73,6.78-.15,2.44,1.75,5-.13,7.25-2.24,2.68-1.68,9.02,2.79,10.1,2.81.68,5.43,2.46,5.81,3.11,2.23,3.73.37,9.81.37,9.81h5.51s-1.4-6.09.69-10.16c.63-1.21,3.08-1.61,6.12-3.89,3.85-2.89,4.8-6.55,3.36-9.17Z"/>
            <path class="cls-31" d="M826.52,433.96c-1.12-2.04-2.07-4.61-1.76-6.59.31-1.98,1.07-5.17-2.13-5.97-3.2-.79-1.75-2.94-3.42-5.53-.87-1.33-2.77-2.24-4.71-2.36.44.62.83,1.27,1.16,1.9,1.2,2.31,1.76,4.62,2.23,7.16.27,1.46.61,2.84,1.41,4.11.68,1.08,1.33,2.12,1.65,3.36.62,2.38-.54,5.89-1.81,7.9-1.36,2.15-3.45,3.93-4.48,6.27-1.76,3.99.45,9.19-1.66,12.96h3.33s-1.4-6.09.69-10.16c.63-1.21,3.08-1.61,6.12-3.89,3.85-2.89,4.8-6.55,3.36-9.17Z"/>
            <g>
              <path class="cls-8" d="M813.21,444.65c-.87-.62-1.63-1.27-2.38-1.92-.75-.65-1.48-1.29-2.21-1.94-.72-.64-1.45-1.28-2.19-1.92-.74-.65-1.5-1.27-2.29-2,1.08.05,2.1.39,3.05.84.94.46,1.82,1.07,2.6,1.76.79.7,1.48,1.48,2.07,2.34.29.43.57.88.8,1.35.23.47.44.96.56,1.48Z"/>
              <path class="cls-8" d="M813.21,444.65c.13-.53.34-1.01.57-1.48.24-.47.51-.92.8-1.35.6-.86,1.3-1.64,2.08-2.34.79-.69,1.66-1.29,2.61-1.76.95-.46,1.97-.8,3.05-.85-.79.73-1.55,1.35-2.29,2-.75.64-1.47,1.28-2.2,1.92-.73.64-1.46,1.29-2.22,1.94-.76.64-1.52,1.29-2.39,1.91Z"/>
              <path class="cls-8" d="M813.58,438.22c-.82-.57-1.53-1.16-2.23-1.75-.7-.6-1.37-1.19-2.04-1.79l-2-1.79c-.67-.61-1.37-1.2-2.09-1.89,1.01.01,1.96.32,2.85.74.88.43,1.69.99,2.41,1.64.72.65,1.36,1.38,1.9,2.19.27.4.51.82.72,1.27.2.44.39.9.48,1.39Z"/>
              <path class="cls-8" d="M813.58,438.22c.1-.49.28-.95.49-1.39.21-.44.45-.86.72-1.27.54-.8,1.17-1.54,1.9-2.19.72-.65,1.54-1.21,2.42-1.64.88-.42,1.84-.73,2.84-.74-.72.7-1.41,1.29-2.08,1.89l-2,1.79c-.67.59-1.34,1.19-2.03,1.79-.7.59-1.41,1.18-2.24,1.75Z"/>
              <path class="cls-8" d="M813.58,431.91c-.75-.57-1.39-1.16-2.02-1.74-.62-.59-1.22-1.17-1.82-1.76-.6-.58-1.19-1.17-1.8-1.75-.61-.59-1.23-1.16-1.9-1.83.95,0,1.86.29,2.69.7.83.42,1.58.98,2.23,1.62.66.64,1.22,1.37,1.68,2.16.22.4.43.81.59,1.24.16.43.29.88.35,1.35Z"/>
              <path class="cls-8" d="M813.58,431.91c.1-.48.28-.93.47-1.36.2-.43.44-.84.69-1.24.52-.78,1.14-1.5,1.83-2.14.7-.63,1.48-1.19,2.34-1.61.85-.41,1.79-.72,2.77-.73-.69.69-1.36,1.27-2,1.87l-1.93,1.77c-.64.59-1.3,1.17-1.98,1.75s-1.38,1.15-2.2,1.69Z"/>
            </g>
          </g>
          <g>
            <path class="cls-34" d="M897.89,430.46s-3.13-18.74-6.58-24.7c2.31.82,8.8,9.23,10.18,24.03l-3.6.67Z"/>
            <path class="cls-4" d="M900.51,429.99s-5.9-18.19-1.28-33.46c0,0,1.28,17.44,5.63,33.47h-4.35Z"/>
            <path class="cls-4" d="M904.16,430.91s3.33-20.89,6.55-26.98c-2.28.9-7.32,5.76-10.79,26.2l4.24.78Z"/>
            <path class="cls-34" d="M900.52,430.48s1.29-18.46.74-30.03c0,0,5.78,4.55,2.37,30.51l-3.11-.47Z"/>
            <path class="cls-35" d="M917,441.57c0,8.7-6.75,15.76-15.08,15.76s-15.08-7.06-15.08-15.76,6.75-15.76,15.08-15.76,15.08,7.05,15.08,15.76Z"/>
            <path class="cls-52" d="M899.92,426.2s-14.42,3.27-10.94,22.91"/>
            <path class="cls-52" d="M903.95,426.2s14.32,3.45,10.84,23.09"/>
            <path class="cls-52" d="M898.1,456.56s-6.58-12.42,3.29-30.41c0,0-15.17,8.01-8.06,28.02"/>
            <path class="cls-52" d="M905.82,456.56s6.57-12.42-3.3-30.41c0,0,15.34,7.89,8.24,27.89"/>
            <path class="cls-52" d="M901.94,457.04s1.75-21.63-.02-30.84"/>
            <path class="cls-5" d="M901.92,425.81c-.06,0-.12,0-.17,0,.78.54,1.52,1.16,2.22,1.85,2.19,2.19,4.03,4.8,5.27,7.65,2.26,5.15,2.77,12.1-1.35,16.5-1.62,1.73-3.72,2.9-6.07,3.23-2.1.3-4.27.13-6.32-.41-1.3-.34-2.63-.85-3.86-1.53,2.69,2.62,6.3,4.22,10.27,4.22,8.33,0,15.08-7.06,15.08-15.76s-6.75-15.76-15.08-15.76Z"/>
          </g>
          <g>
            <g>
              <g>
                <path class="cls-34" d="M879.04,403.07s9.23,10.49-.11,26.07c0,0-9.61-16.11.11-26.07Z"/>
                <path class="cls-4" d="M878.95,429.11c9.31-15.55.09-26.04.09-26.04-.03.03-.06.06-.09.09v25.95Z"/>
              </g>
              <g>
                <path class="cls-34" d="M887.74,407.98s4.28,12.65-8.92,21.52c0,0-2.7-17.45,8.92-21.52Z"/>
                <path class="cls-4" d="M878.84,429.49c13.17-8.87,8.89-21.5,8.89-21.5-.04.01-.07.03-.1.04l-8.79,21.46Z"/>
              </g>
              <g>
                <path class="cls-34" d="M869.5,407.91s-4.4,12.61,8.74,21.59c0,0,2.85-17.43-8.74-21.59Z"/>
                <path class="cls-4" d="M878.21,429.48c-13.1-8.98-8.71-21.57-8.71-21.57.04.01.06.03.1.04l8.61,21.54Z"/>
              </g>
            </g>
            <path class="cls-32" d="M894.28,439.65c0,8.7-6.75,15.76-15.09,15.76s-15.08-7.05-15.08-15.76,6.76-15.76,15.08-15.76,15.09,7.05,15.09,15.76Z"/>
            <path class="cls-27" d="M886.41,425.8c1.15,2.48,1.79,5.22,1.79,8.09,0,9.64-7.22,17.85-16.47,19.44,2.21,1.32,4.76,2.07,7.47,2.07,8.33,0,15.09-7.05,15.09-15.76,0-5.97-3.19-11.17-7.88-13.84Z"/>
          </g>
          <rect class="cls-1" x="787.52" y="442.38" width="136.09" height="71.68"/>
          <rect class="cls-10" x="782.21" y="440.22" width="146.71" height="20.04"/>
          <rect class="cls-10" x="782.21" y="468.11" width="146.71" height="20.04"/>
          <rect class="cls-10" x="782.21" y="496" width="146.71" height="20.04"/>
          <rect class="cls-43" x="782.21" y="450.8" width="146.71" height="9.45"/>
          <rect class="cls-43" x="782.21" y="478.72" width="146.71" height="9.43"/>
          <rect class="cls-43" x="782.21" y="504.72" width="146.71" height="11.32"/>
          <g>
            <path class="cls-1" d="M800.37,450.35c0,1.99-1.62,3.61-3.61,3.61s-3.61-1.62-3.61-3.61,1.62-3.61,3.61-3.61,3.61,1.62,3.61,3.61Z"/>
            <path class="cls-1" d="M800.37,478.15c0,1.99-1.62,3.61-3.61,3.61s-3.61-1.62-3.61-3.61,1.62-3.61,3.61-3.61,3.61,1.62,3.61,3.61Z"/>
            <path class="cls-1" d="M800.37,505.24c0,1.99-1.62,3.61-3.61,3.61s-3.61-1.62-3.61-3.61,1.62-3.61,3.61-3.61,3.61,1.62,3.61,3.61Z"/>
          </g>
          <g>
            <path class="cls-1" d="M917.24,450.32c0,1.99-1.61,3.61-3.61,3.61s-3.62-1.62-3.62-3.61,1.62-3.61,3.62-3.61,3.61,1.62,3.61,3.61Z"/>
            <path class="cls-1" d="M917.24,478.12c0,1.99-1.61,3.61-3.61,3.61s-3.62-1.62-3.62-3.61,1.62-3.61,3.62-3.61,3.61,1.62,3.61,3.61Z"/>
            <path class="cls-1" d="M917.24,505.21c0,1.99-1.61,3.61-3.61,3.61s-3.62-1.62-3.62-3.61,1.62-3.61,3.62-3.61,3.61,1.62,3.61,3.61Z"/>
          </g>
        </g>
      </g>
    </g>
  </g>
</svg>