<svg id="Cow" xmlns="http://www.w3.org/2000/svg" width="143.051" height="82.891" viewBox="0 0 143.051 82.891">
  <path id="Trazado_887908" data-name="Trazado 887908" d="M54.71,26.24a1.49,1.49,0,0,0,0,2.98H68.12a1.49,1.49,0,0,0,0-2.98Z" transform="translate(26.089 -17.193)" fill="#57d3fb"/>
  <path id="Trazado_887909" data-name="Trazado 887909" d="M20.139,49.8a1.49,1.49,0,0,0-1.982.715,2.384,2.384,0,0,1-3.457.894,1.493,1.493,0,1,0-1.758,2.414C17.621,57.246,23.148,51.2,20.139,49.8Z" transform="translate(6.052 -5.72)" fill="#57d3fb"/>
  <path id="Trazado_887910" data-name="Trazado 887910" d="M138.215,32.612c-8.836-8.836-6.943-6.988-7.45-7.45A17.463,17.463,0,0,0,118.607,20.2h-7.942a1.49,1.49,0,1,0,0,2.98h8a14.349,14.349,0,0,1,8.94,3.114l-4.381,4.381a7.122,7.122,0,0,1-5.036,2.086,10.072,10.072,0,0,0-7.152,2.98l-6.318,6.318a10.713,10.713,0,0,1-7.659,3.189H76.336a7.673,7.673,0,0,1-5.468-2.265L65.712,37.8a7.673,7.673,0,0,1-2.265-5.468v-8.15c5.379-1.371,5.96-.983,38.189-.983a1.49,1.49,0,1,0,0-2.98c-32.78,0-33.7-.447-40.051,1.4a34.434,34.434,0,0,0-12.069,6.273l-20.472,16.6-.611-2.473a1.49,1.49,0,0,0-2.339-.834l-4.8,3.606a8.731,8.731,0,0,0-8.046-5.349H10.106a1.49,1.49,0,0,0-1.043,2.533l2.25,2.265a8.314,8.314,0,0,1,2.458,5.96v5.483l-1.237.983a8.94,8.94,0,0,0-3.248,5.468,8.284,8.284,0,0,0-4.068,2.488L.376,70a1.49,1.49,0,0,0,.641,2.414l4.634,1.565a10.43,10.43,0,0,0,7.763-.417l6.124,10.787a6.884,6.884,0,0,0,11.756.313l6.616-10.3,10.817-1.311-6.675,27.028H31.621a9.923,9.923,0,0,1,2.742-8.94,1.49,1.49,0,0,0-1.058-2.548,12.948,12.948,0,0,0-10.341,5.215,13.037,13.037,0,0,0-10.355-5.215,1.49,1.49,0,0,0-1.058,2.548,9.968,9.968,0,0,1,2.742,8.94H1.494a1.49,1.49,0,1,0,0,2.98H65.206a1.49,1.49,0,1,0,0-2.98H63.448l5.587-24.6a2.682,2.682,0,0,1,2.637-2.1H95.587a14.72,14.72,0,0,0,.477,2.414l-.775.224a1.49,1.49,0,1,0,.834,2.861l1.043-.313a13.976,13.976,0,0,0,3.278,4.112l-2.98,17.4H78.556a1.49,1.49,0,1,0,0,2.98h55.025a1.49,1.49,0,1,0,0-2.98h-4.723l6.332-21.5a10.311,10.311,0,0,0-.253-6.511l-1.7-4.47a6.7,6.7,0,0,1,0-4.813c2.369-6.258,2.846-7,2.846-9.059,0-17.641.1-17.09-.328-19.37a13.41,13.41,0,0,1,4.306,9.923v4.693a1.49,1.49,0,1,0,2.98,0V44.279a16.39,16.39,0,0,0-4.828-11.667ZM29.8,47.706,47.5,33.328V37.8A5.468,5.468,0,0,1,45.9,41.686l-6.69,6.69c-2.98,2.98-5.96,2.533-9.432,2.533a10.43,10.43,0,0,0,.03-3.2ZM13.712,42.431a5.766,5.766,0,0,1,5.17,4.47,10.847,10.847,0,0,0-2.131,5.26V50.135a11.2,11.2,0,0,0-3.04-7.7ZM4.1,70.309c3.5-3.9,3.74-4.47,5.185-5.066.372,1.982,1.073,2.98,2.637,5.692C8.839,72.216,6.753,71.2,4.1,70.309ZM28.79,83.048a3.889,3.889,0,0,1-6.66-.179l-1.1-1.862a10.847,10.847,0,0,1,9.506-.611ZM53.286,72.5,52.243,95.386h-5.96l5.6-22.722ZM45.538,98.366h6.616l-.089,1.713H45.121ZM16.021,92.152a10.013,10.013,0,0,1,6.5,7.927h-5.14a13.022,13.022,0,0,0-1.356-7.927Zm9.521,7.927a14.632,14.632,0,0,0-.879-3.412,9.953,9.953,0,0,1,5.319-4.47,12.993,12.993,0,0,0-1.356,7.927Zm29.472,0V98.366h5.692l-.387,1.713ZM98.6,73.378h16.494c3.5,3.5,3.606,3.531,4.142,4.381A11.16,11.16,0,0,1,98.6,73.378Zm18.58,26.7h-8.031l4.261-14.438a14.215,14.215,0,0,0,6.854-4.261C120.261,82.229,120.455,80.8,117.177,100.079Zm-11.92-14.691-.4,2a1.52,1.52,0,1,0,2.98.6l.4-1.937a8.644,8.644,0,0,0,2.056,0l-2.861,9.342h-6.109l1.848-10.862a14.449,14.449,0,0,0,2.011.864Zm-4.768,14.691.3-1.713h5.766l-.507,1.713Zm19.713,0,.283-1.713h5.766l-.507,1.713Zm12.9-46.4c0,1.356-.194,1.49-2.667,8.016a9.864,9.864,0,0,0,0,6.914l1.714,4.47a7.256,7.256,0,0,1,.179,4.634l-5.2,17.671h-6.139l2.131-12.456a9.61,9.61,0,0,0-2.667-8.389L113.511,67.6a12.5,12.5,0,0,1-3.665-8.94V53.323a1.49,1.49,0,0,0-2.98,0c0,4.932-.164,6.884.6,9.61H91.325a1.49,1.49,0,0,0,0,2.98h17.314a17.165,17.165,0,0,0,3.487,4.47c-44.283,0-40.826-.1-41.988.224l2.4-10.594a1.526,1.526,0,0,0-2.98-.656c-4.559,20.1-2.369,10.43-8.165,36.013H55.223L56.34,70.86a1.49,1.49,0,0,0-1.669-1.49l-17.88,2.16a1.49,1.49,0,0,0-1.073.685L32.1,77.834a13.842,13.842,0,0,0-12.605.536L12.907,66.629a5.96,5.96,0,0,1,1.49-7.673c2.637-2.1,4.813-3.4,5.453-6.809l.179-.894A5.424,5.424,0,0,1,22.1,47.929l3.993-2.98.641,2.548a7.6,7.6,0,0,1-.983,5.96l-2.324,3.636a1.49,1.49,0,0,0,2.488,1.565,51.881,51.881,0,0,0,2.905-4.664h4.261a11.5,11.5,0,0,0,8.225-3.412L48,43.892a8.374,8.374,0,0,0,2.488-5.96V30.944a32.11,32.11,0,0,1,9.983-5.856v7.241a10.668,10.668,0,0,0,3.144,7.584l5.155,5.155a10.594,10.594,0,0,0,7.569,3.159H97.062a13.693,13.693,0,0,0,9.73-4.023l6.332-6.407a7.077,7.077,0,0,1,5.036-2.086,10.013,10.013,0,0,0,7.137-2.98l4.47-4.47a14.364,14.364,0,0,1,3.382,9.253Z" transform="translate(0.008 -20.168)" fill="#57d3fb"/>
</svg>
