<svg id="vaca_5_" data-name="vaca (5)" xmlns="http://www.w3.org/2000/svg" width="125.073" height="109" viewBox="0 0 125.073 109">
  <path id="Trazado_887916" data-name="Trazado 887916" d="M92.8,47.6a26.224,26.224,0,0,0,4.491.41,22.313,22.313,0,0,0,2.692-.163,24.055,24.055,0,0,0,9.053-3.07,6.724,6.724,0,0,0,10.415-2.389l2.1-4.6a3.113,3.113,0,0,0-.135-2.843h0a3.111,3.111,0,0,0-2.395-1.539l-5.031-.481a6.718,6.718,0,0,0-7.029,8.816,19.632,19.632,0,0,1-13.537,2.247A1.832,1.832,0,1,0,92.8,47.6Zm17.616-8.9a3.018,3.018,0,0,1,1.612-1.848,3.1,3.1,0,0,1,1.318-.295c.013-.027,4.494.421,4.545.42l-1.774,3.885a3.1,3.1,0,0,1-1.049,1.256,3.051,3.051,0,0,1-4.652-3.418Z" transform="translate(-68.982 -32.896)" fill="#57d3fb"/>
  <path id="Trazado_887917" data-name="Trazado 887917" d="M93.123,282.422a8.724,8.724,0,0,1-6.373,1.451,24.948,24.948,0,0,1,3.772-8.929,1.832,1.832,0,0,0-3.031-2.059,28.676,28.676,0,0,0-4.857,18.165l.119,1.6a8.259,8.259,0,0,1-.6,3.755,15.258,15.258,0,0,0-.955,8.36l.345,2.068H75.067l.261-1.219a26.887,26.887,0,0,0-.608-13.331,11.822,11.822,0,0,0,4.7-8.708,11.29,11.29,0,0,0-2.239-7.031,11.441,11.441,0,0,0-6.5-4.179q-.046-1.171-.047-2.346a1.832,1.832,0,0,0-3.664,0,63.006,63.006,0,0,0,.652,9.032,21.951,21.951,0,0,0-4.6.584l-9.026,2.138a18.472,18.472,0,0,1-14.175-2.424A21.936,21.936,0,0,0,31.84,276.2l-4.113-.748a10.47,10.47,0,0,1,6.7-4.181l2.874-.508a1.832,1.832,0,0,0-.638-3.609l-2.874.508a14.353,14.353,0,0,0-3.31,1.008C26.8,265.508,22.2,264.579,18.7,266.39c-1.571.813-3.643,2.588-4.6,6.425-1.207,4.866.971,10.424,5.709,14.786l-2.528,4.018a16.487,16.487,0,0,0-2.332,11.347l.608,3.863h-6.7l.146-1.443a26.227,26.227,0,0,0-.445-8.11c-.615-2.888-1.45-7.03-1.937-10.363a4.172,4.172,0,0,1,1.1-3.3,6.738,6.738,0,0,0,1.806-5.677l-.812-5.265a1.832,1.832,0,1,0-3.622.558l.812,5.265a3.055,3.055,0,0,1-.819,2.573A7.786,7.786,0,0,0,3,287.442c.5,3.43,1.353,7.655,1.979,10.6a22.578,22.578,0,0,1,.384,6.979l-.186,1.847a3.288,3.288,0,0,0,2.792,3.588v2.442a4.769,4.769,0,0,0,4.764,4.764h8.927a1.832,1.832,0,0,0,1.6-2.717l-3.8-6.883-.892-5.662a12.822,12.822,0,0,1,1.814-8.825l2.6-4.135a14.128,14.128,0,0,0,1.891-4.711c.408-1.91.8-4.095,1.219-5.846l5.084.925a18.289,18.289,0,0,1,6.648,2.622,22.151,22.151,0,0,0,11.954,3.495,21.9,21.9,0,0,0,5.048-.587l9.026-2.138a18.3,18.3,0,0,1,4.4-.491q.593,2.881,1.454,5.707l1.555,5.094a22.649,22.649,0,0,1,.481,11.336l-.356,1.662a3.294,3.294,0,0,0,2.081,3.783v2.607a4.769,4.769,0,0,0,4.764,4.764h9.421a1.832,1.832,0,0,0,1.6-2.717l-3.8-6.891-.65-3.892a11.6,11.6,0,0,1,.726-6.354,11.944,11.944,0,0,0,.872-5.429l-.119-1.6a24.68,24.68,0,0,1-.023-3.27,12.4,12.4,0,0,0,8.959-2.083,1.832,1.832,0,1,0-2.1-3ZM12.732,313.993a1.1,1.1,0,0,1-1.1-1.1v-2.4h4.992l1.931,3.5Zm4.93-40.3a5.827,5.827,0,0,1,2.723-4.053c1.868-.966,4.456-.5,6.765,1.087a14.138,14.138,0,0,0-4.794,8.055L21.3,283.928c-3.063-3.243-4.441-7.007-3.642-10.231Zm56.594,5.049a7.55,7.55,0,0,1,1.5,4.695,7.659,7.659,0,0,1-2.219,4.965l-.325-1.065a59.321,59.321,0,0,1-2.252-11.063,7.515,7.515,0,0,1,3.293,2.468Zm3.978,35.247a1.1,1.1,0,0,1-1.1-1.1v-2.4h5.486l1.931,3.5Z" transform="translate(-2.212 -208.658)" fill="#57d3fb"/>
  <path id="Trazado_887918" data-name="Trazado 887918" d="M118.961,80.06c-2.226,0-4.474,1.457-6.067,2.793a13.722,13.722,0,0,0-2.071-3.106l1.973-1.659A8.991,8.991,0,0,0,113.9,65.435a1.832,1.832,0,0,0-2.581-.226l-8.252,6.924H94.823l-8.252-6.924a1.832,1.832,0,0,0-2.581.226A8.991,8.991,0,0,0,85.1,78.088l1.975,1.657A13.274,13.274,0,0,0,85,82.86c-1.587-1.339-3.832-2.8-6.071-2.8-3.122,0-5.263,1.6-5.917,4.284-5.279.757-13.382.549-18.732.571a111.575,111.575,0,0,1-26.841-3.28,28.966,28.966,0,0,0-6.969-.852A20.489,20.489,0,0,0,6.926,85.908a14.414,14.414,0,0,1-.74-9.113,9.809,9.809,0,0,1,4-5.451A8.281,8.281,0,0,1,15.614,70.1a1.832,1.832,0,1,0,.283-3.653,11.876,11.876,0,0,0-7.684,1.809,13.536,13.536,0,0,0-5.548,7.522A18.132,18.132,0,0,0,4.236,88.786a20.434,20.434,0,0,0-4,15.6L1.555,112.9a1.832,1.832,0,0,0,3.622-.559l-1.316-8.522a16.871,16.871,0,0,1,.4-6.992,14.636,14.636,0,0,1,5.949.663,12.886,12.886,0,0,1,4.578,2.772,10.224,10.224,0,0,0,5.138,2.754,10.473,10.473,0,0,0,1.818.155c4.66,0,10.018-2.864,11.714-7.926a11.616,11.616,0,0,0-.66-8.7,115.246,115.246,0,0,0,21.481,2.025c1.783,0,8.951.011,10.284-.008a12.454,12.454,0,0,0-3.335,6.391,12.8,12.8,0,0,0-.189,2.619,1.832,1.832,0,0,0,1.83,1.779h.054A1.832,1.832,0,0,0,64.7,97.475a9.2,9.2,0,0,1,.131-1.855c.614-3.368,3.485-6.294,7.329-7.492.284-.03.568-.063.852-.1.657,2.675,2.8,4.272,5.914,4.272a9.657,9.657,0,0,0,5.557-2.383A10.419,10.419,0,0,0,84.846,91l5.772,14.319a7.507,7.507,0,0,0-1.357,4.312v.084a6.1,6.1,0,0,1-4.1-1.876,10.4,10.4,0,0,0-3.382-2.217,11.815,11.815,0,0,0-6.909-.407,7.785,7.785,0,0,1-5.323-.416,9.179,9.179,0,0,1-1.889-1.188,1.832,1.832,0,0,0-2.315,2.84,12.856,12.856,0,0,0,2.644,1.664,11.278,11.278,0,0,0,7.5.713,8.408,8.408,0,0,1,4.971.21,6.8,6.8,0,0,1,2.257,1.525,9.6,9.6,0,0,0,6.548,2.829v.242a4.125,4.125,0,0,0,4.12,4.12H95.8c-.33,2.115-.785,5.082-1.106,7.13A1.832,1.832,0,0,0,96.187,127a1.852,1.852,0,0,0,.313.027,1.833,1.833,0,0,0,1.8-1.521c.319-2.033.8-5.146,1.2-7.752h5.026a4.125,4.125,0,0,0,4.12-4.12v-4a7.506,7.506,0,0,0-1.358-4.313l5.76-14.322a10.445,10.445,0,0,0,.357-1.066,9.692,9.692,0,0,0,5.55,2.375c3.77,0,6.112-2.346,6.112-6.122s-2.343-6.122-6.113-6.122ZM29.982,94.085c-1.423,4.249-6.474,5.846-9.42,5.327a6.887,6.887,0,0,1-3.408-1.942,16.393,16.393,0,0,0-5.775-3.448,17.831,17.831,0,0,0-5.607-.917,16.952,16.952,0,0,1,14.7-8.659,25.3,25.3,0,0,1,6.087.744c.338.084.678.163,1.017.244A8.591,8.591,0,0,1,29.982,94.085ZM112.025,69.4a5.327,5.327,0,0,1-1.585,5.879l-1.935,1.626-2.205-2.7ZM87.452,75.281A5.326,5.326,0,0,1,85.869,69.4l5.725,4.8-2.2,2.7ZM78.927,88.639c-1.775,0-2.467-.689-2.467-2.457s.692-2.457,2.467-2.457c1.264,0,3.025,1.293,4.291,2.457-1.266,1.165-3.027,2.457-4.291,2.457Zm10.348-5.8,5.75-7.042h7.843l1.553,1.9a8.9,8.9,0,0,0-5.509,3.518c-2.425,3.4-1.294,7.316-.811,8.987a15.63,15.63,0,0,0,7.668,9.08l-1.419,3.529a7.5,7.5,0,0,0-3.25-.736H96.811a7.505,7.505,0,0,0-3.252.737L88.244,89.629A6.747,6.747,0,0,1,89.276,82.839Zm15.712,30.793a.456.456,0,0,1-.456.456H93.38a.456.456,0,0,1-.456-.456v-4a3.891,3.891,0,0,1,3.887-3.887H101.1a3.891,3.891,0,0,1,3.887,3.887v4Zm4.667-24.005-2.5,6.219a11.96,11.96,0,0,1-5.531-6.658c-.392-1.357-1.122-3.884.275-5.843a5.838,5.838,0,0,1,5.351-2.184l1.374,1.683A6.747,6.747,0,0,1,109.654,89.627Zm9.307-.988c-1.193,0-2.948-1.211-4.308-2.457,1.36-1.247,3.115-2.457,4.308-2.457,1.469,0,2.448.418,2.448,2.457S120.431,88.639,118.961,88.639Z" transform="translate(-0.002 -56.992)" fill="#57d3fb"/>
  <path id="Trazado_887919" data-name="Trazado 887919" d="M151.063,222.165a5.147,5.147,0,0,1,2.1,1.958,5.236,5.236,0,0,1,.588,2.747,5.277,5.277,0,0,0,1.525,4.2,6.435,6.435,0,0,0,4.507,1.608,9.746,9.746,0,0,0,2.372-.295c3.824-1,5.524-4.411,6.164-5.694.374-.75,3.532-7.5-.731-13.491a12.419,12.419,0,0,0-10.391-5.249c-1.9.066-6.547.645-8.661,4.582a7.988,7.988,0,0,0-.648,6.006,6.4,6.4,0,0,0,3.173,3.632Zm.7-7.9c1.215-2.262,4.293-2.609,5.56-2.653a8.952,8.952,0,0,1,7.277,3.711c3.076,4.324.547,9.512.438,9.731-.519,1.04-1.6,3.2-3.816,3.786-.647.17-2.526.424-3.432-.433-.321-.3-.356-.558-.378-1.61A8.308,8.308,0,0,0,153,219.055c-.97-.6-1.373-.879-1.624-1.652A4.326,4.326,0,0,1,151.766,214.261Z" transform="translate(-111.511 -165.178)" fill="#57d3fb"/>
</svg>
