<svg xmlns="http://www.w3.org/2000/svg" xmlns:xlink="http://www.w3.org/1999/xlink" width="73" height="74" viewBox="0 0 73 74">
  <defs>
    <linearGradient id="linear-gradient" x1="0.5" x2="0.5" y2="1" gradientUnits="objectBoundingBox">
      <stop offset="0" stop-color="#edfafe"/>
      <stop offset="1" stop-color="#f6f8e9"/>
    </linearGradient>
  </defs>
  <g id="Grupo_1102160" data-name="Grupo 1102160" transform="translate(-0.333 0.46)">
    <ellipse id="Elipse_11700" data-name="Elipse 11700" cx="36.5" cy="37" rx="36.5" ry="37" transform="translate(0.333 -0.46)" fill="url(#linear-gradient)"/>
    <ellipse id="Elipse_11702" data-name="Elipse 11702" cx="7.5" cy="7" rx="7.5" ry="7" transform="translate(53.333 56.54)" fill="#fba457"/>
    <g id="Grupo_1102157" data-name="Grupo 1102157" transform="translate(20.216 20.142)">
      <path id="Trazado_882333" data-name="Trazado 882333" d="M505.765,39.336a.485.485,0,0,1-.485-.485V.485a.485.485,0,0,1,.971,0V38.85a.485.485,0,0,1-.485.485" transform="translate(-488.564)" fill="#241f20"/>
      <path id="Trazado_882334" data-name="Trazado 882334" d="M507.747,18.068a.485.485,0,0,1-.088-.963c15.044-2.8,14.5-12.044,14.268-15.993l-.008-.137c-10.284.18-14.252,5.828-15.708,9.213a.486.486,0,0,1-.892-.384,15.316,15.316,0,0,1,5.753-6.825A20.513,20.513,0,0,1,522.378,0h0a.485.485,0,0,1,.485.465c.007.175.019.373.032.59.226,3.843.826,14.052-15.06,17a.486.486,0,0,1-.089.008" transform="translate(-488.563)" fill="#241f20"/>
      <path id="Trazado_882335" data-name="Trazado 882335" d="M505.766,58.654a.486.486,0,0,1-.285-.879l11.378-8.236a.485.485,0,0,1,.569.786L506.05,58.562a.484.484,0,0,1-.284.092" transform="translate(-488.564 -43.446)" fill="#241f20"/>
      <path id="Trazado_882336" data-name="Trazado 882336" d="M507.747,151.763a.485.485,0,0,1-.088-.963c15.044-2.8,14.5-12.044,14.268-15.993l-.008-.137c-10.284.18-14.252,5.828-15.708,9.213a.486.486,0,0,1-.892-.384,15.315,15.315,0,0,1,5.753-6.825,20.511,20.511,0,0,1,11.307-2.98h0a.485.485,0,0,1,.485.465c.007.175.019.373.032.59.226,3.843.826,14.052-15.06,17a.487.487,0,0,1-.089.008" transform="translate(-488.563 -117.47)" fill="#241f20"/>
      <path id="Trazado_882337" data-name="Trazado 882337" d="M505.766,192.35a.486.486,0,0,1-.285-.879l11.378-8.236a.485.485,0,0,1,.569.786l-11.378,8.236a.484.484,0,0,1-.284.092" transform="translate(-488.564 -160.917)" fill="#241f20"/>
      <path id="Trazado_882338" data-name="Trazado 882338" d="M382.755,18.068a.486.486,0,0,1-.089-.008c-15.886-2.952-15.286-13.161-15.06-17,.013-.218.024-.415.032-.59A.485.485,0,0,1,368.123,0h0A20.513,20.513,0,0,1,379.43,2.98,15.316,15.316,0,0,1,385.183,9.8a.486.486,0,0,1-.892.384C382.835,6.8,378.867,1.155,368.583.975l-.008.138c-.232,3.949-.776,13.2,14.268,15.993a.485.485,0,0,1-.088.963" transform="translate(-367.535)" fill="#241f20"/>
      <path id="Trazado_882339" data-name="Trazado 882339" d="M423.387,58.654a.484.484,0,0,1-.284-.092l-11.378-8.236a.485.485,0,0,1,.569-.786l11.378,8.236a.486.486,0,0,1-.285.879" transform="translate(-406.186 -43.446)" fill="#241f20"/>
      <path id="Trazado_882340" data-name="Trazado 882340" d="M382.755,151.763a.487.487,0,0,1-.089-.008c-15.886-2.952-15.286-13.161-15.06-17,.013-.218.024-.415.032-.59a.485.485,0,0,1,.485-.465h0a20.511,20.511,0,0,1,11.307,2.98,15.316,15.316,0,0,1,5.753,6.825.486.486,0,0,1-.892.384c-1.456-3.385-5.425-9.033-15.708-9.213l-.008.138c-.232,3.949-.776,13.2,14.268,15.993a.485.485,0,0,1-.088.963" transform="translate(-367.535 -117.47)" fill="#241f20"/>
      <path id="Trazado_882341" data-name="Trazado 882341" d="M423.387,192.35a.484.484,0,0,1-.284-.092l-11.378-8.236a.485.485,0,0,1,.569-.786l11.378,8.236a.486.486,0,0,1-.285.879" transform="translate(-406.186 -160.917)" fill="#241f20"/>
      <path id="Trazado_882342" data-name="Trazado 882342" d="M464.265,333.117h-13.3a.485.485,0,1,1,0-.971h13.3a.485.485,0,1,1,0,.971" transform="translate(-440.412 -291.837)" fill="#241f20"/>
    </g>
  </g>
</svg>
