<svg xmlns="http://www.w3.org/2000/svg" xmlns:xlink="http://www.w3.org/1999/xlink" width="91" height="91" viewBox="0 0 91 91">
  <defs>
    <linearGradient id="linear-gradient" x1="0.5" x2="0.5" y2="1" gradientUnits="objectBoundingBox">
      <stop offset="0" stop-color="#edfafe"/>
      <stop offset="1" stop-color="#f6f8e9"/>
    </linearGradient>
  </defs>
  <g id="Grupo_1102160" data-name="Grupo 1102160" transform="translate(11871 12151)">
    <circle id="Elipse_11700" data-name="Elipse 11700" cx="45.5" cy="45.5" r="45.5" transform="translate(-11871 -12151)" fill="url(#linear-gradient)"/>
    <ellipse id="Elipse_11702" data-name="Elipse 11702" cx="9.5" cy="9" rx="9.5" ry="9" transform="translate(-11805 -12081)" fill="#fba457"/>
    <g id="Grupo_1102157" data-name="Grupo 1102157" transform="translate(-11845.925 -12126.018)">
      <path id="Trazado_882333" data-name="Trazado 882333" d="M505.882,48.79a.6.6,0,0,1-.6-.6V.6a.6.6,0,0,1,1.2,0V48.188a.6.6,0,0,1-.6.6" transform="translate(-484.546)" fill="#241f20"/>
      <path id="Trazado_882334" data-name="Trazado 882334" d="M508.34,22.411a.6.6,0,0,1-.109-1.194c18.659-3.468,17.985-14.938,17.7-19.837l-.01-.17c-12.755.223-17.678,7.228-19.484,11.427a.6.6,0,0,1-1.106-.476A19,19,0,0,1,512.464,3.7,25.443,25.443,0,0,1,526.488,0h0a.6.6,0,0,1,.6.577c.009.217.024.462.039.732.28,4.767,1.025,17.429-18.679,21.091a.6.6,0,0,1-.111.01" transform="translate(-484.545)" fill="#241f20"/>
      <path id="Trazado_882335" data-name="Trazado 882335" d="M505.883,60.867a.6.6,0,0,1-.354-1.09l14.113-10.216a.6.6,0,0,1,.706.975L506.235,60.753a.6.6,0,0,1-.353.114" transform="translate(-484.546 -42.004)" fill="#241f20"/>
      <path id="Trazado_882336" data-name="Trazado 882336" d="M508.34,156.106a.6.6,0,0,1-.109-1.194c18.659-3.468,17.985-14.938,17.7-19.837l-.01-.17c-12.755.223-17.678,7.228-19.484,11.427a.6.6,0,0,1-1.106-.476,19,19,0,0,1,7.136-8.465,25.441,25.441,0,0,1,14.024-3.7h0a.6.6,0,0,1,.6.577c.009.217.024.462.039.732.28,4.767,1.025,17.429-18.679,21.091a.6.6,0,0,1-.111.01" transform="translate(-484.545 -113.57)" fill="#241f20"/>
      <path id="Trazado_882337" data-name="Trazado 882337" d="M505.883,194.563a.6.6,0,0,1-.354-1.09l14.113-10.216a.6.6,0,0,1,.706.975l-14.113,10.216a.6.6,0,0,1-.353.114" transform="translate(-484.546 -155.575)" fill="#241f20"/>
      <path id="Trazado_882338" data-name="Trazado 882338" d="M386.413,22.411a.6.6,0,0,1-.111-.01c-19.7-3.662-18.959-16.324-18.679-21.091.016-.27.03-.515.039-.732a.6.6,0,0,1,.6-.577h0a25.443,25.443,0,0,1,14.024,3.7,19,19,0,0,1,7.136,8.465.6.6,0,0,1-1.106.476c-1.806-4.2-6.728-11.2-19.483-11.427l-.01.171c-.288,4.9-.962,16.369,17.7,19.837a.6.6,0,0,1-.109,1.194" transform="translate(-367.535)" fill="#241f20"/>
      <path id="Trazado_882339" data-name="Trazado 882339" d="M426.238,60.867a.6.6,0,0,1-.353-.114L411.773,50.537a.6.6,0,0,1,.706-.975l14.113,10.216a.6.6,0,0,1-.354,1.09" transform="translate(-404.903 -42.004)" fill="#241f20"/>
      <path id="Trazado_882340" data-name="Trazado 882340" d="M386.413,156.106a.6.6,0,0,1-.111-.01c-19.7-3.662-18.959-16.324-18.679-21.091.016-.27.03-.515.039-.732a.6.6,0,0,1,.6-.577h0a25.441,25.441,0,0,1,14.024,3.7,19,19,0,0,1,7.136,8.465.6.6,0,0,1-1.106.476c-1.806-4.2-6.728-11.2-19.483-11.427l-.01.171c-.288,4.9-.962,16.369,17.7,19.837a.6.6,0,0,1-.109,1.194" transform="translate(-367.535 -113.57)" fill="#241f20"/>
      <path id="Trazado_882341" data-name="Trazado 882341" d="M426.238,194.563a.6.6,0,0,1-.353-.114l-14.113-10.216a.6.6,0,0,1,.706-.975l14.113,10.216a.6.6,0,0,1-.354,1.09" transform="translate(-404.903 -155.575)" fill="#241f20"/>
      <path id="Trazado_882342" data-name="Trazado 882342" d="M467.578,333.35h-16.5a.6.6,0,1,1,0-1.2h16.5a.6.6,0,1,1,0,1.2" transform="translate(-437.993 -282.149)" fill="#241f20"/>
    </g>
  </g>
</svg>
