<svg xmlns="http://www.w3.org/2000/svg" xmlns:xlink="http://www.w3.org/1999/xlink" width="78" height="71" viewBox="0 0 78 71">
  <defs>
    <linearGradient id="linear-gradient" x1="0.5" x2="0.5" y2="1" gradientUnits="objectBoundingBox">
      <stop offset="0" stop-color="#edfafe"/>
      <stop offset="1" stop-color="#f6f8e9"/>
    </linearGradient>
  </defs>
  <g id="Grupo_1102169" data-name="Grupo 1102169" transform="translate(0.239 0.045)">
    <g id="Grupo_1102163" data-name="Grupo 1102163" transform="translate(0 0)">
      <circle id="Elipse_11698" data-name="Elipse 11698" cx="35.5" cy="35.5" r="35.5" transform="translate(6.761 -0.045)" fill="url(#linear-gradient)"/>
      <circle id="Elipse_11699" data-name="Elipse 11699" cx="7.5" cy="7.5" r="7.5" transform="translate(-0.239 36.955)" fill="#af7142"/>
    </g>
    <g id="Grupo_1102168" data-name="Grupo 1102168" transform="translate(22.574 14.108)">
      <path id="Trazado_882413" data-name="Trazado 882413" d="M471.066,158.456a21.175,21.175,0,0,1-8.858-1.92.538.538,0,0,1,.447-.978,20.11,20.11,0,0,0,8.728,1.82,20.446,20.446,0,0,0,19.975-19.9,20.29,20.29,0,1,0-37.97,9.57,6.633,6.633,0,0,0,5.308,3.46c4.6.294,6.81-4.781,8.955-9.689,2.045-4.679,3.977-9.1,7.906-9.371a.538.538,0,1,1,.075,1.073c-3.278.228-5.084,4.357-6.994,8.729a34.759,34.759,0,0,1-3.777,7.14c-1.777,2.3-3.815,3.347-6.232,3.192a7.7,7.7,0,0,1-6.176-4A21.33,21.33,0,1,1,471.4,158.454l-.333,0" transform="translate(-449.706 -115.725)" fill="#483f40"/>
      <path id="Trazado_882414" data-name="Trazado 882414" d="M539.639,211.114h-.018a.538.538,0,0,1,0-1.076h.017c5.4,0,8.933-1.621,10.815-4.956,1.633-2.9,1.772-6.664,1.884-9.692.093-2.528.177-4.8,1.169-5.881-5.259-1.317-13.3.294-17,4.763-2.841,3.432-2.691,7.943.435,13.047a.538.538,0,0,1-.917.562c-4.281-6.99-2.551-11.632-.346-14.295,4.35-5.254,13.852-6.814,19.443-4.7a.538.538,0,0,1-.143,1.039c-1.305.116-1.447,2.167-1.57,5.5-.23,6.246-.58,15.684-13.773,15.684" transform="translate(-522.144 -178.261)" fill="#483f40"/>
    </g>
  </g>
</svg>
