<svg xmlns="http://www.w3.org/2000/svg" xmlns:xlink="http://www.w3.org/1999/xlink" width="97" height="88" viewBox="0 0 97 88">
  <defs>
    <linearGradient id="linear-gradient" x1="0.5" x2="0.5" y2="1" gradientUnits="objectBoundingBox">
      <stop offset="0" stop-color="#edfafe"/>
      <stop offset="1" stop-color="#f6f8e9"/>
    </linearGradient>
  </defs>
  <g id="Grupo_1102169" data-name="Grupo 1102169" transform="translate(-934.333 -426)">
    <g id="Grupo_1102163" data-name="Grupo 1102163" transform="translate(13007.333 12368)">
      <circle id="Elipse_11698" data-name="Elipse 11698" cx="44" cy="44" r="44" transform="translate(-12064 -11942)" fill="url(#linear-gradient)"/>
      <circle id="Elipse_11699" data-name="Elipse 11699" cx="9" cy="9" r="9" transform="translate(-12073 -11896)" fill="#af7142"/>
    </g>
    <g id="Grupo_1102168" data-name="Grupo 1102168" transform="translate(12504.333 12167.199)">
      <path id="Trazado_882413" data-name="Trazado 882413" d="M476.2,168.726a26.264,26.264,0,0,1-10.987-2.381.667.667,0,0,1,.554-1.214,24.943,24.943,0,0,0,10.826,2.258A25.361,25.361,0,0,0,501.369,142.7a25.167,25.167,0,1,0-47.1,11.871,8.227,8.227,0,0,0,6.584,4.291c5.7.365,8.447-5.931,11.108-12.018,2.537-5.8,4.933-11.285,9.806-11.624a.667.667,0,1,1,.093,1.331c-4.066.283-6.305,5.4-8.676,10.827a43.114,43.114,0,0,1-4.685,8.856c-2.2,2.855-4.732,4.151-7.73,3.959a9.555,9.555,0,0,1-7.661-4.967,26.456,26.456,0,1,1,23.5,13.493q-.207,0-.413,0" transform="translate(-11991.707 -11839.425)" fill="#483f40"/>
      <path id="Trazado_882414" data-name="Trazado 882414" d="M541.139,216.675h-.022a.667.667,0,0,1,0-1.334h.022c6.692,0,11.08-2.011,13.414-6.147,2.026-3.591,2.2-8.265,2.337-12.021.116-3.136.219-5.953,1.45-7.294-6.522-1.633-16.492.365-21.081,5.907-3.524,4.257-3.337,9.853.539,16.183a.667.667,0,0,1-1.138.7c-5.309-8.67-3.164-14.427-.429-17.73,5.4-6.517,17.181-8.452,24.115-5.828a.667.667,0,0,1-.177,1.288c-1.619.144-1.795,2.688-1.947,6.826-.285,7.747-.719,19.453-17.084,19.453" transform="translate(-12061.44 -11899.626)" fill="#483f40"/>
    </g>
  </g>
</svg>
