<svg xmlns="http://www.w3.org/2000/svg" xmlns:xlink="http://www.w3.org/1999/xlink" width="69" height="68" viewBox="0 0 69 68">
  <defs>
    <linearGradient id="linear-gradient" x1="0.5" x2="0.5" y2="1" gradientUnits="objectBoundingBox">
      <stop offset="0" stop-color="#edfafe"/>
      <stop offset="1" stop-color="#f6f8e9"/>
    </linearGradient>
  </defs>
  <g id="Grupo_1102161" data-name="Grupo 1102161" transform="translate(0.447 -0.166)">
    <ellipse id="Elipse_11701" data-name="Elipse 11701" cx="34.5" cy="34" rx="34.5" ry="34" transform="translate(-0.447 0.166)" fill="url(#linear-gradient)"/>
    <circle id="Elipse_11703" data-name="Elipse 11703" cx="7" cy="7" r="7" transform="translate(48.553 0.166)" fill="#b1bf34"/>
    <path id="Trazado_882343" data-name="Trazado 882343" d="M13.045,145.593H8.371a.678.678,0,0,1-.677-.677v-3.794a.678.678,0,0,1,.677-.677h4.674a.677.677,0,1,1,0,1.355h-4v2.439h4a.677.677,0,1,1,0,1.355" transform="translate(14.571 -111.848)" fill="#241f20"/>
    <path id="Trazado_882344" data-name="Trazado 882344" d="M71.278,145.593H66.749a.677.677,0,1,1,0-1.355H70.6V141.8h-3.75a.677.677,0,1,1,0-1.355h4.427a.678.678,0,0,1,.677.677v3.794a.678.678,0,0,1-.677.677" transform="translate(-33.919 -111.848)" fill="#241f20"/>
    <path id="Trazado_882345" data-name="Trazado 882345" d="M26.37,189.606a5.691,5.691,0,0,1-5.685-5.685v-20.4a.678.678,0,0,1,.677-.677h2.473a.677.677,0,0,1,0,1.355h-1.8v19.723a4.33,4.33,0,1,0,8.66,0V164.2H29.05a.677.677,0,0,1,0-1.355h2.328a.678.678,0,0,1,.677.677v20.4a5.691,5.691,0,0,1-5.685,5.685" transform="translate(3.78 -130.453)" fill="#241f20"/>
    <path id="Trazado_882346" data-name="Trazado 882346" d="M66.9,225.7H50.928a.677.677,0,0,1,0-1.355h15.3v-4.108a.677.677,0,1,1,1.355,0v4.785a.678.678,0,0,1-.677.677" transform="translate(-20.778 -177.562)" fill="#241f20"/>
    <path id="Trazado_882347" data-name="Trazado 882347" d="M125.515,153.011H108.677a.677.677,0,0,1-.677-.677V138.487a.678.678,0,0,1,.677-.677h16.838a.678.678,0,0,1,.677.677v13.846a.678.678,0,0,1-.677.677m-16.16-1.355h15.482V139.165H109.355Z" transform="translate(-68.746 -109.659)" fill="#241f20"/>
    <path id="Trazado_882348" data-name="Trazado 882348" d="M145.345,159.23h-6.679a.677.677,0,1,1,0-1.355h6.679a.677.677,0,0,1,0,1.355" transform="translate(-93.655 -126.325)" fill="#241f20"/>
    <path id="Trazado_882349" data-name="Trazado 882349" d="M145.345,180.039h-6.679a.677.677,0,1,1,0-1.355h6.679a.677.677,0,0,1,0,1.355" transform="translate(-93.655 -143.61)" fill="#241f20"/>
    <path id="Trazado_882350" data-name="Trazado 882350" d="M145.345,200.849h-6.679a.677.677,0,1,1,0-1.355h6.679a.677.677,0,1,1,0,1.355" transform="translate(-93.655 -160.896)" fill="#241f20"/>
    <path id="Trazado_882351" data-name="Trazado 882351" d="M50.928,111.426a.678.678,0,0,1-.677-.677v-21.2a.677.677,0,1,1,1.355,0v21.2a.678.678,0,0,1-.677.677" transform="translate(-20.778 -69.006)" fill="#241f20"/>
    <path id="Trazado_882352" data-name="Trazado 882352" d="M8.8,38.008a6.778,6.778,0,0,1-.835-.051A7.784,7.784,0,0,1,3.775,36a.672.672,0,0,1-.072-.065,9.412,9.412,0,0,1-.962-1.014A13.413,13.413,0,0,1,0,27.9a.678.678,0,0,1,.437-.712c1.042-.387,3.923-.521,8.156,1.4a8.208,8.208,0,0,1,1.549-.786c3.3-1.249,6.368.171,7.521.706.118.054.217.1.3.134a.677.677,0,0,1,.369.862c-2.374,6.3-6.334,8.5-9.533,8.5M5.011,35.29a6.273,6.273,0,0,0,3.121,1.322c3.438.427,6.735-2.24,8.7-6.995a8.052,8.052,0,0,0-6.207-.546c-2.2.834-4.092,2.925-5.616,6.218M1.431,28.355a11.664,11.664,0,0,0,2.546,5.951,15.47,15.47,0,0,1,3.394-4.771,12.644,12.644,0,0,0-5.94-1.181" transform="translate(20.962 -17.58)" fill="#241f20"/>
  </g>
</svg>
