<svg id="Plant_Corn" data-name="Plant Corn" xmlns="http://www.w3.org/2000/svg" width="72.782" height="72.782" viewBox="0 0 72.782 72.782">
  <g id="Outline" transform="translate(0 0)">
    <path id="Trazado_886807" data-name="Trazado 886807" d="M71.645,269.528H53.385a10.247,10.247,0,0,0-10.553-9.09,10.227,10.227,0,0,0-2.187-1.356l5.392-5.841A17.144,17.144,0,0,1,62.3,248.151a1.137,1.137,0,0,0,1-1.96,15.568,15.568,0,0,0-8.584-3.85,1.137,1.137,0,0,0-.263,2.259,13.343,13.343,0,0,1,3.473.886A19.434,19.434,0,0,0,44.365,251.7l-6.118,6.628a10.076,10.076,0,0,0-2.993-.105V233.137a1.137,1.137,0,0,0-2.274,0v25.6a10.221,10.221,0,0,0-3.029,1.7,10.247,10.247,0,0,0-10.553,9.09H1.137a1.137,1.137,0,1,0,0,2.274H71.645a1.137,1.137,0,1,0,0-2.274Zm-49.955,0a7.972,7.972,0,0,1,7.878-6.823c.644,0,1.06.162,1.526-.254a7.955,7.955,0,0,1,10.595,0c.466.416.878.254,1.526.254a7.972,7.972,0,0,1,7.878,6.823Z" transform="translate(0 -199.02)" fill="#57d3fb"/>
    <path id="Trazado_886808" data-name="Trazado 886808" d="M284.549,464h-3.412a1.137,1.137,0,0,0,0,2.274h3.412a1.137,1.137,0,1,0,0-2.274Z" transform="translate(-240.197 -398.041)" fill="#57d3fb"/>
    <path id="Trazado_886809" data-name="Trazado 886809" d="M196.549,464h-3.412a1.137,1.137,0,1,0,0,2.274h3.412a1.137,1.137,0,1,0,0-2.274Z" transform="translate(-164.707 -398.041)" fill="#57d3fb"/>
    <path id="Trazado_886810" data-name="Trazado 886810" d="M217.137,15.3a1.137,1.137,0,0,0,1.137-1.137v-.045c3.732,3.574,3.714,4.072,4.543,4.072a1.139,1.139,0,0,0,.8-1.941l-1.534-1.534,3.006-3.607c.009.41,0-.108,0,3.056a1.137,1.137,0,1,0,2.274,0V11.371A14.825,14.825,0,0,0,222.4.248a1.137,1.137,0,0,0-1.422,0A14.824,14.824,0,0,0,216,11.371v2.79A1.137,1.137,0,0,0,217.137,15.3Zm4.549-12.582a13.065,13.065,0,0,1,2.973,5.357L220.472,13.1l-2.189-2.189a12.855,12.855,0,0,1,3.4-8.192Z" transform="translate(-185.295 0.001)" fill="#57d3fb"/>
    <path id="Trazado_886811" data-name="Trazado 886811" d="M65.383,236.079a17.14,17.14,0,0,1,16.265,5.091l1.986,2.151a1.137,1.137,0,0,0,1.671-1.543c-1.018-.8-5.575-8.007-15.548-8.365a13.371,13.371,0,0,1,13.953,2.435,1.137,1.137,0,0,0,1.518-1.694,15.645,15.645,0,0,0-20.847-.036,1.137,1.137,0,0,0,1,1.96Z" transform="translate(-54.901 -197.441)" fill="#57d3fb"/>
    <path id="Trazado_886812" data-name="Trazado 886812" d="M113.507,115.432c4.328-1.443,9.11-.179,12.527,4.646a1.137,1.137,0,1,0,1.856-1.314c-2.974-4.2-6.8-6.126-10.947-6.153a8.306,8.306,0,0,1,9.875,1.8c4.931,5.2,4.783,5.633,5.663,5.633s.733-.437,5.663-5.633a8.306,8.306,0,0,1,9.89-1.789c-8.654.067-14.415,8.726-14.415,16.978v20.011a1.137,1.137,0,0,0,2.274,0v-2.684c3.4-3.344,3.85-3.992,5.219-4.991a1.137,1.137,0,0,0,.249-1.589c-1.081-1.484-2.783.753-5.468,3.363V129.6c0-8.815,7.15-16.971,15.561-14.164a1.138,1.138,0,0,0,1.27-1.761,10.576,10.576,0,0,0-16.256-.8l-3.986,4.349-3.986-4.35a10.576,10.576,0,0,0-16.256.8,1.138,1.138,0,0,0,1.27,1.761Z" transform="translate(-96.089 -93.883)" fill="#57d3fb"/>
    <ellipse id="Elipse_11768" data-name="Elipse 11768" cx="1" cy="1.5" rx="1" ry="1.5" transform="translate(32 28)" fill="#57d3fb"/>
    <path id="Trazado_886813" data-name="Trazado 886813" d="M297.666,178.431a5.686,5.686,0,1,0,8.041,8.041l.249-.249c5.681-5.822,6.866-6.513,8.346-8.915,0-.014,2.677-4.212,2.185-8.652a1.137,1.137,0,0,0-1-1.005,14.823,14.823,0,0,0-11.115,4.085C304.174,171.921,304.7,171.4,297.666,178.431Zm6.349,6.515a3.412,3.412,0,0,1-4.74-4.906l4.74-4.74Zm2.274-11.886a12.862,12.862,0,0,1,7.951-3.16,13.007,13.007,0,0,1-1.561,5.675h-6.39Zm0,4.79h4.791c-.459.519-.422.446-4.791,4.825Z" transform="translate(-253.923 -143.786)" fill="#57d3fb"/>
  </g>
</svg>
