<svg xmlns="http://www.w3.org/2000/svg" xmlns:xlink="http://www.w3.org/1999/xlink" width="82" height="75" viewBox="0 0 82 75">
  <defs>
    <linearGradient id="linear-gradient" x1="0.5" x2="0.5" y2="1" gradientUnits="objectBoundingBox">
      <stop offset="0" stop-color="#edfafe"/>
      <stop offset="1" stop-color="#f6f8e9"/>
    </linearGradient>
  </defs>
  <g id="Grupo_1102162" data-name="Grupo 1102162" transform="translate(0.218)">
    <circle id="Elipse_11698" data-name="Elipse 11698" cx="37.5" cy="37.5" r="37.5" transform="translate(6.782)" fill="url(#linear-gradient)"/>
    <circle id="Elipse_11699" data-name="Elipse 11699" cx="7.5" cy="7.5" r="7.5" transform="translate(-0.218 39)" fill="#57d3fb"/>
    <g id="Grupo_1102167" data-name="Grupo 1102167" transform="translate(23.321 16.054)">
      <path id="Trazado_882402" data-name="Trazado 882402" d="M113.184,118.308a9.03,9.03,0,0,1-4.059-.96,7.329,7.329,0,0,1-4.237-6.433c-.248-4.7,4.78-10.485,8.007-13.023a.468.468,0,0,1,.579,0c3.227,2.539,8.254,8.319,8.007,13.024a7.329,7.329,0,0,1-4.237,6.433,9.029,9.029,0,0,1-4.059.96m0-19.447c-3.081,2.526-7.583,7.789-7.361,12.006a6.436,6.436,0,0,0,3.723,5.645,8.123,8.123,0,0,0,7.276,0,6.436,6.436,0,0,0,3.723-5.645c.222-4.217-4.28-9.48-7.361-12.006" transform="translate(-92.601 -86.344)" fill="#483f40"/>
      <path id="Trazado_882403" data-name="Trazado 882403" d="M33.525,137.379a.468.468,0,0,1-.468-.468V126.226a.468.468,0,1,1,.937,0V136.91a.468.468,0,0,1-.468.468" transform="translate(-29.187 -111.036)" fill="#483f40"/>
      <path id="Trazado_882404" data-name="Trazado 882404" d="M61.674,249.545H36.726a3.674,3.674,0,0,1-3.669-3.669v-6.213a.468.468,0,0,1,.937,0v6.213a2.736,2.736,0,0,0,2.733,2.733H61.674a2.736,2.736,0,0,0,2.733-2.733v-6.213a.468.468,0,0,1,.937,0v6.213a3.674,3.674,0,0,1-3.67,3.669" transform="translate(-29.187 -211.192)" fill="#483f40"/>
      <path id="Trazado_882406" data-name="Trazado 882406" d="M64.873,41.591a.468.468,0,0,1-.468-.468v-5a2.736,2.736,0,0,0-2.733-2.733H36.725a2.736,2.736,0,0,0-2.733,2.733v5a.468.468,0,0,1-.937,0v-5a3.674,3.674,0,0,1,3.669-3.669H61.672a3.674,3.674,0,0,1,3.669,3.669v5a.468.468,0,0,1-.468.468" transform="translate(-29.186 -28.657)" fill="#483f40"/>
      <path id="Trazado_882407" data-name="Trazado 882407" d="M41.593,4.736H7.507A2.368,2.368,0,0,1,7.507,0H41.593a2.368,2.368,0,0,1,0,4.736M7.507.937a1.432,1.432,0,0,0,0,2.863H41.593a1.432,1.432,0,0,0,0-2.863Z" transform="translate(-4.538)" fill="#483f40"/>
      <path id="Trazado_882408" data-name="Trazado 882408" d="M41.593,324.341H7.507a2.368,2.368,0,1,1,0-4.736H41.593a2.368,2.368,0,1,1,0,4.736m-34.086-3.8a1.432,1.432,0,0,0,0,2.863H41.593a1.432,1.432,0,0,0,0-2.863Z" transform="translate(-4.538 -282.19)" fill="#483f40"/>
      <path id="Trazado_882409" data-name="Trazado 882409" d="M8.208,126.7H.468a.468.468,0,0,1,0-.937H8.208a.468.468,0,0,1,0,.937" transform="translate(0 -111.042)" fill="#483f40"/>
      <path id="Trazado_882411" data-name="Trazado 882411" d="M8.208,240.134H.468a.468.468,0,0,1,0-.937H8.208a.468.468,0,0,1,0,.937" transform="translate(0 -211.195)" fill="#483f40"/>
    </g>
  </g>
</svg>
