<svg xmlns="http://www.w3.org/2000/svg" xmlns:xlink="http://www.w3.org/1999/xlink" width="85" height="85" viewBox="0 0 85 85">
  <defs>
    <linearGradient id="linear-gradient" x1="0.5" x2="0.5" y2="1" gradientUnits="objectBoundingBox">
      <stop offset="0" stop-color="#edfafe"/>
      <stop offset="1" stop-color="#f6f8e9"/>
    </linearGradient>
  </defs>
  <g id="Grupo_1102161" data-name="Grupo 1102161" transform="translate(12002 12034)">
    <circle id="Elipse_11701" data-name="Elipse 11701" cx="42.5" cy="42.5" r="42.5" transform="translate(-12002 -12034)" fill="url(#linear-gradient)"/>
    <circle id="Elipse_11703" data-name="Elipse 11703" cx="8.5" cy="8.5" r="8.5" transform="translate(-11942 -12034)" fill="#b1bf34"/>
    <path id="Trazado_882343" data-name="Trazado 882343" d="M14.331,146.83h-5.8a.84.84,0,0,1-.84-.84v-4.706a.84.84,0,0,1,.84-.84h5.8a.84.84,0,1,1,0,1.681H9.375v3.025h4.957a.84.84,0,0,1,0,1.681" transform="translate(-11982.078 -12138.975)" fill="#241f20"/>
    <path id="Trazado_882344" data-name="Trazado 882344" d="M72.529,146.83H66.912a.84.84,0,1,1,0-1.681h4.777v-3.025H67.038a.84.84,0,1,1,0-1.681h5.491a.84.84,0,0,1,.84.84v4.706a.84.84,0,0,1-.84.84" transform="translate(-12028.191 -12138.975)" fill="#241f20"/>
    <path id="Trazado_882345" data-name="Trazado 882345" d="M27.736,196.038a7.059,7.059,0,0,1-7.051-7.051v-25.3a.84.84,0,0,1,.84-.84h3.068a.84.84,0,0,1,0,1.681H22.366v24.463a5.371,5.371,0,1,0,10.742,0V164.524H31.06a.84.84,0,0,1,0-1.681h2.888a.84.84,0,0,1,.84.84v25.3a7.059,7.059,0,0,1-7.051,7.051" transform="translate(-11992.34 -12156.668)" fill="#241f20"/>
    <path id="Trazado_882346" data-name="Trazado 882346" d="M70.9,227.175H51.091a.84.84,0,0,1,0-1.681H70.063V220.4a.84.84,0,0,1,1.681,0v5.935a.84.84,0,0,1-.84.84" transform="translate(-12015.694 -12201.469)" fill="#241f20"/>
    <path id="Trazado_882347" data-name="Trazado 882347" d="M129.725,156.664H108.84a.84.84,0,0,1-.84-.84V138.65a.84.84,0,0,1,.84-.84h20.884a.84.84,0,0,1,.84.84v17.174a.84.84,0,0,1-.84.84m-20.044-1.681h19.2V139.491h-19.2Z" transform="translate(-12061.312 -12136.893)" fill="#241f20"/>
    <path id="Trazado_882348" data-name="Trazado 882348" d="M147.113,159.556h-8.285a.84.84,0,1,1,0-1.681h8.285a.84.84,0,0,1,0,1.681" transform="translate(-12085 -12152.742)" fill="#241f20"/>
    <path id="Trazado_882349" data-name="Trazado 882349" d="M147.113,180.365h-8.285a.84.84,0,1,1,0-1.681h8.285a.84.84,0,1,1,0,1.681" transform="translate(-12085 -12169.18)" fill="#241f20"/>
    <path id="Trazado_882350" data-name="Trazado 882350" d="M147.113,201.175h-8.285a.84.84,0,1,1,0-1.681h8.285a.84.84,0,0,1,0,1.681" transform="translate(-12085 -12185.619)" fill="#241f20"/>
    <path id="Trazado_882351" data-name="Trazado 882351" d="M51.091,116.847a.84.84,0,0,1-.84-.84v-26.3a.84.84,0,1,1,1.681,0v26.3a.84.84,0,0,1-.84.84" transform="translate(-12015.694 -12098.232)" fill="#241f20"/>
    <path id="Trazado_882352" data-name="Trazado 882352" d="M10.916,40.665A8.407,8.407,0,0,1,9.879,40.6a9.655,9.655,0,0,1-5.2-2.431.833.833,0,0,1-.089-.08A11.675,11.675,0,0,1,3.4,36.832a16.637,16.637,0,0,1-3.394-8.7.84.84,0,0,1,.542-.883c1.293-.48,4.866-.646,10.116,1.734a10.18,10.18,0,0,1,1.921-.975c4.1-1.55,7.9.212,9.329.875.146.067.269.125.368.167a.84.84,0,0,1,.458,1.07c-2.945,7.81-7.856,10.544-11.824,10.544m-4.7-3.372a7.78,7.78,0,0,0,3.872,1.64c4.264.53,8.354-2.778,10.792-8.676-1.515-.688-4.514-1.882-7.7-.677-2.734,1.034-5.075,3.628-6.965,7.713m-4.44-8.6a14.467,14.467,0,0,0,3.158,7.382,19.188,19.188,0,0,1,4.21-5.917,15.683,15.683,0,0,0-7.368-1.465" transform="translate(-11976 -12049.326)" fill="#241f20"/>
  </g>
</svg>
