<svg id="Page-1" xmlns="http://www.w3.org/2000/svg" width="69.949" height="68.782" viewBox="0 0 69.949 68.782">
  <g id="_014---Planting-Seeds" data-name="014---Planting-Seeds" transform="translate(0 0)">
    <path id="Shape" d="M65.286,23.316H62.3a4.558,4.558,0,0,0,.653-2.332,4.663,4.663,0,0,0-4.663-4.663H35.756v-.595a4.663,4.663,0,0,1,2.716-4.3L43.9,8.9A4.663,4.663,0,0,0,41.97,0,4.757,4.757,0,0,0,40,.431l-16.9,7.881a18.571,18.571,0,0,0-6.657,5.678,8.079,8.079,0,0,1-4.78,3.288,2.332,2.332,0,0,0-2.332-2.122H2.332A2.332,2.332,0,0,0,0,17.487V40.8a2.332,2.332,0,0,0,2.332,2.332H9.327A2.332,2.332,0,0,0,11.542,41.5,56.3,56.3,0,0,0,23.5,46.073a4.069,4.069,0,1,0,7.974,1.166,4.664,4.664,0,0,0,0-.606H51.3a4.641,4.641,0,0,0,4.022-6.995h4.139a4.641,4.641,0,0,0,4.022-6.995h1.807a4.663,4.663,0,1,0,0-9.327ZM9.327,40.8H2.332V17.487H9.327ZM27.4,48.964a1.749,1.749,0,1,1,1.749-1.749A1.749,1.749,0,0,1,27.4,48.964ZM65.286,30.311H46.633a1.166,1.166,0,1,0,0,2.332H59.457a2.332,2.332,0,0,1,0,4.663H46.633a1.166,1.166,0,1,0,0,2.332H51.3a2.332,2.332,0,1,1,0,4.663H30.241a4.022,4.022,0,0,0-5.3-.315,54.572,54.572,0,0,1-13.279-5.048V19.656a10.306,10.306,0,0,0,6.692-4.383,16.252,16.252,0,0,1,5.724-4.78l16.9-7.881a2.4,2.4,0,0,1,3.1,1.166,2.332,2.332,0,0,1-1.166,3.1L37.528,9.327a7,7,0,0,0-4.1,6.517,9.105,9.105,0,0,1-.058,1.516,8.161,8.161,0,0,1-2.716,5.06,1.193,1.193,0,0,0,1.6,1.772,10.492,10.492,0,0,0,3.241-5.538h22.8a2.332,2.332,0,0,1,0,4.663H46.633a1.166,1.166,0,0,0,0,2.332H65.286a2.332,2.332,0,1,1,0,4.663Z" transform="translate(0 0)" fill="#af7142"/>
    <path id="Shape-2" data-name="Shape" d="M68.783,47H50.608a5.829,5.829,0,0,0-5.584,4.2,10.492,10.492,0,0,1-20.1,0A5.829,5.829,0,0,0,19.341,47H1.166a1.166,1.166,0,0,0,0,2.332H19.341A3.5,3.5,0,0,1,22.7,51.873a12.824,12.824,0,0,0,24.552,0,3.5,3.5,0,0,1,3.358-2.541H68.783a1.166,1.166,0,1,0,0-2.332Z" transform="translate(0 7.794)" fill="#af7142"/>
    <path id="Shape-3" data-name="Shape" d="M32.08,53.161A4.08,4.08,0,1,0,28,49.08,4.08,4.08,0,0,0,32.08,53.161Zm0-5.829a1.749,1.749,0,1,1-1.749,1.749A1.749,1.749,0,0,1,32.08,47.332Z" transform="translate(4.643 7.462)" fill="#af7142"/>
    <path id="Shape-4" data-name="Shape" d="M32.08,29a4.08,4.08,0,1,0,4.08,4.08A4.08,4.08,0,0,0,32.08,29Zm0,5.829a1.749,1.749,0,1,1,1.749-1.749A1.749,1.749,0,0,1,32.08,34.829Z" transform="translate(4.643 4.809)" fill="#af7142"/>
    <path id="Shape-5" data-name="Shape" d="M24.08,23a4.08,4.08,0,1,0,4.08,4.08A4.08,4.08,0,0,0,24.08,23Zm0,5.829a1.749,1.749,0,1,1,1.749-1.749,1.749,1.749,0,0,1-1.749,1.749Z" transform="translate(3.316 3.814)" fill="#af7142"/>
  </g>
</svg>
