<svg xmlns="http://www.w3.org/2000/svg" width="58" height="58" viewBox="0 0 58 58">
  <g id="Grupo_1104666" data-name="Grupo 1104666" transform="translate(-285 -1988.5)">
    <circle id="Elipse_11666" data-name="Elipse 11666" cx="29" cy="29" r="29" transform="translate(285 1988.5)" fill="#57d3fb"/>
    <g id="arboles" transform="translate(296.051 2000)">
      <path id="Trazado_886802" data-name="Trazado 886802" d="M34.487,33.975H30.352V26.96A5.575,5.575,0,0,0,35,21.219,5.594,5.594,0,0,0,30.479,15.5a4.8,4.8,0,0,0,.988-2.235.513.513,0,0,0-1.013-.162A3.8,3.8,0,0,1,28,16.059a.932.932,0,0,0-.6.7,3.135,3.135,0,0,1-1.6,2.258,3.011,3.011,0,0,1-2.362.037,3.129,3.129,0,0,1-1.319-1V15.834l2.24-2.24a.513.513,0,1,0-.725-.725l-1.515,1.515V10.989a.513.513,0,0,0-1.025,0V13.4l-1.515-1.515a.513.513,0,0,0-.725.725l2.24,2.24v3.2a3.138,3.138,0,0,1-1.318,1,3.011,3.011,0,0,1-2.363-.037,2.7,2.7,0,0,1-1.168-1.1,29.5,29.5,0,0,0-1.54-8.752,3.812,3.812,0,0,1,.41-.192,1.071,1.071,0,0,0,.676-1.124,2.276,2.276,0,0,1-.016-.271,2.252,2.252,0,0,1,1.713-2.191,1.089,1.089,0,0,0,.824-1.065,3.295,3.295,0,1,1,6.589.005,1.087,1.087,0,0,0,.824,1.06,2.257,2.257,0,0,1,1.7,2.46A1.073,1.073,0,0,0,28.1,8.97a3.811,3.811,0,0,1,2.123,2.1.513.513,0,0,0,.949-.387,4.841,4.841,0,0,0-2.7-2.663.05.05,0,0,1-.033-.048,3.281,3.281,0,0,0-2.469-3.579.068.068,0,0,1-.045-.07,4.32,4.32,0,1,0-8.64.005.066.066,0,0,1-.045.064,3.275,3.275,0,0,0-2.492,3.186,3.319,3.319,0,0,0,.024.394c.011.089-.316.162-.387.205-.128-.378-.259-.749-.4-1.11C11.794,1.226,9.59,0,8.128,0c-2.551,0-4.5,3.595-5.69,6.611a.513.513,0,1,0,.954.376C4.884,3.2,6.61,1.025,8.128,1.025c1.586,0,3.374,2.333,4.905,6.4a33.514,33.514,0,0,1,2.2,10.078c0,4.217-2.912,7.682-6.59,7.979V21.322h0v-1.96l2.14-2.14a.513.513,0,0,0-.725-.725L8.641,17.911V15.767a.513.513,0,1,0-1.025,0v3.381h0v.935L6.2,18.669a.513.513,0,0,0-.725.725l2.14,2.14v3.949c-3.678-.3-6.59-3.762-6.59-7.979A31.9,31.9,0,0,1,2.611,9.2a.513.513,0,1,0-.977-.31A32.471,32.471,0,0,0,0,17.5c0,4.785,3.372,8.712,7.615,9.007v7.464H.513A.513.513,0,1,0,.513,35H34.487a.513.513,0,0,0,0-1.025Zm-13.391,0H8.641V26.51a8.473,8.473,0,0,0,7.446-7.172,3.621,3.621,0,0,0,.886.6,4.089,4.089,0,0,0,4.124-.463Zm8.229,0h-7.2v-14.5a4.066,4.066,0,0,0,.941.528,4.344,4.344,0,0,0,1.562.3,4.654,4.654,0,0,1,.053.918,5.575,5.575,0,0,0,4.648,5.741Zm.513-13.11a.513.513,0,0,0-.513.513V24.2h0v1.729A4.574,4.574,0,0,1,25.7,21.219a5.4,5.4,0,0,1,.115-1.108A4.492,4.492,0,0,0,28.4,17a4.819,4.819,0,0,0,.977-.5c2.49-.321,4.595,1.94,4.595,4.714a4.574,4.574,0,0,1-3.623,4.706V24.409l1.621-1.621a.513.513,0,1,0-.725-.725l-.9.9V21.378A.513.513,0,0,0,29.839,20.865Z" fill="#2b697d"/>
    </g>
  </g>
</svg>
