<svg xmlns="http://www.w3.org/2000/svg" xmlns:xlink="http://www.w3.org/1999/xlink" width="20.089" height="20.089" viewBox="0 0 20.089 20.089">
  <defs>
    <clipPath id="clip-path">
      <path id="Trazado_874546" data-name="Trazado 874546" d="M0,0A20.089,20.089,0,0,1,20.089,20.089H0Z" transform="translate(20.089 20.089) rotate(180)" fill="#eff2d5"/>
    </clipPath>
  </defs>
  <g id="Enmascarar_grupo_1098787" data-name="Enmascarar grupo 1098787" clip-path="url(#clip-path)">
    <path id="Trazado_874544" data-name="Trazado 874544" d="M0,0A20.089,20.089,0,0,1,20.089,20.089H0Z" transform="translate(20.089 20.089) rotate(180)" fill="#b1bf34"/>
    <path id="Trazado_882476" data-name="Trazado 882476" d="M2.646,23.618a7.293,7.293,0,0,0,.882-1.737c.194-1.106.348-9.949-.785-11.557a3.9,3.9,0,0,1-.548-1.482,14.134,14.134,0,0,0-.134,3.835c.209,2.564-.252,5.354.464,8.675a7.869,7.869,0,0,1,.121,2.267ZM57.4,7.564a9.671,9.671,0,0,0,1.716,3.178s.509.858.254,1.4c0,0,.127.954-.508,1.176a4.732,4.732,0,0,1-2.862.1,11.041,11.041,0,0,0-2.953-.381,3.817,3.817,0,0,0-1.173.055c-.088.016-.442.057-.489.077a7.389,7.389,0,0,0-.887.387,5.931,5.931,0,0,0-1.49,1.132,11.688,11.688,0,0,0-1.174,1.938,15.959,15.959,0,0,1-3.007,3.862c-1.679,1.429-1.974,2.354-2.688,2.942s-1.221,1.05-1.221,1.05-.134,6.206-.173,7.532a6.589,6.589,0,0,0,.038,1.51c.034.519-.016,1.01.026,1.525.05.648-.144.757.2,1.452.046.091.094.182.142.273a9.485,9.485,0,0,0,.6,1.021,4.507,4.507,0,0,1,.642,1.1.522.522,0,0,1-.062.2c-.459-.021-.917-.049-1.376-.038-.16,0-1.254.024-1.318-.106,0,0-.125-.733-.144-.822-.038-.19-.074-.381-.114-.57l-.014-.059-.012-.058-.668-1.056c-.3-.478.042-1.111.03-1.679s.052.079.064-.488c.008-.513.018-1.028.018-1.541a14.833,14.833,0,0,1,.056-1.89,7.245,7.245,0,0,0-.778,3.113c.112,1.349.251,1.579.321,2.941.006.107-.026-.147.012.322a8.693,8.693,0,0,0,.754,1.705c.056.139.11.281.164.421a5.3,5.3,0,0,1-1.44.084,4.87,4.87,0,0,0-.533.011c-.443.035-.644.021-.872-.4a1.8,1.8,0,0,1-.134-.833c-.351.439-.168-.235-.485-.518-.162-.146-.221-.029-.123-.385s.246-5.658.19-6.316a12.445,12.445,0,0,0-.387-1.792,16.765,16.765,0,0,1-.291-1.859,6.971,6.971,0,0,1,.078-1.078,17.076,17.076,0,0,0-.022-1.922A2.948,2.948,0,0,0,34.3,22.529a3.759,3.759,0,0,0-2.953-.2C24.64,23.673,18.77,24.4,13.216,20.709c-.522-.347-.351-.329-.72.211-1.125,1.653-1.249,1.159-1.879,3.006-.329.969-.626,2.024-.932,3.013-.123.4-.225.787-.333,1.187-.074.271-.136.539-.192.813,0,0-.183,3.236-.215,4.3a6.459,6.459,0,0,0,.7,2.686c.2.489.435.951.632,1.447a4.675,4.675,0,0,0,.93,1.505.843.843,0,0,1,.188.672c-.071.314-.706.233-.947.214-.222-.018-.423-.038-.644-.038a2.626,2.626,0,0,1-1-.073,2.339,2.339,0,0,1-.417-.468c-.028-.034-.058-.067-.086-.1l-.119-.133-.04-.044s-.839-.253-.882-.715S6.317,28.3,6.023,27.879a55.351,55.351,0,0,0-.714,5.758c-.044,1.892-.144,3.45.335,4.406s.49,1,.754,1.469c.1.179.427.69.032.727-.132.012-.335.009-.483.017a9.715,9.715,0,0,1-1.223.012l-.066,0c-.114-.008-.678-.024-.742-.051-.1-.041-.125-.171-.149-.262-.173-.636.369-1.073-.407-1.462-.11-.055-.22-.091-.329-.147-.2-.1-.192-.346-.3-.545-.267-.494-.194-.246-.181-.829,0-.182,0-.364.01-.546a64.222,64.222,0,0,0-.03-6.473,13.756,13.756,0,0,0-.411-3.031c-.04-.118-.071-.234-.1-.349-.235.676-.5,1.237-.676,1.946-.026.1-.192.709-.363.66C.831,29.13.709,28.759.69,28.61c-.04-.275-.034-.564-.074-.858C.6,27.635.58,27.52.56,27.4.476,26.919.4,26.441.288,25.963A8.437,8.437,0,0,1,0,23.662c.084-2.27,1.322-3.914,1.195-5.567s-.6-8.646.07-11.919a3.1,3.1,0,0,1,1.3-2.2,6.994,6.994,0,0,1,3.885-1.2c2.9-.084,8.7-.21,10.844-.084s20.385.049,21.308.092,5.212.378,5.8.42a36.053,36.053,0,0,0,3.825-.63,3.747,3.747,0,0,1-.375-1.416c.012-.11.062-.354.181-.394A2.461,2.461,0,0,1,49.865,1S49.671.857,49.7,0c0,0,.8,1.022,1.354,1.022s.8-.442,2.211-.414a12.277,12.277,0,0,1,1.8.133,4.375,4.375,0,0,0,.949-.422c.213-.15.281-.27.265.143a2.047,2.047,0,0,1-.461,1.3c-.078.061-.056.021.036.179l.144.24a5.825,5.825,0,0,1,4.219-1.048c.111.018.623.117.638.242a3.121,3.121,0,0,1-.1.629A5.145,5.145,0,0,1,59.935,3.5a3.472,3.472,0,0,1-.644.533,2.4,2.4,0,0,1-.38.2c-.066.027-.133.052-.2.077a7.673,7.673,0,0,0-.915.364c-.184.093-.2.069-.239.244a7.09,7.09,0,0,0-.155,2.65Z" transform="translate(-43.644 2.039)" fill="#b1bf34" fill-rule="evenodd" opacity="0.29" style="mix-blend-mode: multiply;isolation: isolate"/>
  </g>
</svg>
