<svg xmlns="http://www.w3.org/2000/svg" width="58" height="58" viewBox="0 0 58 58">
  <g id="Grupo_1104672" data-name="Grupo 1104672" transform="translate(-285 -3589.974)">
    <circle id="Elipse_11765" data-name="Elipse 11765" cx="29" cy="29" r="29" transform="translate(285 3589.974)" fill="#af7142"/>
    <g id="camion" transform="translate(296.867 3601.841)">
      <path id="Trazado_887957" data-name="Trazado 887957" d="M33.58,12.336H30.839V1.371A1.372,1.372,0,0,0,29.468,0H4.8A1.372,1.372,0,0,0,3.427,1.371V12.336H.685A.685.685,0,0,0,0,13.021V18.5a.685.685,0,0,0,.685.685H3.427v6.168a.681.681,0,0,0,.207.489,2.031,2.031,0,0,0-.207.882V28.1a2.058,2.058,0,0,0,2.056,2.056V32.21a2.058,2.058,0,0,0,2.056,2.056H10.28a2.058,2.058,0,0,0,2.056-2.056V30.154H21.93V32.21a2.058,2.058,0,0,0,2.056,2.056h2.741a2.058,2.058,0,0,0,2.056-2.056V30.154A2.058,2.058,0,0,0,30.839,28.1V26.727a2.035,2.035,0,0,0-.206-.882.682.682,0,0,0,.206-.489V19.189H33.58a.685.685,0,0,0,.685-.685V13.021A.685.685,0,0,0,33.58,12.336Zm-4.8,12.336v-4.43l.685-.457v4.887Zm-19.189,0V22.615a.685.685,0,0,0-.2-.485L8.023,20.76a.685.685,0,0,0-.485-.2H6.853V8.909A2.058,2.058,0,0,1,8.909,6.853H25.357a2.058,2.058,0,0,1,2.056,2.056v11.65h-.685a.685.685,0,0,0-.485.2l-1.371,1.371a.685.685,0,0,0-.2.485v2.056Zm-4.8,0V19.784l.685.457v4.43ZM6.853,21.93h.4l.969.969v1.772H6.853Zm19.189.969.969-.969h.4v2.741H26.042ZM4.8,1.371H29.468V18.137l-.685.457V8.909a3.431,3.431,0,0,0-3.427-3.427H8.909A3.431,3.431,0,0,0,5.482,8.909v9.684L4.8,18.137ZM1.371,17.818V13.706H3.427v4.112ZM10.965,32.21a.686.686,0,0,1-.685.685H7.538a.686.686,0,0,1-.685-.685V30.154h4.112Zm16.447,0a.686.686,0,0,1-.685.685H23.986a.686.686,0,0,1-.685-.685V30.154h4.112ZM29.468,28.1a.686.686,0,0,1-.685.685H5.482A.686.686,0,0,1,4.8,28.1V26.727a.686.686,0,0,1,.685-.685h23.3a.686.686,0,0,1,.685.685Zm3.427-10.28H30.839V13.706h2.056Zm0,0" fill="#563820"/>
      <path id="Trazado_887958" data-name="Trazado 887958" d="M91.865,106.965H103.32a.686.686,0,0,0,.271-.056l3.182-1.371a.686.686,0,0,0,.414-.629V97.371A1.348,1.348,0,0,0,105.865,96H89.32A1.348,1.348,0,0,0,88,97.371v7.538a.686.686,0,0,0,.414.629l3.182,1.371a.686.686,0,0,0,.271.056ZM89.32,97.371h16.5v7.087l-2.638,1.136h-2.1l.392-.685h1.952a.685.685,0,1,0,0-1.371H99.306a.685.685,0,0,0,0,1.371h.581l-.392.685H94.221l.392-.685h1.952a.685.685,0,0,0,0-1.371H92.453a.685.685,0,1,0,0,1.371h.581l-.392.685h-.636l-2.641-1.138Zm0,0" transform="translate(-80.46 -87.776)" fill="#563820"/>
      <path id="Trazado_887959" data-name="Trazado 887959" d="M139.427,312h-2.741a.685.685,0,0,0,0,1.371h2.741a.685.685,0,1,0,0-1.371Zm0,0" transform="translate(-124.35 -285.273)" fill="#563820"/>
      <path id="Trazado_887960" data-name="Trazado 887960" d="M219.427,312h-2.741a.685.685,0,0,0,0,1.371h2.741a.685.685,0,1,0,0-1.371Zm0,0" transform="translate(-197.497 -285.273)" fill="#563820"/>
      <path id="Trazado_887961" data-name="Trazado 887961" d="M139.65,264H128.685a.685.685,0,0,0,0,1.371H139.65a.685.685,0,1,0,0-1.371Zm0,0" transform="translate(-117.035 -241.385)" fill="#563820"/>
      <path id="Trazado_887962" data-name="Trazado 887962" d="M139.65,240H128.685a.685.685,0,0,0,0,1.371H139.65a.685.685,0,1,0,0-1.371Zm0,0" transform="translate(-117.035 -219.441)" fill="#563820"/>
    </g>
  </g>
</svg>
