<svg xmlns="http://www.w3.org/2000/svg" width="58" height="58" viewBox="0 0 58 58">
  <g id="Grupo_1104668" data-name="Grupo 1104668" transform="translate(-390 -3255.974)">
    <circle id="Elipse_11765" data-name="Elipse 11765" cx="29" cy="29" r="29" transform="translate(390 3255.974)" fill="#b1bf34"/>
    <g id="salchicha" transform="translate(400.25 3266.224)">
      <path id="Trazado_887949" data-name="Trazado 887949" d="M8.491,4.429,9.548,1.785A.573.573,0,0,0,8.8,1.041L6.153,2.1,3.5,1.041a.573.573,0,0,0-.745.744L3.816,4.429A5.155,5.155,0,0,0,1,9.016V28.484a5.155,5.155,0,0,0,2.816,4.587L2.758,35.715a.573.573,0,0,0,.745.744l2.65-1.06,2.65,1.06a.573.573,0,0,0,.745-.744L8.491,33.071a5.155,5.155,0,0,0,2.816-4.587V9.016A5.155,5.155,0,0,0,8.491,4.429ZM4.318,2.6,5.94,3.25a.569.569,0,0,0,.425,0L7.988,2.6l-.57,1.426a4.964,4.964,0,0,0-2.529,0Zm3.67,32.3L6.366,34.25a.569.569,0,0,0-.425,0L4.319,34.9l.57-1.426a4.964,4.964,0,0,0,2.529,0Zm2.173-8.134H5.581V10.734h4.581Zm0-17.177H5.008a.572.572,0,0,0-.573.573V27.339a.572.572,0,0,0,.573.573h5.153v.573a4.008,4.008,0,1,1-8.016,0V9.016a4.008,4.008,0,1,1,8.016,0Z" transform="translate(0 0)" fill="#575f19"/>
      <path id="Trazado_887950" data-name="Trazado 887950" d="M28.043,4.8l1.485-2.971a.573.573,0,0,0-.725-.788L26.153,2.1,23.5,1.041a.573.573,0,0,0-.725.788L24.264,4.8A5.158,5.158,0,0,0,21,9.589v4.581a5.154,5.154,0,0,0,2.8,4.581A5.154,5.154,0,0,0,21,23.331v4.581a5.158,5.158,0,0,0,3.263,4.79l-1.485,2.971a.573.573,0,0,0,.725.788l2.65-1.06,2.65,1.06a.573.573,0,0,0,.725-.788L28.043,32.7a5.158,5.158,0,0,0,3.263-4.79V23.331a5.154,5.154,0,0,0-2.8-4.581,5.154,5.154,0,0,0,2.8-4.581V9.589A5.158,5.158,0,0,0,28.043,4.8ZM24.476,2.663l1.465.586a.569.569,0,0,0,.425,0l1.465-.586L26.914,4.5a4.66,4.66,0,0,0-1.52,0ZM27.83,34.837l-1.465-.586a.569.569,0,0,0-.425,0l-1.465.586L25.393,33a4.66,4.66,0,0,0,1.52,0Zm2.331-11.506v4.581a4.008,4.008,0,1,1-8.016,0V23.331a4.008,4.008,0,1,1,8.016,0Zm0-9.161a4.008,4.008,0,0,1-8.016,0V9.589a4.008,4.008,0,0,1,8.016,0Z" transform="translate(-8.548 0)" fill="#575f19"/>
      <path id="Trazado_887951" data-name="Trazado 887951" d="M45.588,4.456l.554-2.771a.572.572,0,0,0-.879-.589l-1.4.933-1.4-.933a.572.572,0,0,0-.879.589l.554,2.771A2.85,2.85,0,0,0,41,6.726V30.774a2.851,2.851,0,0,0,1.138,2.27l-.554,2.771a.572.572,0,0,0,.879.589l1.4-.933,1.4.933a.573.573,0,0,0,.879-.589l-.554-2.771a2.851,2.851,0,0,0,1.138-2.27V6.726A2.851,2.851,0,0,0,45.588,4.456ZM43.863,32.492a1.72,1.72,0,0,1-1.718-1.718V21.04h3.435v9.734A1.72,1.72,0,0,1,43.863,32.492ZM42.145,19.9V17.6h3.435V19.9Zm0-3.435V6.726a1.718,1.718,0,0,1,3.435,0V16.46Zm.833-13.644.567.378a.57.57,0,0,0,.635,0l.567-.378-.226,1.131a2.62,2.62,0,0,0-1.318,0Zm1.77,31.869-.567-.378a.57.57,0,0,0-.635,0l-.567.378.226-1.131a2.62,2.62,0,0,0,1.318,0Z" transform="translate(-17.097 0)" fill="#575f19"/>
      <path id="Trazado_887952" data-name="Trazado 887952" d="M58.726,30.774V6.726a2.851,2.851,0,0,0-1.138-2.27l.554-2.771a.572.572,0,0,0-.879-.589l-1.4.933-1.4-.933a.572.572,0,0,0-.879.589l.554,2.771A2.85,2.85,0,0,0,53,6.726V30.774a2.851,2.851,0,0,0,1.138,2.27l-.554,2.771a.572.572,0,0,0,.879.589l1.4-.933,1.4.933a.573.573,0,0,0,.879-.589l-.554-2.771A2.851,2.851,0,0,0,58.726,30.774Zm-2.863,1.718a1.72,1.72,0,0,1-1.718-1.718V21.04h3.435v9.734A1.72,1.72,0,0,1,55.863,32.492Zm0-27.484a1.72,1.72,0,0,1,1.718,1.718V16.46H54.145V6.726A1.72,1.72,0,0,1,55.863,5.008Zm1.718,12.6V19.9H54.145V17.6Zm-2.6-14.789.567.378a.57.57,0,0,0,.635,0l.567-.378-.226,1.131a2.62,2.62,0,0,0-1.318,0Zm1.77,31.869-.567-.378a.57.57,0,0,0-.635,0l-.567.378.226-1.131a2.62,2.62,0,0,0,1.318,0Z" transform="translate(-22.226 0)" fill="#575f19"/>
      <path id="Trazado_887953" data-name="Trazado 887953" d="M30,25.718v1.145A2.866,2.866,0,0,0,32.863,24H31.718A1.72,1.72,0,0,1,30,25.718Z" transform="translate(-12.395 -9.831)" fill="#575f19"/>
      <path id="Trazado_887954" data-name="Trazado 887954" d="M32.863,48H31.718A1.72,1.72,0,0,1,30,49.718v1.145A2.866,2.866,0,0,0,32.863,48Z" transform="translate(-12.395 -20.089)" fill="#575f19"/>
    </g>
  </g>
</svg>
