<svg xmlns="http://www.w3.org/2000/svg" width="55.384" height="46.589" viewBox="0 0 55.384 46.589">
  <g id="cesped_1_" data-name="cesped (1)" transform="translate(0 -40.654)">
    <g id="Grupo_1102461" data-name="Grupo 1102461" transform="translate(0 40.654)">
      <g id="Grupo_1102460" data-name="Grupo 1102460" transform="translate(0 0)">
        <path id="Trazado_882875" data-name="Trazado 882875" d="M54.306,85.079H46.164a12.343,12.343,0,0,1,.639-3.32c.855-2.658,2.984-6.954,8.274-12.329a1.082,1.082,0,0,0-.938-1.827A22.505,22.505,0,0,0,46.5,70.618a18.7,18.7,0,0,0-7.359,8.371c.115-.408.242-.83.387-1.27,1.6-4.86,5.521-12.7,15.11-22.441A1.082,1.082,0,0,0,53.7,53.45,35.319,35.319,0,0,0,33.133,64.507c-.558-6.894-1.164-12.34-1.8-16.213A35.489,35.489,0,0,0,30.17,43.12c-.248-.738-.83-2.466-2.2-2.466-1.27,0-1.879,1.413-2.307,2.8a44.225,44.225,0,0,0-1.239,6.024C23.738,54,23.1,60.324,22.514,68.306a31.557,31.557,0,0,0-8.343-7.45A36.728,36.728,0,0,0,1.7,55.927a1.082,1.082,0,0,0-.938,1.827,64.376,64.376,0,0,1,11.914,15.9A19.9,19.9,0,0,0,8.9,70.618,22.5,22.5,0,0,0,1.254,67.6,1.082,1.082,0,0,0,.315,69.43C5.5,74.7,7.641,78.932,8.521,81.551a12.571,12.571,0,0,1,.7,3.528H4.283a1.082,1.082,0,0,0,0,2.163H54.306a1.082,1.082,0,0,0,0-2.163ZM26.39,50.982a37.176,37.176,0,0,1,1.579-7.6,32.24,32.24,0,0,1,1.4,6.37c.632,4.159,1.231,9.925,1.781,17.14A32.969,32.969,0,0,0,26.512,75.3a29.315,29.315,0,0,0-2.033-4.113C25.059,62.688,25.7,55.89,26.39,50.982Zm-15,34.1c-.062-2.257-.982-7.326-6.866-14.259a20.916,20.916,0,0,1,3.229,1.634,16.273,16.273,0,0,1,7.879,12.625Zm6.6,0a22.029,22.029,0,0,0-1.2-7.143C14.842,71.892,10.843,65.521,4.88,58.963a36.288,36.288,0,0,1,8.212,3.771,28.553,28.553,0,0,1,9.277,9.112,1.083,1.083,0,0,0,.192.318,27.592,27.592,0,0,1,2.923,6.8,1.079,1.079,0,0,0,.06.209A32.727,32.727,0,0,1,26.5,84.3q.043.394.08.784Zm18.106,0H34.086a28.254,28.254,0,0,1,3.036-12.5,1.082,1.082,0,0,0-1.962-.912,30.426,30.426,0,0,0-3.238,13.417H28.757c-.031-.336-.066-.676-.1-1.017a34.561,34.561,0,0,0-.985-5.289A32.534,32.534,0,0,1,50.68,56.3,76.516,76.516,0,0,0,42.322,67.05,45.387,45.387,0,0,0,37.4,77.267,23.621,23.621,0,0,0,36.1,85.079Zm3.664,0A16.271,16.271,0,0,1,47.575,72.5a20.83,20.83,0,0,1,3.291-1.671c-5.882,6.931-6.8,12-6.863,14.255Z" transform="translate(-0.004 -40.654)" fill="#af7142"/>
        <path id="Trazado_882876" data-name="Trazado 882876" d="M341.6,291.54a1.082,1.082,0,0,0-1.824-1.162,1.957,1.957,0,0,0-.119.211,1.082,1.082,0,0,0,1.943.951Z" transform="translate(-302.819 -262.932)" fill="#af7142"/>
        <path id="Trazado_882877" data-name="Trazado 882877" d="M1.133,451.345H1.082a1.082,1.082,0,0,0,0,2.163h.051a1.082,1.082,0,0,0,0-2.163Z" transform="translate(0 -406.92)" fill="#af7142"/>
      </g>
    </g>
  </g>
</svg>
