<svg xmlns="http://www.w3.org/2000/svg" width="58" height="58" viewBox="0 0 58 58">
  <g id="Grupo_1104667" data-name="Grupo 1104667" transform="translate(-285 -1281.632)">
    <circle id="Elipse_11666" data-name="Elipse 11666" cx="29" cy="29" r="29" transform="translate(285 1281.632)" fill="#57d3fb"/>
    <g id="heno_1_" data-name="heno (1)" transform="translate(294.641 1243.56)">
      <path id="Trazado_886803" data-name="Trazado 886803" d="M164.858,125.726a3.636,3.636,0,0,0,.062-.666,3.594,3.594,0,0,0-5.294-3.163l.059-.353a.567.567,0,0,0-1.119-.188l-.31,1.843a3.572,3.572,0,0,0-.518,1.862,3.652,3.652,0,0,0,1.112,2.6l-.234.053a.567.567,0,0,0,.126,1.12.573.573,0,0,0,.127-.014l1.41-.322a3.6,3.6,0,0,0,3.693-1.005l.032.213a.567.567,0,0,0,.56.484.576.576,0,0,0,.084-.006.567.567,0,0,0,.478-.644Zm-3.528,1.79a2.512,2.512,0,0,1-2.456-2.456,2.456,2.456,0,1,1,4.912,0A2.544,2.544,0,0,1,161.33,127.517Z" transform="translate(-145.811 -67.666)" fill="#2b697d"/>
      <path id="Trazado_886804" data-name="Trazado 886804" d="M254.783,318.717a2.424,2.424,0,0,1,1,.606,2.456,2.456,0,0,1-1.738,4.194,2.543,2.543,0,0,1-1.738-.718,2.46,2.46,0,0,1-.582-2.55,2.511,2.511,0,0,1,.907-1.2.567.567,0,0,0-.652-.928,3.983,3.983,0,0,0-.534.461l-.053-.234a.567.567,0,0,0-1.106.252l.323,1.414a3.641,3.641,0,0,0,1,3.69l-.213.032a.567.567,0,1,0,.166,1.122l1.812-.269a3.639,3.639,0,0,0,.666.062,3.59,3.59,0,0,0,3.162-5.294l.355.06a.567.567,0,1,0,.188-1.119l-1.845-.31a3.577,3.577,0,0,0-.782-.353.567.567,0,0,0-.339,1.083Z" transform="translate(-231.346 -249.515)" fill="#2b697d"/>
      <path id="Trazado_886805" data-name="Trazado 886805" d="M55.973,325.057a.567.567,0,0,0,.782-.178l.772-1.228a3.591,3.591,0,0,0,1.69-4.387l1.027-.207a.567.567,0,1,0-.224-1.112l-1.389.28A3.584,3.584,0,0,0,56.72,317a.567.567,0,0,0-.279,1.1,2.454,2.454,0,0,1,1.445,1.025,2.6,2.6,0,0,1,.409,1.358A2.461,2.461,0,0,1,56.9,322.7l-.005,0a2.443,2.443,0,0,1-1.06.241,2.456,2.456,0,0,1-1.5-4.4.567.567,0,1,0-.7-.9,3.578,3.578,0,0,0-1.241,1.8l-.208-.292a.567.567,0,1,0-.924.658l1.085,1.524a3.623,3.623,0,0,0,3.572,2.732l-.128.2A.567.567,0,0,0,55.973,325.057Z" transform="translate(-47.29 -248.937)" fill="#2b697d"/>
      <path id="Trazado_886806" data-name="Trazado 886806" d="M38.664,74.326a.567.567,0,0,0-.755-.271l-.449.212a7.563,7.563,0,0,0,.433-1.708.567.567,0,1,0-1.124-.149,6.522,6.522,0,0,1-6.451,5.643H26.705a7.644,7.644,0,0,0,0-13.016h3.613a6.511,6.511,0,0,1,6.318,4.941.567.567,0,1,0,1.1-.272,7.618,7.618,0,0,0-1.661-3.193l.712-1.062a.567.567,0,1,0-.942-.632l-.264.394-.375-1.431a.567.567,0,1,0-1.1.287l.26.991A7.637,7.637,0,0,0,30.318,63.9H27.141a7.678,7.678,0,0,0,3.3-4.244l1.395-1.127a.567.567,0,0,0-.713-.882l-.359.29c.013-.18.02-.362.02-.545a7.651,7.651,0,0,0-7.642-7.642H22.093v-1.5a.567.567,0,1,0-1.134,0v.8l-.187-.167a.567.567,0,0,0-.8.046.613.613,0,0,0,.067.82c-.135,0-4.587,0-4.587,0a7.628,7.628,0,0,0-7.533,6.882l-.439-.58a.567.567,0,1,0-.9.684l1.4,1.85A7.635,7.635,0,0,0,11.512,63.9H8.547A7.619,7.619,0,0,0,3.093,66.2l.068-.674a.567.567,0,1,0-1.129-.114L1.872,67,1.224,66.4a.567.567,0,1,0-.766.837l1.167,1.068a7.632,7.632,0,0,0,0,6.482l-.88-.3a.567.567,0,0,0-.364,1.074l2.19.742a7.632,7.632,0,0,0,5.971,2.879H30.32a7.661,7.661,0,0,0,6.242-3.244l1.83-.863a.567.567,0,0,0,.271-.755ZM27.3,76.147a6.505,6.505,0,1,1,0-9.2A6.515,6.515,0,0,1,27.3,76.147Zm-4.463-20.96a.567.567,0,1,0-1.086.327,6.511,6.511,0,1,1-1.63-2.721,6.6,6.6,0,0,1,.5.554.567.567,0,0,0,.887-.707,7.775,7.775,0,0,0-.58-.65,7.64,7.64,0,0,0-1.4-1.1h3.613a6.508,6.508,0,0,1,0,13.016H19.526a7.647,7.647,0,0,0,3.311-8.716Zm-4.147,9.85a7.647,7.647,0,0,0-3.068,3.62,7.688,7.688,0,0,0-3.073-3.62ZM2.039,71.545a6.508,6.508,0,1,1,6.508,6.508,6.515,6.515,0,0,1-6.508-6.508Zm13.583,2.888a7.648,7.648,0,0,0,3.068,3.62H12.549a7.689,7.689,0,0,0,3.073-3.62Z" transform="translate(0)" fill="#2b697d"/>
    </g>
  </g>
</svg>
