<svg id="vaca_2_" data-name="vaca (2)" xmlns="http://www.w3.org/2000/svg" width="142" height="99.941" viewBox="0 0 142 99.941">
  <g id="Grupo_1103873" data-name="Grupo 1103873" transform="translate(0 0)">
    <path id="Trazado_887907" data-name="Trazado 887907" d="M137.457,134.88V121.485A22.664,22.664,0,0,0,117.121,98.9L93.237,96.379A17.476,17.476,0,0,0,82.943,89.86V80.995a5.173,5.173,0,0,0-9.608-2.662l-4.05,6.751a16.2,16.2,0,0,0-2.242-.175,15.836,15.836,0,0,0-2.242.177l-4.05-6.748a5.171,5.171,0,0,0-9.608,2.657V89.86a17.5,17.5,0,0,0-6.814,3.064V90.08a5.173,5.173,0,0,0-9.608-2.662l-4.05,6.751a16.206,16.206,0,0,0-2.242-.175,15.837,15.837,0,0,0-2.242.177l-4.052-6.751a5.171,5.171,0,0,0-9.606,2.66v8.865a17.51,17.51,0,0,0-10.976,7.416L0,108.692,12.529,113.7v4.25a8.366,8.366,0,0,0-2.271,5.57c0,6.019,7.132,10.8,16.518,11.307l1.531,4.593H14.8a4.547,4.547,0,0,0-4.543-4.543H5.715a4.547,4.547,0,0,0-4.543,4.543v31.8a4.547,4.547,0,0,0,4.543,4.543h4.543a4.547,4.547,0,0,0,4.543-4.543H64.772a4.547,4.547,0,0,0,4.543,4.543h4.543a4.547,4.547,0,0,0,4.543-4.543h49.971a4.547,4.547,0,0,0,4.543,4.543h4.543A4.547,4.547,0,0,0,142,171.222v-31.8a4.549,4.549,0,0,0-4.543-4.543Zm-7.2-22.873a7.2,7.2,0,0,1-1.281.159,11.724,11.724,0,0,0-6.53,1.978l-2.839,1.892a4.018,4.018,0,0,1-6.122-2.367l-.211-.843a8.777,8.777,0,0,0-5.763-6.221,4.255,4.255,0,0,1-2.794-3.014l-.368-1.472,12.3,1.295a18.122,18.122,0,0,1,13.611,8.593ZM82.888,99.745a15.739,15.739,0,0,0-1.4-5.542,12.974,12.974,0,0,1,6.8,3.382Zm-5.872,26.341a11.771,11.771,0,0,0,14.857-1.472l.459-.459a2.191,2.191,0,0,1,1.533-.634H94.4a2.167,2.167,0,0,1,1.2,3.97,24.206,24.206,0,0,0-8.209,9.3l-1.315,2.63H78.4a4.547,4.547,0,0,0-4.543-4.543h-.636l-3.085-9.256a26.559,26.559,0,0,0,4.791-.931ZM78.4,153.051h49.971v4.543H78.4Zm0-4.543v-4.543h49.971v4.543Zm-13.629-9.086H60.6a6.687,6.687,0,0,0-4.809-11.357h-.536a6.666,6.666,0,0,0-4.745,1.965l-.459.459a7.358,7.358,0,0,1-8.738,1.113c3.282-2.044,5.288-4.888,5.288-8.079a8.366,8.366,0,0,0-2.271-5.57V113.7l5.088-2.035a7.626,7.626,0,0,0-.545,2.769c0,6.019,7.132,10.8,16.518,11.307l3.073,9.222a4.546,4.546,0,0,0-3.691,4.457Zm-20.5-30.591a15.74,15.74,0,0,0-1.4-5.542,12.974,12.974,0,0,1,6.8,3.382Zm22.768,12.42c-8.032,0-13.628-3.591-13.628-6.814s5.6-6.814,13.628-6.814,13.628,3.591,13.628,6.814-5.6,6.814-13.628,6.814ZM77.23,80.67a.655.655,0,0,1,1.17.325v8.456h-.252a15.985,15.985,0,0,0-4.37-3.026Zm1.17,20.138v4.711a25.859,25.859,0,0,0-11.357-2.44,25.86,25.86,0,0,0-11.357,2.44v-4.711a11.357,11.357,0,0,1,22.714,0ZM56.853,80.672l3.453,5.756a15.959,15.959,0,0,0-4.37,3.023h-.252V80.995A.653.653,0,0,1,56.853,80.672ZM52.6,94.205a15.789,15.789,0,0,0-1.4,5.542L45.8,97.59A12.93,12.93,0,0,1,52.6,94.205Zm-13.98-4.45a.655.655,0,0,1,1.17.325v7.768l-.379.57a15.975,15.975,0,0,0-4.241-2.907Zm1.17,20.138V114.6a25.859,25.859,0,0,0-11.357-2.44,25.86,25.86,0,0,0-11.357,2.44v-4.711a11.357,11.357,0,0,1,22.714,0ZM18.239,89.758l3.453,5.756a15.959,15.959,0,0,0-4.37,3.023h-.25V90.08A.651.651,0,0,1,18.239,89.758Zm-4.257,13.533a15.789,15.789,0,0,0-1.4,5.542l-5.395-2.158A12.926,12.926,0,0,1,13.983,103.291Zm.818,20.231c0-3.223,5.6-6.814,13.628-6.814s13.628,3.591,13.628,6.814-5.6,6.814-13.628,6.814S14.8,126.746,14.8,123.522Zm16.722,11.187a26.56,26.56,0,0,0,4.791-.931l2.09,1.39A11.761,11.761,0,0,0,53.26,133.7l.459-.459a2.191,2.191,0,0,1,1.533-.634h.536a2.167,2.167,0,0,1,1.2,3.97,24.1,24.1,0,0,0-3.453,2.844H33.09Zm33.249,9.256v4.543H14.8v-4.543Zm0,9.086v4.543H14.8v-4.543ZM5.715,171.222v-31.8h4.543l0,31.8Zm9.085-4.543v-4.543H64.772v4.543Zm54.514,4.543v-31.8h4.543l0,31.8Zm9.086-4.543v-4.543h49.971v4.543Zm49.971-27.257H91.161l.3-.6a19.657,19.657,0,0,1,6.666-7.55A6.71,6.71,0,0,0,94.4,118.979h-.536a6.666,6.666,0,0,0-4.745,1.965l-.459.459a7.365,7.365,0,0,1-8.738,1.115c3.282-2.044,5.29-4.888,5.29-8.082a8.366,8.366,0,0,0-2.271-5.57v-4.25l9.406-3.764,7.193.756.768,3.08a8.777,8.777,0,0,0,5.763,6.221,4.247,4.247,0,0,1,2.791,3.012l.211.843a8.559,8.559,0,0,0,13.051,5.047l2.837-1.892a7.209,7.209,0,0,1,4.009-1.213,11.779,11.779,0,0,0,3.171-.452,18.241,18.241,0,0,1,.768,5.227v13.4A4.548,4.548,0,0,0,128.371,139.422Zm4.543,31.8v-31.8h4.543l0,31.8Z" transform="translate(0 -75.823)" fill="#57d3fb"/>
    <ellipse id="Elipse_11776" data-name="Elipse 11776" cx="2.271" cy="2.271" rx="2.271" ry="2.271" transform="translate(57.957 20.442)" fill="#57d3fb"/>
    <ellipse id="Elipse_11777" data-name="Elipse 11777" cx="2.271" cy="2.271" rx="2.271" ry="2.271" transform="translate(60.229 36.342)" fill="#57d3fb"/>
    <ellipse id="Elipse_11778" data-name="Elipse 11778" cx="2.271" cy="2.271" rx="2.271" ry="2.271" transform="matrix(0.16, -0.987, 0.987, 0.16, 68.962, 40.487)" fill="#57d3fb"/>
    <ellipse id="Elipse_11779" data-name="Elipse 11779" cx="2.271" cy="2.271" rx="2.271" ry="2.271" transform="translate(71.586 20.442)" fill="#57d3fb"/>
    <ellipse id="Elipse_11780" data-name="Elipse 11780" cx="2.271" cy="2.271" rx="2.271" ry="2.271" transform="translate(19.343 29.528)" fill="#57d3fb"/>
    <ellipse id="Elipse_11781" data-name="Elipse 11781" cx="2.271" cy="2.271" rx="2.271" ry="2.271" transform="translate(21.615 45.428)" fill="#57d3fb"/>
    <ellipse id="Elipse_11782" data-name="Elipse 11782" cx="2.271" cy="2.271" rx="2.271" ry="2.271" transform="translate(30.701 45.428)" fill="#57d3fb"/>
    <ellipse id="Elipse_11783" data-name="Elipse 11783" cx="2.271" cy="2.271" rx="2.271" ry="2.271" transform="translate(32.972 29.528)" fill="#57d3fb"/>
  </g>
</svg>
