<svg id="Planting" xmlns="http://www.w3.org/2000/svg" width="72.796" height="72.782" viewBox="0 0 72.796 72.782">
  <g id="Outline" transform="translate(0 0)">
    <path id="Trazado_886814" data-name="Trazado 886814" d="M263.944,205.394l-4.825-4.825a1.137,1.137,0,0,0-1.608,0c-11.006,11.038-10.624,10.55-11.292,11.389A1.137,1.137,0,0,0,248,213.376c.546-.685.255-.306,10.318-10.395L262.336,207l-2.38,2.38a1.139,1.139,0,0,0,.8,1.941c.85,0,.426-.132,8.813-8.342l3.216,3.216-13.67,13.671a2.276,2.276,0,0,1-3.519-2.848,1.137,1.137,0,1,0-1.906-1.241,4.551,4.551,0,0,0,7.032,5.7l8.041-8.041,4.021,4.021-9.65,9.65a9.252,9.252,0,0,1-5.124,2.6,1.137,1.137,0,0,0,.376,2.243,11.483,11.483,0,0,0,6.357-3.239L275.2,218.261a1.137,1.137,0,0,0,0-1.608l-4.825-4.825,12.062-12.062a4.549,4.549,0,0,0-6.433-6.434Zm13.67-10.454a2.274,2.274,0,1,1,3.217,3.217l-6.433,6.433-3.217-3.217Z" transform="translate(-210.975 -164.706)" fill="#b1bf34"/>
    <path id="Trazado_886815" data-name="Trazado 886815" d="M60.346,51.733c.605-.208,1.25-.394,1.915-.554A4.224,4.224,0,0,1,66.4,54.587a1.137,1.137,0,0,0,1.137,1.137c2.45,0,.748-5.609-3.905-6.657,2.569-6.591,10.067-5.811,10.223-5.852a18.6,18.6,0,0,0-.632,4.549A1.161,1.161,0,0,0,74.356,48.9a1.137,1.137,0,0,0,1.137-1.136A14.2,14.2,0,0,1,76.5,42.607c3.374-6.091,9.761-7.343,14.993-5.4a1.138,1.138,0,0,0,.793-2.132A15.353,15.353,0,0,0,88,34.16V24.435l5.347-4.2c3.148,3.057,7.189,1.826,10.642-.888,4.8-3.773,7.021-12.879,7.113-13.265a1.137,1.137,0,0,0-1.1-1.4c-.4,0-9.769,0-14.571,3.775-3.362,2.642-5.561,6.207-3.469,9.974L88,21.542a20.282,20.282,0,0,0-1.455-7.672c2.334-2.518,2.527-6.056-1.44-9.761C81.313.563,73.286.024,72.946,0a1.137,1.137,0,0,0-1.2,1.283c.044.337,1.127,8.309,4.922,11.854,2.3,2.153,5.17,3.551,7.99,2.164,1.6,4.405.894,7.432,1.068,12.35l-3.253-1.772c.555-1.891.37-4.976-4.746-7.764-4.715-2.569-12.635-1.582-12.97-1.539a1.137,1.137,0,0,0-.881,1.617c.145.3,3.612,7.493,8.327,10.062,3.24,1.765,6.9,2.5,9.213-.362l4.31,2.347V34.16A13.544,13.544,0,0,0,74.837,40.94c-1.175.131-5.5-.691-9.624,2.421a11.121,11.121,0,0,0-4,5.735c-.553.146-1.091.309-1.606.486a1.137,1.137,0,0,0,.74,2.151Zm36.492-41.49c3.131-2.461,8.913-3.081,11.647-3.237-.8,2.619-2.762,8.086-5.9,10.551-2.325,1.827-5.174,3.176-7.425,1.253l8.328-6.543a1.137,1.137,0,0,0-1.405-1.789L93.786,17C92.6,14.4,94.6,12,96.838,10.243Zm-11.39,1.336A20.107,20.107,0,0,0,80.77,5.951,1.137,1.137,0,1,0,79.314,7.7a17.816,17.816,0,0,1,4.434,5.521c-1.9,1.006-3.952-.271-5.525-1.741-2.334-2.181-3.5-6.729-3.969-9.054,2.351.306,6.967,1.165,9.3,3.346,1.767,1.651,3.15,3.738,1.893,5.808ZM80.4,24.752,74.616,21.6a1.137,1.137,0,1,0-1.088,2l5.839,3.18c-1.242,1.176-3.278,1.005-6.074-.518-2.885-1.571-5.366-5.433-6.576-7.567,2.449-.141,7.039-.15,9.923,1.422,2.692,1.466,3.949,3.02,3.758,4.635Z" transform="translate(-50.46 0)" fill="#b1bf34"/>
    <path id="Trazado_886816" data-name="Trazado 886816" d="M69.331,372.058h0a1.137,1.137,0,1,0-1.6,1.616,9.2,9.2,0,0,1-6.4,15.721H11.288a9.213,9.213,0,0,1-8.737-11.937,1.137,1.137,0,0,0-2.195-.6,11.488,11.488,0,0,0,10.932,14.81H61.326A11.385,11.385,0,0,0,72.7,380.3,10.817,10.817,0,0,0,69.331,372.058Z" transform="translate(0.098 -318.886)" fill="#b1bf34"/>
    <path id="Trazado_886817" data-name="Trazado 886817" d="M169.627,374.824a1.137,1.137,0,0,0-1.137,1.137c0,2.509,6.255.819,6.255-3.98a5.112,5.112,0,0,0-3.418-4.829c.307-7.224-9.442-9.871-12.834-3.512A5.122,5.122,0,0,0,152,368.57c0,4.829,6.255,6.464,6.255,3.98a1.137,1.137,0,0,0-1.137-1.137,2.843,2.843,0,1,1,1.413-5.309,1.137,1.137,0,0,0,1.649-.637,4.549,4.549,0,0,1,8.783,2.329,1.137,1.137,0,0,0,.986,1.362,2.843,2.843,0,0,1-.322,5.667Z" transform="translate(-130.379 -308.865)" fill="#b1bf34"/>
    <circle id="Elipse_11769" data-name="Elipse 11769" cx="1.137" cy="1.137" r="1.137" transform="translate(3.426 52.312)" fill="#b1bf34"/>
    <circle id="Elipse_11770" data-name="Elipse 11770" cx="1.137" cy="1.137" r="1.137" transform="translate(45.503 47.763)" fill="#b1bf34"/>
  </g>
</svg>
