<svg id="cuero" xmlns="http://www.w3.org/2000/svg" width="96.779" height="93" viewBox="0 0 96.779 93">
  <g id="Grupo_1103874" data-name="Grupo 1103874">
    <path id="Trazado_887920" data-name="Trazado 887920" fill="none" stroke="#000" stroke-linecap="round" stroke-linejoin="round" stroke-miterlimit="10" stroke-width="2"/>
  </g>
  <g id="Grupo_1103888" data-name="Grupo 1103888" transform="translate(0.004 3.782)">
    <g id="Grupo_1103880" data-name="Grupo 1103880" transform="translate(34.781 0)">
      <g id="Grupo_1103875" data-name="Grupo 1103875" transform="translate(10.58)">
        <path id="Trazado_887921" data-name="Trazado 887921" d="M42.1,16.111A12.112,12.112,0,0,1,30,4.013a1.512,1.512,0,1,1,3.024,0A9.082,9.082,0,0,0,42.1,13.087a9.013,9.013,0,0,0,6.484-2.725,1.512,1.512,0,1,1,2.159,2.116A12.013,12.013,0,0,1,42.1,16.111Z" transform="translate(-29.999 -2.501)" fill="#57d3fb"/>
      </g>
      <g id="Grupo_1103876" data-name="Grupo 1103876" transform="translate(21.166 19.062)">
        <path id="Trazado_887922" data-name="Trazado 887922" d="M52.126,61.658a1.5,1.5,0,0,1-.661-.153,25.715,25.715,0,0,1-.006-46.245,1.513,1.513,0,0,1,1.326,2.719,22.69,22.69,0,0,0,0,40.806,1.513,1.513,0,0,1-.664,2.873Z" transform="translate(-36.999 -15.106)" fill="#57d3fb"/>
      </g>
      <g id="Grupo_1103877" data-name="Grupo 1103877" transform="translate(0 71.068)">
        <path id="Trazado_887923" data-name="Trazado 887923" d="M24.514,64.619a1.512,1.512,0,0,1-1.282-2.312c5.075-8.14,13.259-12.81,22.45-12.81a25.588,25.588,0,0,1,9.645,1.871,1.512,1.512,0,0,1-1.134,2.8,22.583,22.583,0,0,0-8.511-1.65c-8.245,0-15.307,4.044-19.883,11.385A1.513,1.513,0,0,1,24.514,64.619Z" transform="translate(-23.003 -49.497)" fill="#57d3fb"/>
      </g>
      <g id="Grupo_1103878" data-name="Grupo 1103878" transform="translate(28.726 7.403)">
        <path id="Trazado_887924" data-name="Trazado 887924" d="M49.562,22.084a1.512,1.512,0,0,1-1.344-.817L42.169,9.605a1.513,1.513,0,0,1,2.686-1.393L50.9,19.875a1.512,1.512,0,0,1-.647,2.038A1.486,1.486,0,0,1,49.562,22.084Z" transform="translate(-41.999 -7.397)" fill="#57d3fb"/>
      </g>
      <g id="Grupo_1103879" data-name="Grupo 1103879" transform="translate(30.239 62.589)">
        <path id="Trazado_887925" data-name="Trazado 887925" d="M44.51,57.157a1.491,1.491,0,0,1-.611-.13,1.512,1.512,0,0,1-.77-1.995L47.666,44.79a1.512,1.512,0,1,1,2.764,1.225L45.893,56.257a1.512,1.512,0,0,1-1.384.9Z" transform="translate(-42.999 -43.89)" fill="#57d3fb"/>
      </g>
    </g>
    <g id="Grupo_1103886" data-name="Grupo 1103886" transform="translate(0 0)">
      <g id="Grupo_1103881" data-name="Grupo 1103881" transform="translate(6.053)">
        <path id="Trazado_887926" data-name="Trazado 887926" d="M13.081,16.111a12.013,12.013,0,0,1-8.644-3.634A1.512,1.512,0,1,1,6.6,10.362a9.01,9.01,0,0,0,6.484,2.725,9.082,9.082,0,0,0,9.073-9.073,1.512,1.512,0,1,1,3.024,0,12.114,12.114,0,0,1-12.1,12.1Z" transform="translate(-4.006 -2.501)" fill="#57d3fb"/>
      </g>
      <g id="Grupo_1103882" data-name="Grupo 1103882" transform="translate(0 19.062)">
        <path id="Trazado_887927" data-name="Trazado 887927" d="M1.515,61.658a1.513,1.513,0,0,1-.662-2.873,22.536,22.536,0,0,0,12.766-20.4A22.551,22.551,0,0,0,.859,17.979,1.512,1.512,0,0,1,2.184,15.26a25.552,25.552,0,0,1,14.46,23.125A25.542,25.542,0,0,1,2.178,61.505a1.525,1.525,0,0,1-.662.153Z" transform="translate(-0.003 -15.107)" fill="#57d3fb"/>
      </g>
      <g id="Grupo_1103883" data-name="Grupo 1103883" transform="translate(4.536 71.068)">
        <path id="Trazado_887928" data-name="Trazado 887928" d="M34.761,64.619a1.513,1.513,0,0,1-1.285-.712C28.9,56.565,21.838,52.521,13.593,52.521a22.583,22.583,0,0,0-8.511,1.65,1.512,1.512,0,0,1-1.134-2.8A25.582,25.582,0,0,1,13.593,49.5c9.193,0,17.375,4.67,22.45,12.81a1.512,1.512,0,0,1-1.282,2.312Z" transform="translate(-3.002 -49.497)" fill="#57d3fb"/>
      </g>
      <g id="Grupo_1103884" data-name="Grupo 1103884" transform="translate(0.007 7.404)">
        <path id="Trazado_887929" data-name="Trazado 887929" d="M1.518,22.084a1.511,1.511,0,0,1-1.34-2.208L6.227,8.214A1.512,1.512,0,0,1,8.911,9.606L2.862,21.269A1.512,1.512,0,0,1,1.518,22.084Z" transform="translate(-0.007 -7.397)" fill="#57d3fb"/>
      </g>
      <g id="Grupo_1103885" data-name="Grupo 1103885" transform="translate(0.005 62.588)">
        <path id="Trazado_887930" data-name="Trazado 887930" d="M6.056,57.157a1.512,1.512,0,0,1-1.384-.9L.136,46.015A1.512,1.512,0,0,1,2.9,44.79L7.439,55.032a1.51,1.51,0,0,1-.771,1.995,1.48,1.48,0,0,1-.611.13Z" transform="translate(-0.006 -43.889)" fill="#57d3fb"/>
      </g>
    </g>
    <g id="Grupo_1103887" data-name="Grupo 1103887" transform="translate(24.196)">
      <path id="Trazado_887931" data-name="Trazado 887931" d="M38.68,5.525H17.515a1.512,1.512,0,0,1,0-3.024H38.68a1.512,1.512,0,1,1,0,3.024Z" transform="translate(-16.003 -2.501)" fill="#57d3fb"/>
    </g>
  </g>
  <g id="Grupo_1103899" data-name="Grupo 1103899" transform="translate(43.141 6.806)">
    <g id="Grupo_1103894" data-name="Grupo 1103894" transform="translate(15.831 0.002)">
      <g id="Grupo_1103889" data-name="Grupo 1103889" transform="translate(10.579)">
        <path id="Trazado_887932" data-name="Trazado 887932" d="M58.091,18.112a12.112,12.112,0,0,1-12.1-12.1,1.512,1.512,0,1,1,3.024,0,9.082,9.082,0,0,0,9.073,9.073,9.013,9.013,0,0,0,6.484-2.725,1.512,1.512,0,1,1,2.159,2.116,12.013,12.013,0,0,1-8.644,3.634Z" transform="translate(-45.993 -4.502)" fill="#57d3fb"/>
      </g>
      <g id="Grupo_1103890" data-name="Grupo 1103890" transform="translate(21.165 19.062)">
        <path id="Trazado_887933" data-name="Trazado 887933" d="M68.12,63.661a1.5,1.5,0,0,1-.661-.153,25.716,25.716,0,0,1-.006-46.247,1.513,1.513,0,0,1,1.326,2.719,22.691,22.691,0,0,0,0,40.807,1.513,1.513,0,0,1-.664,2.873Z" transform="translate(-52.993 -17.107)" fill="#57d3fb"/>
      </g>
      <g id="Grupo_1103891" data-name="Grupo 1103891" transform="translate(0 71.07)">
        <path id="Trazado_887934" data-name="Trazado 887934" d="M40.508,66.621a1.511,1.511,0,0,1-1.281-2.312C44.3,56.169,52.486,51.5,61.677,51.5a25.588,25.588,0,0,1,9.645,1.871,1.512,1.512,0,0,1-1.134,2.8,22.583,22.583,0,0,0-8.511-1.65c-8.245,0-15.307,4.044-19.883,11.385A1.517,1.517,0,0,1,40.508,66.621Z" transform="translate(-38.997 -51.499)" fill="#57d3fb"/>
      </g>
      <g id="Grupo_1103892" data-name="Grupo 1103892" transform="translate(28.725 7.403)">
        <path id="Trazado_887935" data-name="Trazado 887935" d="M65.556,24.085a1.512,1.512,0,0,1-1.344-.817L58.163,11.606a1.513,1.513,0,0,1,2.686-1.393L66.9,21.876a1.512,1.512,0,0,1-.647,2.038A1.486,1.486,0,0,1,65.556,24.085Z" transform="translate(-57.993 -9.398)" fill="#57d3fb"/>
      </g>
      <g id="Grupo_1103893" data-name="Grupo 1103893" transform="translate(30.238 62.591)">
        <path id="Trazado_887936" data-name="Trazado 887936" d="M60.5,59.158a1.491,1.491,0,0,1-.611-.13,1.512,1.512,0,0,1-.77-1.995L63.66,46.792a1.512,1.512,0,1,1,2.764,1.225L61.887,58.259a1.512,1.512,0,0,1-1.384.9Z" transform="translate(-58.993 -45.892)" fill="#57d3fb"/>
      </g>
    </g>
    <g id="Grupo_1103897" data-name="Grupo 1103897">
      <g id="Grupo_1103895" data-name="Grupo 1103895" transform="translate(4.602)">
        <path id="Trazado_887937" data-name="Trazado 887937" d="M33.084,11.182a1.514,1.514,0,0,1-1.42-2.035,9.029,9.029,0,0,0,.555-3.133,1.512,1.512,0,0,1,3.024,0A12.058,12.058,0,0,1,34.5,10.19,1.509,1.509,0,0,1,33.084,11.182Z" transform="translate(-31.572 -4.501)" fill="#57d3fb"/>
      </g>
      <g id="Grupo_1103896" data-name="Grupo 1103896" transform="translate(0 71.644)">
        <path id="Trazado_887938" data-name="Trazado 887938" d="M45.873,66.427a1.513,1.513,0,0,1-1.285-.712A23.244,23.244,0,0,0,29.716,54.866a1.512,1.512,0,0,1,.649-2.953,26.2,26.2,0,0,1,16.79,12.2,1.513,1.513,0,0,1-1.282,2.314Z" transform="translate(-28.528 -51.878)" fill="#57d3fb"/>
      </g>
    </g>
    <g id="Grupo_1103898" data-name="Grupo 1103898" transform="translate(5.245 0.002)">
      <path id="Trazado_887939" data-name="Trazado 887939" d="M54.674,7.526H33.509a1.512,1.512,0,1,1,0-3.024H54.674a1.512,1.512,0,1,1,0,3.024Z" transform="translate(-31.997 -4.502)" fill="#57d3fb"/>
    </g>
  </g>
  <g id="Grupo_1103900" data-name="Grupo 1103900" transform="translate(34.778 11.343)">
    <path id="Trazado_887940" data-name="Trazado 887940" d="M24.51,13.55A1.513,1.513,0,0,1,23,12.038V9.013a1.512,1.512,0,0,1,3.024,0v3.024A1.513,1.513,0,0,1,24.51,13.55Z" transform="translate(-22.998 -7.501)" fill="#57d3fb"/>
  </g>
  <g id="Grupo_1103901" data-name="Grupo 1103901" transform="translate(34.778 18.904)">
    <path id="Trazado_887941" data-name="Trazado 887941" d="M24.51,18.548A1.513,1.513,0,0,1,23,17.036V14.013a1.512,1.512,0,1,1,3.024,0v3.023A1.513,1.513,0,0,1,24.51,18.548Z" transform="translate(-22.998 -12.501)" fill="#57d3fb"/>
  </g>
  <g id="Grupo_1103902" data-name="Grupo 1103902" transform="translate(34.778 26.464)">
    <path id="Trazado_887942" data-name="Trazado 887942" d="M24.51,23.549A1.513,1.513,0,0,1,23,22.037V19.012a1.512,1.512,0,1,1,3.024,0v3.024A1.513,1.513,0,0,1,24.51,23.549Z" transform="translate(-22.998 -17.5)" fill="#57d3fb"/>
  </g>
  <g id="Grupo_1103903" data-name="Grupo 1103903" transform="translate(34.778 34.025)">
    <path id="Trazado_887943" data-name="Trazado 887943" d="M24.51,28.549A1.512,1.512,0,0,1,23,27.037V24.012a1.512,1.512,0,0,1,3.024,0v3.024A1.512,1.512,0,0,1,24.51,28.549Z" transform="translate(-22.998 -22.5)" fill="#57d3fb"/>
  </g>
  <g id="Grupo_1103904" data-name="Grupo 1103904" transform="translate(34.778 41.586)">
    <path id="Trazado_887944" data-name="Trazado 887944" d="M24.51,33.549A1.512,1.512,0,0,1,23,32.037V29.012a1.512,1.512,0,0,1,3.024,0v3.024A1.512,1.512,0,0,1,24.51,33.549Z" transform="translate(-22.998 -27.5)" fill="#57d3fb"/>
  </g>
  <g id="Grupo_1103905" data-name="Grupo 1103905" transform="translate(34.778 49.147)">
    <path id="Trazado_887945" data-name="Trazado 887945" d="M24.51,38.55A1.512,1.512,0,0,1,23,37.038V34.012a1.512,1.512,0,0,1,3.024,0v3.026A1.512,1.512,0,0,1,24.51,38.55Z" transform="translate(-22.998 -32.5)" fill="#57d3fb"/>
  </g>
  <g id="Grupo_1103906" data-name="Grupo 1103906" transform="translate(34.778 56.71)">
    <path id="Trazado_887946" data-name="Trazado 887946" d="M24.51,43.55A1.512,1.512,0,0,1,23,42.038V39.013a1.512,1.512,0,1,1,3.024,0v3.024A1.512,1.512,0,0,1,24.51,43.55Z" transform="translate(-22.998 -37.501)" fill="#57d3fb"/>
  </g>
  <g id="Grupo_1103907" data-name="Grupo 1103907" transform="translate(34.778 64.271)">
    <path id="Trazado_887947" data-name="Trazado 887947" d="M24.51,48.55A1.512,1.512,0,0,1,23,47.038V44.013a1.512,1.512,0,1,1,3.024,0v3.024A1.512,1.512,0,0,1,24.51,48.55Z" transform="translate(-22.998 -42.501)" fill="#57d3fb"/>
  </g>
  <g id="Grupo_1103908" data-name="Grupo 1103908" transform="translate(34.778 71.832)">
    <path id="Trazado_887948" data-name="Trazado 887948" d="M24.51,53.55A1.512,1.512,0,0,1,23,52.038V49.013a1.512,1.512,0,0,1,3.024,0v3.024A1.512,1.512,0,0,1,24.51,53.55Z" transform="translate(-22.998 -47.501)" fill="#57d3fb"/>
  </g>
</svg>
